<svg width="323" height="142" viewBox="0 0 323 142" fill="none" xmlns="http://www.w3.org/2000/svg">
<path fill-rule="evenodd" clip-rule="evenodd" d="M981.678 -216.217C933.727 -128.448 912.637 -19.5743 831.028 34.1106C750.83 86.8673 649.444 50.5157 555.75 63.9701C436.065 81.1572 314.029 182.1 206.821 123.748C100.071 65.6453 86.9611 -87.8084 53.6931 -209.291C20.7262 -329.674 -22.2573 -455.012 15.794 -573.814C54.0889 -693.375 155.569 -774.531 256.563 -842.677C354.621 -908.84 464.012 -959.142 580.38 -954.764C695.913 -950.419 796.738 -886.157 892.872 -818.744C995.671 -746.658 1133.28 -682.219 1152.21 -553.778C1171.22 -424.796 1043.55 -329.469 981.678 -216.217Z" fill="#20C897" fill-opacity="0.1"/>
</svg>
