<svg width="770" height="1366" viewBox="0 0 770 1366" fill="none" xmlns="http://www.w3.org/2000/svg">
<path fill-rule="evenodd" clip-rule="evenodd" d="M668.981 1314.42C567.951 1307.55 460.721 1343.27 374.287 1278.8C289.348 1215.45 274.051 1078.54 217.873 977.964C146.11 849.486 -1.60641 764.478 0.0132103 608.732C1.626 453.65 132.577 353.931 225.457 248.603C317.497 144.229 409.244 25.5766 533.339 3.9334C658.229 -17.8481 778.576 54.3753 887.068 133.213C992.405 209.758 1088.91 308.114 1139.84 444.659C1190.4 580.223 1180.49 731.87 1165.56 879.848C1149.59 1038.08 1156.85 1232.23 1051 1324.86C944.696 1417.89 799.344 1323.3 668.981 1314.42Z" fill="#20C897" fill-opacity="0.05"/>
</svg>
