<svg width="50" height="43" viewBox="0 0 50 43" fill="none" xmlns="http://www.w3.org/2000/svg">
<rect x="20.6191" width="28.5714" height="30" rx="5" fill="#20C897"/>
<path d="M26.829 22.334V24.9175H17.8862C16.305 24.9175 14.7886 25.4619 13.6705 26.4309C12.5524 27.4 11.9243 28.7142 11.9243 30.0846V35.2517C11.9243 36.6221 12.5524 37.9364 13.6705 38.9054C14.7886 39.8744 16.305 40.4188 17.8862 40.4188H32.7908C34.372 40.4188 35.8884 39.8744 37.0065 38.9054C38.1246 37.9364 38.7527 36.6221 38.7527 35.2517V30.0846C38.7527 29.1776 38.4772 28.2866 37.9539 27.5012C37.4307 26.7157 36.6781 26.0634 35.7718 25.6099V22.7732C39.2446 23.8376 41.7336 26.7079 41.7336 30.082V35.2491C41.7336 37.3047 40.7915 39.2762 39.1144 40.7297C37.4373 42.1832 35.1626 42.9998 32.7908 42.9998H17.8862C15.5144 42.9998 13.2397 42.1832 11.5626 40.7297C9.88555 39.2762 8.94336 37.3047 8.94336 35.2491V30.0846C8.94336 28.029 9.88555 26.0576 11.5626 24.6041C13.2397 23.1506 15.5144 22.334 17.8862 22.334H26.829Z" fill="#0D4C8F"/>
<path d="M14.9047 32.6684V30.0848H23.8475C25.4287 30.0848 26.9451 29.5405 28.0632 28.5714C29.1812 27.6024 29.8093 26.2881 29.8093 24.9177V19.7506C29.8093 18.3802 29.1812 17.066 28.0632 16.097C26.9451 15.1279 25.4287 14.5835 23.8475 14.5835H8.9428C7.36162 14.5835 5.84519 15.1279 4.72713 16.097C3.60906 17.066 2.98093 18.3802 2.98093 19.7506V24.9177C2.98096 25.8247 3.25645 26.7157 3.77971 27.5012C4.30297 28.2867 5.05557 28.939 5.96187 29.3925V32.2292C4.21778 31.6944 2.70791 30.7041 1.64019 29.3947C0.572477 28.0853 -0.000560583 26.5211 4.11509e-07 24.9177V19.7506C4.11509e-07 17.695 0.942186 15.7236 2.61929 14.2701C4.29639 12.8166 6.57102 12 8.9428 12H23.8475C26.2193 12 28.4939 12.8166 30.171 14.2701C31.8481 15.7236 32.7903 17.695 32.7903 19.7506V24.9177C32.7903 26.9733 31.8481 28.9448 30.171 30.3983C28.4939 31.8518 26.2193 32.6684 23.8475 32.6684H14.9047Z" fill="#0D4C8F"/>
</svg>
