<svg width="55" height="56" viewBox="0 0 55 56" fill="none" xmlns="http://www.w3.org/2000/svg">
<rect x="25.668" width="28.5714" height="30" rx="5" fill="#20C897"/>
<path d="M3.91797 12.9165H21.543V30.5415H3.91797V12.9165ZM7.83464 16.8332V26.6248H17.6263V16.8332H7.83464ZM34.2721 16.8332C32.9737 16.8332 31.7284 17.349 30.8103 18.2671C29.8921 19.1853 29.3763 20.4305 29.3763 21.729C29.3763 23.0275 29.8921 24.2727 30.8103 25.1909C31.7284 26.109 32.9737 26.6248 34.2721 26.6248C35.5706 26.6248 36.8159 26.109 37.734 25.1909C38.6522 24.2727 39.168 23.0275 39.168 21.729C39.168 20.4305 38.6522 19.1853 37.734 18.2671C36.8159 17.349 35.5706 16.8332 34.2721 16.8332ZM25.4596 21.729C25.4596 20.5717 25.6876 19.4258 26.1304 18.3566C26.5733 17.2874 27.2224 16.3159 28.0408 15.4976C28.8591 14.6793 29.8306 14.0302 30.8997 13.5873C31.9689 13.1444 33.1149 12.9165 34.2721 12.9165C35.4294 12.9165 36.5754 13.1444 37.6445 13.5873C38.7137 14.0302 39.6852 14.6793 40.5035 15.4976C41.3218 16.3159 41.971 17.2874 42.4138 18.3566C42.8567 19.4258 43.0846 20.5717 43.0846 21.729C43.0846 24.0662 42.1562 26.3077 40.5035 27.9604C38.8508 29.613 36.6094 30.5415 34.2721 30.5415C31.9349 30.5415 29.6934 29.613 28.0408 27.9604C26.3881 26.3077 25.4596 24.0662 25.4596 21.729ZM3.91797 34.4582H21.543V52.0832H3.91797V34.4582ZM7.83464 38.3748V48.1665H17.6263V38.3748H7.83464ZM25.4596 34.4582H43.0846V52.0832H25.4596V34.4582ZM29.3763 38.3748V48.1665H39.168V38.3748H29.3763Z" fill="#0D4C8F"/>
</svg>
