<svg width="49" height="48" viewBox="0 0 49 48" fill="none" xmlns="http://www.w3.org/2000/svg">
<rect x="19" width="30" height="30" rx="5" fill="#20C897"/>
<path d="M18.71 22H16.02L12 38H14.054L14.982 34.25H19.614L20.518 38H22.642L18.71 22ZM15.252 32.648L17.288 23.9H17.38L19.346 32.648H15.252ZM24.476 22H26.476V38H24.476V22Z" fill="#0D4C8F"/>
<mask id="path-3-inside-1_1_1714" fill="white">
<rect x="5" y="16" width="29" height="27" rx="2"/>
</mask>
<rect x="5" y="16" width="29" height="27" rx="2" stroke="#0D4C8F" stroke-width="5" mask="url(#path-3-inside-1_1_1714)"/>
<rect x="33" y="23" width="6" height="4" rx="0.5" fill="#0D4C8F"/>
<rect y="23" width="6" height="4" rx="0.5" fill="#0D4C8F"/>
<rect x="12" y="17" width="6" height="4" rx="0.5" transform="rotate(-90 12 17)" fill="#0D4C8F"/>
<rect x="12" y="48" width="6" height="4" rx="0.5" transform="rotate(-90 12 48)" fill="#0D4C8F"/>
<rect x="23" y="17" width="6" height="4" rx="0.5" transform="rotate(-90 23 17)" fill="#0D4C8F"/>
<rect x="23" y="48" width="6" height="4" rx="0.5" transform="rotate(-90 23 48)" fill="#0D4C8F"/>
<rect x="33" y="33" width="6" height="4" rx="0.5" fill="#0D4C8F"/>
<rect y="33" width="6" height="4" rx="0.5" fill="#0D4C8F"/>
</svg>
