<svg width="52" height="46" viewBox="0 0 52 46" fill="none" xmlns="http://www.w3.org/2000/svg">
<rect x="22.6172" width="28.5714" height="30" rx="5" fill="#20C897"/>
<path d="M26.6654 16.0002C26.6654 12.8568 26.6654 11.2868 25.6887 10.3102C24.712 9.3335 23.142 9.3335 19.9987 9.3335C16.8554 9.3335 15.2854 9.3335 14.3087 10.3102C13.332 11.2868 13.332 12.8568 13.332 16.0002M3.33203 29.3335C3.33203 23.0485 3.33203 19.9052 5.28536 17.9535C7.23703 16.0002 10.3804 16.0002 16.6654 16.0002H23.332C29.617 16.0002 32.7604 16.0002 34.712 17.9535C36.6654 19.9052 36.6654 23.0485 36.6654 29.3335C36.6654 35.6185 36.6654 38.7618 34.712 40.7135C32.7604 42.6668 29.617 42.6668 23.332 42.6668H16.6654C10.3804 42.6668 7.23703 42.6668 5.28536 40.7135C3.33203 38.7618 3.33203 35.6185 3.33203 29.3335Z" stroke="#0D4C8F" stroke-width="3"/>
<path d="M19.9974 34.8887C21.8391 34.8887 23.3307 33.6453 23.3307 32.112C23.3307 30.5787 21.8391 29.3337 19.9974 29.3337C18.1557 29.3337 16.6641 28.0903 16.6641 26.5553C16.6641 25.022 18.1557 23.7787 19.9974 23.7787M19.9974 34.8887C18.1557 34.8887 16.6641 33.6453 16.6641 32.112M19.9974 34.8887V36.0003M19.9974 23.7787V22.667M19.9974 23.7787C21.8391 23.7787 23.3307 25.022 23.3307 26.5553" stroke="#0D4C8F" stroke-width="3" stroke-linecap="round"/>
</svg>
