<svg width="47" height="46" viewBox="0 0 47 46" fill="none" xmlns="http://www.w3.org/2000/svg">
<rect x="17.6191" width="28.5714" height="30" rx="5" fill="#20C897"/>
<path d="M18.5007 22.105C27.015 22.105 33.9173 20.0343 33.9173 17.48C33.9173 14.9257 27.015 12.855 18.5007 12.855C9.98626 12.855 3.08398 14.9257 3.08398 17.48C3.08398 20.0343 9.98626 22.105 18.5007 22.105Z" stroke="#0D4C8F" stroke-width="3.08333" stroke-linecap="round" stroke-linejoin="round"/>
<path d="M8.30253 20.9487C5.10357 21.7966 3.08398 23.0361 3.08398 24.4175C3.08398 26.972 9.98603 29.0425 18.5007 29.0425C27.0153 29.0425 33.9173 26.972 33.9173 24.4175C33.9173 23.0361 31.8985 21.7966 28.6988 20.9487" stroke="#0D4C8F" stroke-width="3.08333" stroke-linecap="round" stroke-linejoin="round"/>
<path d="M8.30253 27.8862C5.10357 28.7341 3.08398 29.9736 3.08398 31.355C3.08398 33.9095 9.98603 35.98 18.5007 35.98C27.0153 35.98 33.9173 33.9095 33.9173 31.355C33.9173 29.9736 31.8985 28.7341 28.6988 27.8862" stroke="#0D4C8F" stroke-width="3.08333" stroke-linecap="round" stroke-linejoin="round"/>
<path d="M8.30253 34.8237C5.10357 35.6716 3.08398 36.9111 3.08398 38.2925C3.08398 40.847 9.98603 42.9175 18.5007 42.9175C27.0153 42.9175 33.9173 40.847 33.9173 38.2925C33.9173 36.9111 31.8985 35.6716 28.6988 34.8237" stroke="#0D4C8F" stroke-width="3.08333" stroke-linecap="round" stroke-linejoin="round"/>
</svg>
