<svg width="51" height="56" viewBox="0 0 51 56" fill="none" xmlns="http://www.w3.org/2000/svg">
<rect x="21.668" width="28.5714" height="30" rx="5" fill="#20C897"/>
<path d="M24.75 49.125C25.5094 49.125 26.125 48.5094 26.125 47.75C26.125 46.9906 25.5094 46.375 24.75 46.375C23.9906 46.375 23.375 46.9906 23.375 47.75C23.375 48.5094 23.9906 49.125 24.75 49.125Z" fill="#0D4C8F"/>
<path d="M38.5 39.5C40.0166 39.5 41.25 38.2666 41.25 36.75V31.25C41.25 29.7347 40.0166 28.5 38.5 28.5H37.125V21.625C37.125 20.1097 35.8916 18.875 34.375 18.875H27.5V17.5C27.5 15.9848 26.2666 14.75 24.75 14.75H19.25C17.7334 14.75 16.5 15.9848 16.5 17.5V18.875H9.625C8.10838 18.875 6.875 20.1097 6.875 21.625V28.6953C4.51 29.3099 2.75 31.4452 2.75 34C2.75 36.5548 4.51 38.6887 6.875 39.3048V46.375C6.875 47.8916 8.10838 49.125 9.625 49.125H19.25V50.5C19.25 52.0166 20.4834 53.25 22 53.25H38.5C40.0166 53.25 41.25 52.0166 41.25 50.5V45C41.25 43.4848 40.0166 42.25 38.5 42.25H37.125V39.5H38.5ZM38.5 36.75H33V31.25H38.5V36.75ZM19.25 17.5H24.75V23H19.25V17.5ZM16.5 21.625V23C16.5 24.5166 17.7334 25.75 19.25 25.75H24.75C26.2666 25.75 27.5 24.5166 27.5 23V21.625H34.375V28.5H33C31.4834 28.5 30.25 29.7347 30.25 31.25V32.625H13.5547C13.3077 31.68 12.8134 30.8179 12.1227 30.1273C11.4321 29.4366 10.57 28.9423 9.625 28.6953V21.625H16.5ZM5.5 34C5.5 32.4848 6.73337 31.25 8.25 31.25C9.76662 31.25 11 32.4848 11 34C11 35.5152 9.76662 36.75 8.25 36.75C6.73337 36.75 5.5 35.5166 5.5 34ZM38.5 50.5H22V45H38.5V50.5ZM34.375 42.25H22C20.4834 42.25 19.25 43.4848 19.25 45V46.375H9.625V39.3048C10.57 39.0577 11.4321 38.5634 12.1227 37.8727C12.8134 37.1821 13.3077 36.32 13.5547 35.375H30.25V36.75C30.25 38.2666 31.4834 39.5 33 39.5H34.375V42.25Z" fill="#0D4C8F"/>
</svg>
