<svg width="58" height="58" viewBox="0 0 58 58" fill="none" xmlns="http://www.w3.org/2000/svg">
<rect x="28" width="30" height="30" rx="5" fill="#20C897"/>
<path d="M10.6524 4.82327L10.4758 4.64653L10.2989 4.8231L7.52694 7.59116L7.34987 7.76798L7.52686 7.94488L11.6514 12.0674L11.8282 12.2441L12.0049 12.0674L14.773 9.29934L14.9497 9.12261L14.773 8.94583L10.6524 4.82327ZM46.8282 4.82329L46.6515 4.64643L46.4746 4.82318L42.3501 8.94574L42.1732 9.12258L42.3501 9.2994L45.1202 12.0675L45.2969 12.2441L45.4736 12.0674L49.5962 7.94685L49.773 7.77014L49.5963 7.59332L46.8282 4.82329ZM28.5602 5.97851L28.5595 5.97852C27.9091 5.9864 27.2493 6.02356 26.5844 6.10381L26.5767 6.10334C26.5621 6.10261 26.5337 6.10158 26.4995 6.1069C18.3994 7.03875 11.9614 13.5812 10.8422 21.637L10.8422 21.6372C9.94755 28.1273 12.6246 34.0115 17.0799 37.7986C18.8288 39.2911 20.0136 41.3375 20.4375 43.5968V55.3862V55.6362H20.6875H25.0354C25.7765 56.8148 27.0685 57.605 28.5625 57.605C30.0565 57.605 31.3485 56.8148 32.0896 55.6362H36.4375H36.6875V55.3862V47.7612H36.8726V47.5112V45.1723C36.8726 42.3725 38.33 39.5251 40.7301 37.2975L40.7303 37.2976L40.7369 37.2909C44.0341 33.9898 46.5312 29.2927 46.5312 23.8882C46.5312 14.0254 38.4148 5.88664 28.5602 5.97851ZM37.4364 34.2831L37.4937 34.3404C34.9841 36.7333 33.3434 39.8952 32.8322 43.3257H24.6565C24.1835 39.9801 22.7173 36.7426 19.9859 34.4024L19.985 34.4017C16.5641 31.4977 14.532 27.1303 15.212 22.1999C16.057 16.1087 21.001 11.2127 27.0505 10.5424L27.0505 10.5425L27.0575 10.5416C27.5572 10.4719 28.0605 10.4306 28.5649 10.4179L28.6205 10.4165L28.6229 10.4153C36.0633 10.3428 42.0938 16.4439 42.0938 23.8882C42.0938 27.931 40.2208 31.5008 37.6133 34.1063L37.4364 34.2831ZM1 23.6382H0.75V23.8882V27.8257V28.0757H1H6.90625H7.15625V27.8257V23.8882V23.6382H6.90625H1ZM50.2188 23.6382H49.9688V23.8882V27.8257V28.0757H50.2188H56.125H56.375V27.8257V23.8882V23.6382H56.125H50.2188ZM12.005 39.6465L11.8282 39.4697L11.6514 39.6464L7.52883 43.767L7.35197 43.9438L7.52879 44.1206L10.2988 46.8907L10.4757 47.0675L10.6525 46.8906L14.7711 42.768L14.9476 42.5913L14.7711 42.4146L12.005 39.6465ZM45.4736 39.6464L45.2968 39.4697L45.1201 39.6465L42.352 42.4145L42.1753 42.5913L42.352 42.768L46.4726 46.8906L46.6494 47.0675L46.8262 46.8907L49.5962 44.1206L49.773 43.9438L49.5962 43.767L45.4736 39.6464ZM32.25 47.7632V51.2007H24.875V47.7632H32.25Z" fill="#0D4C8F" stroke="#0D4C8F" stroke-width="0.5"/>
</svg>
