<svg width="46" height="48" viewBox="0 0 46 48" fill="none" xmlns="http://www.w3.org/2000/svg">
<rect x="16.6172" width="28.5714" height="30" rx="5" fill="#20C897"/>
<path d="M3.51364 40.3383L13.914 29.832L19.5344 35.2133L26.4036 29.2085L30.2303 32.9395M37.5846 16.396C37.5846 15.7164 37.3147 15.0646 36.8341 14.584C36.3535 14.1035 35.7018 13.8335 35.0221 13.8335H5.98047C5.30085 13.8335 4.64907 14.1035 4.16851 14.584C3.68795 15.0646 3.41797 15.7164 3.41797 16.396V24.0835H37.5846V16.396Z" stroke="#0D4C8F" stroke-width="3" stroke-linecap="round" stroke-linejoin="round"/>
<path d="M37.5846 22.3752V38.6043C37.5846 39.2839 37.3147 39.9357 36.8341 40.4163C36.3535 40.8969 35.7018 41.1668 35.0221 41.1668H10.2513M16.3261 18.9585H31.7011M9.49109 18.9585H11.1994M3.41797 22.3752V30.0627" stroke="#0D4C8F" stroke-width="3" stroke-linecap="round" stroke-linejoin="round"/>
</svg>
