<svg width="302" height="5" viewBox="0 0 302 5" fill="none" xmlns="http://www.w3.org/2000/svg">
<mask id="mask0_1874_3950" style="mask-type:luminance" maskUnits="userSpaceOnUse" x="0" y="0" width="302" height="5">
<path d="M0 0H302V5H0V0Z" fill="white"/>
</mask>
<g mask="url(#mask0_1874_3950)">
<path d="M52.2548 0.108571C55.6352 0.0801348 59.0134 0.0508006 62.398 0.0226636C62.7119 0.0199696 63.0343 0.015779 63.3461 0.0211669C68.5203 0.110367 73.7216 0.0819308 78.9062 0.0819308C94.594 0.0819308 110.284 0.0651683 125.969 0.0597804C133.819 0.0567871 141.659 0.0612771 149.504 0.068461C152.255 0.0705562 154.994 0.0900128 157.741 0.136109C160.57 0.184302 163.467 0.149579 166.316 0.18071C172.872 0.252549 179.452 0.222017 185.999 0.282182C190.654 0.325585 195.324 0.319598 199.96 0.373178C205.149 0.432745 210.336 0.412091 215.518 0.44382C219.012 0.465372 222.52 0.530326 225.986 0.498897C233.718 0.427656 241.454 0.464175 249.182 0.46627C254.994 0.468066 260.813 0.518952 266.445 0.767395C267.23 0.802417 268.114 0.798526 268.957 0.799424C272.984 0.803016 277.011 0.802118 281.038 0.803914C281.888 0.803914 282.74 0.802118 283.577 0.815588C284.45 0.830255 285.179 0.889223 285.673 0.999076C285.955 1.06134 285.896 1.1667 285.436 1.20142C284.791 1.24902 284.088 1.28015 283.427 1.32445C283.27 1.33492 283.194 1.36875 283.079 1.3918C283.228 1.40646 283.374 1.4328 283.525 1.4328C285.859 1.43759 288.184 1.44448 290.518 1.43849C291.493 1.4364 292.396 1.44837 293.287 1.51033C294.235 1.57588 295.244 1.62378 296.218 1.68424C296.695 1.71417 297.191 1.7459 297.599 1.7914C298.736 1.91712 298.811 2.11647 297.85 2.26764C297.095 2.38587 296.146 2.44125 295.041 2.45442C293.779 2.47028 292.523 2.49123 291.259 2.51338C290.591 2.52506 290.168 2.57505 289.827 2.66664C289.497 2.75584 288.875 2.82199 288.404 2.90161C288.335 2.91359 288.385 2.95939 288.444 2.96178C288.745 2.97585 289.061 2.97854 289.371 2.98812C290.428 3.02075 291.477 3.06774 292.05 3.20753C292.567 3.33235 293.304 3.34612 294.181 3.35809C295.755 3.37934 297.331 3.41227 298.893 3.44849C299.405 3.46076 299.908 3.49309 300.366 3.52931C301.36 3.61013 301.892 3.73644 301.907 3.90197C301.917 4.07199 301.264 4.18813 300.274 4.26446C299.322 4.3372 298.275 4.36713 297.193 4.34139C292.977 4.24381 288.731 4.30846 284.502 4.29439C283.904 4.2917 283.159 4.30816 282.717 4.35785C281.696 4.4728 280.567 4.4716 279.4 4.4698C276.22 4.46561 273.041 4.45753 269.861 4.45603C264.35 4.45334 258.839 4.45424 253.322 4.45214C252.24 4.45214 252.24 4.45334 252.127 4.64611C252.041 4.78769 251.528 4.88797 250.67 4.90533C249.939 4.91999 249.19 4.92089 248.453 4.92089C243.578 4.9191 238.706 4.9161 233.824 4.91311C228.742 4.90922 223.663 4.90144 218.58 4.85085C214.884 4.81373 211.167 4.83109 207.454 4.82571C203.956 4.82092 200.442 4.84456 196.961 4.80894C183.404 4.67185 169.841 4.74997 156.282 4.7398C145.785 4.73231 135.29 4.74249 124.795 4.75387C119.929 4.75866 115.056 4.79757 110.185 4.79428C105.108 4.79128 100.023 4.75207 94.9414 4.73561C91.5569 4.72573 88.1849 4.7365 84.7983 4.79817C80.813 4.8706 76.7796 4.88407 72.763 4.92299C70.3329 4.94633 67.907 4.96968 65.479 4.99453C64.1897 5.0074 62.9233 4.99932 61.791 4.89874C61.027 4.8293 60.196 4.82211 59.3441 4.8275C56.7006 4.84576 54.0633 4.86911 51.4155 4.88258C48.5542 4.89724 45.6909 4.89844 42.8338 4.91491C40.0814 4.92957 37.3394 4.96759 34.5891 4.97537C30.0325 4.98764 25.4737 4.98854 20.9191 4.98345C19.7658 4.98196 18.6063 4.94454 17.4634 4.91401C15.8706 4.8715 15.1568 4.75866 14.8764 4.51859C14.8429 4.48896 14.8931 4.45753 14.868 4.4282C14.7508 4.30397 14.4808 4.26237 13.7021 4.26416C11.9021 4.26775 10.0999 4.27673 8.29776 4.28122C7.55681 4.28332 6.80748 4.28721 6.0728 4.27703C3.80807 4.24471 2.60036 4.00075 3.03363 3.67269C3.11317 3.61372 3.39155 3.54607 3.27434 3.49818C2.79502 3.3096 3.09224 3.14617 3.69923 2.97615C3.8918 2.92107 3.65109 2.83367 3.58411 2.76183C3.3769 2.52775 4.09692 2.33289 5.62488 2.26165C7.2261 2.18771 8.87127 2.13264 10.4997 2.07157C11.3976 2.03805 11.3725 2.04194 10.9099 1.88599C10.8158 1.85396 10.9267 1.79469 11.0941 1.76626C11.27 1.73513 11.6237 1.72405 11.9042 1.70639C12.4065 1.67377 13.2437 1.74471 13.3924 1.60492C12.7833 1.59414 12.1721 1.5702 11.5693 1.57379C8.82104 1.59265 6.07908 1.63336 3.33085 1.63904C1.11008 1.64353 -0.145781 1.40736 0.174463 1.09426C0.289583 0.982613 0.643316 0.888325 1.30473 0.832649C1.93266 0.779967 2.62966 0.73387 3.33713 0.713516C8.41498 0.567144 13.4782 0.415085 18.6397 0.328878C25.0634 0.221718 31.4955 0.166342 37.9569 0.149879C42.7187 0.137307 47.4826 0.098394 52.2402 0.071155C52.2444 0.0825294 52.2486 0.0954007 52.2548 0.108571Z" fill="#20C897"/>
</g>
</svg>
