<svg width="50" height="46" viewBox="0 0 50 46" fill="none" xmlns="http://www.w3.org/2000/svg">
<rect x="20.6172" width="28.5714" height="30" rx="5" fill="#20C897"/>
<path d="M18.5 41.3748V27.4998M32.375 20.3357V34.6639C32.3751 34.8291 32.3309 34.9912 32.2472 35.1336C32.1634 35.2759 32.0431 35.3932 31.8986 35.4733L18.9486 42.6667C18.8114 42.7428 18.657 42.7828 18.5 42.7828C18.343 42.7828 18.1886 42.7428 18.0514 42.6667L5.10138 35.4733C4.95695 35.3932 4.8366 35.2759 4.75283 35.1336C4.66906 34.9912 4.62492 34.8291 4.625 34.6639V20.3357C4.62519 20.1708 4.66946 20.0089 4.75322 19.8669C4.83698 19.7249 4.95718 19.6078 5.10138 19.5278L18.0514 12.3329C18.1886 12.2567 18.343 12.2168 18.5 12.2168C18.657 12.2168 18.8114 12.2567 18.9486 12.3329L31.8986 19.5278C32.0428 19.6078 32.163 19.7249 32.2468 19.8669C32.3305 20.0089 32.3748 20.1708 32.375 20.3357Z" stroke="#0D4C8F" stroke-width="3" stroke-linecap="round" stroke-linejoin="round"/>
<path d="M19.2721 25.9583V41.375C19.2721 41.5794 19.1909 41.7755 19.0464 41.9201C18.9018 42.0646 18.7057 42.1458 18.5013 42.1458C18.2969 42.1458 18.1008 42.0646 17.9562 41.9201C17.8117 41.7755 17.7305 41.5794 17.7305 41.375V25.9583C17.7305 25.7539 17.8117 25.5578 17.9562 25.4133C18.1008 25.2687 18.2969 25.1875 18.5013 25.1875C18.7057 25.1875 18.9018 25.2687 19.0464 25.4133C19.1909 25.5578 19.2721 25.7539 19.2721 25.9583Z" fill="#0D4C8F" stroke="#0D4C8F" stroke-width="3" stroke-linecap="round" stroke-linejoin="round"/>
</svg>
