<svg width="68" height="57" viewBox="0 0 68 57" fill="none" xmlns="http://www.w3.org/2000/svg">
<rect x="38" width="30" height="30" rx="5" fill="#20C897"/>
<path d="M8.8184 34.807C8.94564 34.9452 9.09884 35.0566 9.26916 35.1349C9.43948 35.2132 9.62354 35.2568 9.8107 35.2631C10.1688 35.2619 10.5132 35.1244 10.7746 34.8783L11.1574 34.522L15.0557 38.6979C14.3869 39.485 14.0362 40.4957 14.0729 41.5303C14.1097 42.5648 14.5312 43.5478 15.2542 44.2849C15.9574 44.9934 16.8967 45.4149 17.8908 45.4678C17.959 46.4693 18.3873 47.4116 19.0958 48.1188C19.8005 48.8251 20.739 49.2461 21.7325 49.3018C21.793 50.2994 22.211 51.2411 22.909 51.9527C23.6138 52.659 24.5522 53.08 25.5457 53.1357C25.5987 53.927 25.877 54.6863 26.3474 55.323C26.8178 55.9597 27.4605 56.4468 28.1988 56.7263C28.9371 57.0058 29.7398 57.0658 30.511 56.8992C31.2823 56.7325 31.9896 56.3463 32.5485 55.7866L33.0447 55.2878L33.5125 55.7724C33.8983 56.1615 34.3567 56.4702 34.8615 56.6809C35.3662 56.8916 35.9074 57 36.4539 57C37.0004 57 37.5416 56.8916 38.0463 56.6809C38.5511 56.4702 39.0095 56.1615 39.3954 55.7724C40.1123 55.0595 40.5416 54.105 40.6003 53.0929C41.6163 53.0381 42.5759 52.6064 43.2937 51.8814C44.0109 51.1643 44.4356 50.2035 44.4844 49.1877C45.4975 49.1328 46.4556 48.7069 47.1778 47.9905C47.8828 47.2593 48.3051 46.299 48.3686 45.2826C49.4253 45.2241 50.4192 44.7595 51.1448 43.9849C51.8704 43.2103 52.2721 42.1849 52.2669 41.1209C52.2549 40.3057 52.0033 39.5123 51.5439 38.8405L55.6974 34.7928L56.151 35.3201C56.2839 35.4721 56.4474 35.594 56.6307 35.6775C56.814 35.7611 57.0129 35.8044 57.2142 35.8047C57.5588 35.8042 57.8914 35.6775 58.1498 35.4484L67.5199 27.1677C67.8016 26.9181 67.9732 26.5662 67.9971 26.1895C68.021 25.8127 67.8953 25.4418 67.6475 25.1581L50.5233 5.48978C50.4001 5.34746 50.2501 5.23114 50.0819 5.14755C49.9137 5.06397 49.7307 5.01479 49.5435 5.00285C49.3562 4.99092 49.1685 5.01648 48.9911 5.07804C48.8138 5.13961 48.6504 5.23596 48.5103 5.36151L39.1544 13.6279C39.0134 13.7517 38.8983 13.9024 38.8156 14.0712C38.7329 14.24 38.6842 14.4235 38.6724 14.6113C38.6512 14.987 38.7786 15.3559 39.0268 15.6375L39.7639 16.4927H39.2253C36.4642 16.8395 33.8356 17.8839 31.5846 19.5284L29.5149 17.4618L29.8409 17.1625C29.9795 17.0358 30.0918 16.8826 30.1711 16.712C30.2505 16.5414 30.2954 16.3566 30.3033 16.1684C30.3112 15.9802 30.282 15.7923 30.2172 15.6156C30.1524 15.4388 30.0535 15.2767 29.926 15.1387L21.4206 5.96011C21.1891 5.69021 20.8654 5.51732 20.5133 5.47552C20.3273 5.46687 20.1415 5.49514 19.9664 5.55873C19.7912 5.62231 19.6303 5.71996 19.4927 5.84609L0.412219 23.6046C0.148195 23.8717 0 24.2329 0 24.6094C0 24.9859 0.148195 25.3472 0.412219 25.6142L8.8184 34.807ZM17.3238 40.508L19.2801 38.5412C19.4577 38.3606 19.6846 38.237 19.9321 38.1862C20.1796 38.1354 20.4366 38.1596 20.6704 38.2558C20.9042 38.352 21.1043 38.5158 21.2455 38.7264C21.3866 38.9371 21.4623 39.1851 21.4631 39.4391C21.4645 39.608 21.4326 39.7756 21.3693 39.9321C21.3061 40.0886 21.2127 40.2311 21.0945 40.3512L19.0958 42.2753C18.8567 42.5146 18.533 42.649 18.1956 42.649C17.8582 42.649 17.5346 42.5146 17.2955 42.2753C17.0584 42.0306 16.9269 41.7018 16.9296 41.3602C16.9323 41.0187 17.0688 40.6919 17.3096 40.451L17.3238 40.508ZM20.7543 45.2541C20.7569 44.9111 20.8946 44.5831 21.1371 44.3419L23.0933 42.3751C23.211 42.2527 23.3519 42.1553 23.5078 42.0888C23.6637 42.0223 23.8312 41.9881 24.0006 41.9881C24.1699 41.9881 24.3375 42.0223 24.4933 42.0888C24.6492 42.1553 24.7902 42.2527 24.9078 42.3751C25.0255 42.4926 25.1188 42.6325 25.1821 42.7867C25.2453 42.9409 25.2774 43.1062 25.2764 43.273C25.2777 43.4419 25.2458 43.6095 25.1826 43.766C25.1194 43.9226 25.026 44.065 24.9078 44.1851L22.9232 46.1092C22.7422 46.2839 22.5145 46.4017 22.2679 46.4482C22.0213 46.4948 21.7666 46.468 21.5349 46.3712C21.3032 46.2744 21.1046 46.1117 20.9635 45.9032C20.8223 45.6947 20.7447 45.4493 20.7402 45.1971L20.7543 45.2541ZM24.5676 49.088C24.5702 48.745 24.7078 48.417 24.9503 48.1758L26.9066 46.209C27.0242 46.0866 27.1652 45.9892 27.3211 45.9227C27.4769 45.8562 27.6445 45.822 27.8138 45.822C27.9831 45.822 28.1507 45.8562 28.3066 45.9227C28.4625 45.9892 28.6034 46.0866 28.7211 46.209C28.8388 46.3265 28.932 46.4664 28.9953 46.6206C29.0586 46.7748 29.0907 46.9401 29.0896 47.1069C29.091 47.2758 29.0591 47.4434 28.9959 47.5999C28.9326 47.7565 28.8392 47.8989 28.7211 48.019L26.7506 50.0001C26.5115 50.2395 26.1879 50.3738 25.8505 50.3738C25.5131 50.3738 25.1894 50.2395 24.9503 50.0001C24.8207 49.8752 24.7185 49.7245 24.6502 49.5576C24.5818 49.3908 24.5489 49.2114 24.5534 49.031L24.5676 49.088ZM28.8203 53.834C28.6985 53.7157 28.6017 53.574 28.5356 53.4173C28.4695 53.2606 28.4354 53.0921 28.4354 52.9219C28.4354 52.7516 28.4695 52.5832 28.5356 52.4264C28.6017 52.2697 28.6985 52.128 28.8203 52.0097L30.7765 50.0429C30.8942 49.9205 31.0352 49.8231 31.191 49.7566C31.3469 49.6901 31.5145 49.6559 31.6838 49.6559C31.8531 49.6559 32.0207 49.6901 32.1765 49.7566C32.3324 49.8231 32.4734 49.9205 32.591 50.0429C32.8257 50.2851 32.957 50.6098 32.957 50.9479C32.957 51.286 32.8257 51.6108 32.591 51.8529L32.1232 52.3233L30.6206 53.834C30.4973 53.96 30.3495 54.059 30.1863 54.1248C30.0232 54.1906 29.8483 54.2218 29.6726 54.2164C29.4969 54.2111 29.3242 54.1693 29.1654 54.0937C29.0065 54.0181 28.8649 53.9103 28.7494 53.777L28.8203 53.834ZM49.3183 8.44003L64.5856 25.8993L57.3701 32.2986L42.0887 14.8394L49.3183 8.44003ZM39.5655 19.3859L41.4508 19.1579C41.5884 19.1418 41.7225 19.1033 41.8478 19.0438H41.9612L53.812 32.6122L49.5593 36.7169L38.0487 24.5453C37.8242 24.3086 37.5255 24.1568 37.2029 24.1153C36.8803 24.0738 36.5533 24.1451 36.2767 24.3172L33.2715 26.2413C32.3425 26.8205 31.2897 27.169 30.2002 27.2583C29.1107 27.3475 28.0158 27.1748 27.0058 26.7544L32.9454 22.1224C34.868 20.6296 37.1546 19.6844 39.5655 19.3859ZM29.3023 21.31L24.9362 24.7163C24.5804 24.9873 24.3007 25.3464 24.1243 25.7586C23.9478 26.1708 23.8808 26.6219 23.9297 27.068C23.9697 27.5113 24.1206 27.9372 24.3685 28.306C24.6164 28.6749 24.9531 28.9746 25.3473 29.1773C26.8242 29.8812 28.453 30.2017 30.0849 30.1095C31.7168 30.0174 33.2997 29.5156 34.689 28.65L36.8296 27.3102L48.5245 39.6814L48.9923 40.1517C49.1165 40.274 49.2145 40.4205 49.2803 40.5823C49.3461 40.744 49.3784 40.9176 49.375 41.0924C49.3775 41.267 49.3449 41.4403 49.2791 41.6019C49.2134 41.7636 49.1158 41.9102 48.9923 42.033C48.743 42.2802 48.4069 42.4188 48.0567 42.4188C47.7065 42.4188 47.3704 42.2802 47.1211 42.033C46.8561 41.7646 46.4958 41.6131 46.1196 41.6118C45.7435 41.6104 45.3822 41.7594 45.1152 42.0259C44.8483 42.2924 44.6976 42.6546 44.6963 43.0328C44.695 43.411 44.8431 43.7742 45.1082 44.0426C45.3619 44.2845 45.5097 44.6179 45.519 44.9694C45.5283 45.3209 45.3984 45.6617 45.1578 45.9168C44.9172 46.1719 44.5856 46.3205 44.236 46.3299C43.8864 46.3393 43.5475 46.2086 43.2937 45.9667C43.0267 45.6983 42.6647 45.5475 42.2872 45.5475C41.9097 45.5475 41.5477 45.6983 41.2807 45.9667C41.0138 46.2351 40.8638 46.5991 40.8638 46.9786C40.8638 47.3582 41.0138 47.7221 41.2807 47.9905C41.4042 48.1137 41.5021 48.2603 41.569 48.4217C41.6358 48.5832 41.6703 48.7563 41.6703 48.9312C41.6703 49.1061 41.6358 49.2792 41.569 49.4407C41.5021 49.6021 41.4042 49.7486 41.2807 49.8719C41.0211 50.1043 40.6856 50.2327 40.338 50.2327C39.9904 50.2327 39.655 50.1043 39.3954 49.8719C39.1242 49.6384 38.7753 49.5163 38.4186 49.5302C38.0618 49.5441 37.7234 49.6928 37.4709 49.9466C37.2185 50.2004 37.0706 50.5407 37.0568 50.8994C37.043 51.2581 37.1644 51.6088 37.3966 51.8814C37.6143 52.1371 37.7284 52.4657 37.7162 52.8021C37.7039 53.1384 37.5661 53.4578 37.3303 53.6967C37.0945 53.9356 36.7779 54.0765 36.4435 54.0914C36.109 54.1062 35.7813 53.994 35.5254 53.777L34.9867 53.2354C35.532 52.441 35.7825 51.4792 35.6944 50.518C35.6063 49.5568 35.1853 48.6572 34.5047 47.9763C33.7948 47.2671 32.8527 46.8416 31.8539 46.7791C31.7931 45.7798 31.3699 44.8377 30.6645 44.1311C29.9591 43.4246 29.0205 43.0026 28.0265 42.9452C27.981 41.9495 27.5653 41.0074 26.8617 40.3052C26.1581 39.6031 25.218 39.1923 24.2274 39.154C24.1746 38.1392 23.7505 37.1798 23.0366 36.4603C22.2487 35.7189 21.2098 35.3063 20.1306 35.3063C19.0514 35.3063 18.0125 35.7189 17.2246 36.4603L17.0261 36.6598L13.2837 32.5837L27.4594 19.3716L29.3023 21.31ZM20.3291 8.91036L26.8782 16.0366L10.3068 31.472L9.95246 31.814L3.38911 24.6878L20.3291 8.91036Z" fill="#0D4C8F"/>
</svg>
