<svg width="49" height="48" viewBox="0 0 49 48" fill="none" xmlns="http://www.w3.org/2000/svg">
<rect x="19" width="30" height="30" rx="5" fill="#20C897"/>
<path d="M18.543 36.749C18.543 36.951 18.699 37.1162 18.8872 37.1162H27.3784C27.5666 37.1162 27.7227 36.951 27.7227 36.749V34.5459C27.7227 34.3439 27.5666 34.1787 27.3784 34.1787H18.8872C18.699 34.1787 18.543 34.3439 18.543 34.5459V36.749ZM9.59736 37.029L18.4099 29.6394C18.5843 29.4925 18.5843 29.2217 18.4099 29.0748L9.59736 21.6897C9.54416 21.6445 9.4791 21.6155 9.4099 21.6061C9.34069 21.5968 9.27026 21.6075 9.20695 21.6369C9.14364 21.6664 9.09012 21.7134 9.05275 21.7724C9.01537 21.8314 8.99571 21.8999 8.99609 21.9697V24.8476C8.99609 24.9577 9.04199 25.0587 9.1292 25.1275L14.1688 29.3594L9.1292 33.5912C9.08817 33.6256 9.05504 33.6683 9.03207 33.7167C9.0091 33.765 8.99683 33.8177 8.99609 33.8712V36.749C8.99609 37.0611 9.35869 37.231 9.59736 37.029ZM35.25 11H1.46875C0.656348 11 0 11.6563 0 12.4688V46.25C0 47.0624 0.656348 47.7188 1.46875 47.7188H35.25C36.0624 47.7188 36.7188 47.0624 36.7188 46.25V12.4688C36.7188 11.6563 36.0624 11 35.25 11ZM33.4141 44.4141H3.30469V14.3047H33.4141V44.4141Z" fill="#0D4C8F"/>
</svg>
