<svg width="52" height="58" viewBox="0 0 52 58" fill="none" xmlns="http://www.w3.org/2000/svg">
<rect x="22.666" width="28.5714" height="30" rx="5" fill="#20C897"/>
<path d="M46.6879 32.25L37.3129 15.0625C37.1779 14.8159 36.979 14.6103 36.737 14.4673C36.495 14.3243 36.2189 14.2492 35.9379 14.25H14.0629C13.7818 14.2492 13.5057 14.3243 13.2637 14.4673C13.0217 14.6103 12.8228 14.8159 12.6879 15.0625L3.31285 32.25C3.17571 32.4875 3.10352 32.757 3.10352 33.0313C3.10352 33.3055 3.17571 33.575 3.31285 33.8125L12.6879 51C12.8308 51.235 13.0332 51.428 13.2746 51.5597C13.516 51.6914 13.7879 51.7571 14.0629 51.75H35.9379C36.2189 51.7508 36.495 51.6757 36.737 51.5327C36.979 51.3897 37.1779 51.1841 37.3129 50.9375L46.6879 33.75C46.8137 33.52 46.8796 33.2621 46.8796 33C46.8796 32.7379 46.8137 32.48 46.6879 32.25ZM35.8285 18.9375L42.6879 31.4375H27.8441L35.8285 18.9375ZM25.0004 30.0938L16.9066 17.375H33.0941L25.0004 30.0938ZM14.1722 18.9375L22.1566 31.4375H7.31285L14.1722 18.9375ZM7.31285 34.5625H22.1566L14.1722 47.0625L7.31285 34.5625ZM25.0004 35.9063L33.0941 48.625H16.9066L25.0004 35.9063ZM35.8285 47.0625L27.8441 34.5625H42.6879L35.8285 47.0625Z" fill="#0D4C8F"/>
</svg>
