<svg width="54" height="49" viewBox="0 0 54 49" fill="none" xmlns="http://www.w3.org/2000/svg">
<rect x="24.6172" width="28.5714" height="30" rx="5" fill="#20C897"/>
<path d="M21.5013 22.125C29.4174 22.125 35.8346 19.7185 35.8346 16.75C35.8346 13.7815 29.4174 11.375 21.5013 11.375C13.5852 11.375 7.16797 13.7815 7.16797 16.75C7.16797 19.7185 13.5852 22.125 21.5013 22.125Z" stroke="#0D4C8F" stroke-width="3" stroke-linecap="round" stroke-linejoin="round"/>
<path d="M10.8176 27.5C8.54755 28.4496 7.16797 29.7073 7.16797 31.0833C7.16797 34.0521 13.5857 36.4583 21.5013 36.4583C29.4169 36.4583 35.8346 34.0521 35.8346 31.0833C35.8346 29.7073 34.4551 28.4496 32.185 27.5" stroke="#0D4C8F" stroke-width="3" stroke-linecap="round" stroke-linejoin="round"/>
<path d="M7.16797 16.75V23.9167C7.16797 26.8855 13.5857 29.2917 21.5013 29.2917C29.4169 29.2917 35.8346 26.8855 35.8346 23.9167V16.75M7.16797 31.0833V38.25C7.16797 41.2188 13.5857 43.625 21.5013 43.625C29.4169 43.625 35.8346 41.2188 35.8346 38.25V31.0833" stroke="#0D4C8F" stroke-width="3" stroke-linecap="round" stroke-linejoin="round"/>
</svg>
