<svg width="54" height="47" viewBox="0 0 54 47" fill="none" xmlns="http://www.w3.org/2000/svg">
<rect x="24.6191" width="28.5714" height="30" rx="5" fill="#20C897"/>
<path d="M19.8004 29.4001C19.2169 29.4001 18.6573 29.1683 18.2448 28.7558C17.8322 28.3432 17.6004 27.7836 17.6004 27.2001V14.1827C14.3442 14.7432 11.4165 16.5039 9.39515 19.1175C7.37379 21.7311 6.4057 25.0075 6.68198 28.2999C6.95826 31.5924 8.45884 34.6616 10.8875 36.9018C13.3161 39.1419 16.4964 40.3902 19.8004 40.4001C22.9202 40.4006 25.9393 39.2961 28.3222 37.2824C30.7051 35.2688 32.2978 32.4763 32.8178 29.4001H19.8004ZM17.607 11.9541C18.8104 11.7825 19.8004 12.7857 19.8004 14.0001V27.2001H33.0004C34.2148 27.2001 35.218 28.1901 35.0464 29.3935C34.4827 33.2407 32.485 36.7324 29.4541 39.168C26.4232 41.6036 22.5833 42.8029 18.705 42.5253C14.8267 42.2477 11.1968 40.5138 8.54368 37.6714C5.89055 34.8289 4.41046 31.0884 4.40039 27.2001C4.39967 23.4953 5.73457 19.9144 8.16028 17.1141C10.586 14.3138 13.9399 12.4818 17.607 11.9541ZM24.2004 22.8001V9.60012C27.7012 9.60012 31.0587 10.9908 33.5342 13.4663C36.0097 15.9418 37.4004 19.2993 37.4004 22.8001H24.2004ZM37.5368 25.0001C38.6324 25.0001 39.5762 24.1949 39.5982 23.0993L39.6004 22.8001C39.6005 20.7525 39.1922 18.7255 38.3995 16.8375C37.6068 14.9496 36.4456 13.2387 34.9838 11.8049C33.5219 10.3712 31.7889 9.24332 29.8859 8.48737C27.983 7.73142 25.9484 7.36254 23.9012 7.40232C22.8056 7.42432 22.0004 8.37032 22.0004 9.46372V22.8001C22.0004 23.3836 22.2322 23.9432 22.6448 24.3558C23.0573 24.7683 23.6169 25.0001 24.2004 25.0001H37.5368Z" fill="#0D4C8F" stroke="#0D4C8F"/>
</svg>
