<svg width="56" height="59" viewBox="0 0 56 59" fill="none" xmlns="http://www.w3.org/2000/svg">
<rect x="26" width="30" height="30" rx="5" fill="#20C897"/>
<g clip-path="url(#clip0_2061_3766)">
<g clip-path="url(#clip1_2061_3766)">
<path d="M7.08203 9.58301H6.58203V10.083V14.1663V14.6663H7.08203H8.6237V42.7497V43.2497H9.1237H21.363L14.0499 50.5628L13.6963 50.9163L14.0499 51.2699L16.9368 54.1568L17.2904 54.5104L17.6439 54.1568L27.4987 44.302L37.3535 54.1568L37.707 54.5104L38.0606 54.1568L40.9475 51.2699L41.3011 50.9163L40.9475 50.5628L33.6344 43.2497H45.8737H46.3737V42.7497V14.6663H47.9154H48.4154V14.1663V10.083V9.58301H47.9154H7.08203ZM23.7154 18.8705L22.9154 18.2706V19.2705V33.5622V34.5621L23.7154 33.9622L33.2438 26.8164L33.7772 26.4163L33.2438 26.0163L23.7154 18.8705ZM41.2904 38.1663H13.707V14.6663H41.2904V38.1663Z" fill="#0D4C8F" stroke="#0D4C8F"/>
</g>
</g>
<defs>
<clipPath id="clip0_2061_3766">
<rect width="49" height="49" fill="white" transform="translate(2 9)"/>
</clipPath>
<clipPath id="clip1_2061_3766">
<rect width="49" height="49" fill="white" transform="translate(3 6)"/>
</clipPath>
</defs>
</svg>
