<svg width="51" height="56" viewBox="0 0 51 56" fill="none" xmlns="http://www.w3.org/2000/svg">
<rect x="21" width="30" height="30" rx="5" fill="#20C897"/>
<path d="M2.875 12.525H2.525V12.875V24.375V24.725H2.875H14.375H14.725V24.375V12.875V12.525H14.375H2.875ZM17.25 16.8375H16.9V17.1875V28.6875V29.0375H17.25H28.75H29.1V28.6875V17.1875V16.8375H28.75H17.25ZM2.875 29.775H2.525V30.125V41.625V41.975H2.875H14.375H14.725V41.625V30.125V29.775H14.375H2.875ZM11.15 16.1V21.15H6.1V16.1H11.15ZM25.525 20.4125V25.4625H20.475V20.4125H25.525ZM11.15 33.35V38.4H6.1V33.35H11.15Z" fill="#0D4C8F" stroke="#0D4C8F" stroke-width="0.7"/>
<path d="M31.625 24.025H31.275V24.375V32.65H23H22.65V33V41.275H14.375H14.025V41.625V53.125V53.475H14.375H43.125H43.475V53.125V24.375V24.025H43.125H31.625ZM26.225 36.225H31.275V41.275H26.225V36.225ZM22.65 49.9H17.6V44.85H22.65V49.9ZM31.275 49.9H26.225V44.85H31.275V49.9ZM39.9 49.9H34.85V44.85H39.9V49.9ZM39.9 41.275H34.85V36.225H39.9V41.275ZM34.85 32.65V27.6H39.9V32.65H34.85Z" fill="#0D4C8F" stroke="#0D4C8F" stroke-width="0.7"/>
</svg>
