<svg width="65" height="52" viewBox="0 0 65 52" fill="none" xmlns="http://www.w3.org/2000/svg">
<rect x="35" width="30" height="30" rx="5" fill="#20C897"/>
<mask id="path-2-outside-1_72_750" maskUnits="userSpaceOnUse" x="0" y="7" width="65" height="45" fill="black">
<rect fill="white" y="7" width="65" height="45"/>
<path d="M63 35.6485C63 33.0769 61.9711 30.6106 60.1395 28.7922C58.308 26.9737 55.8239 25.9522 53.2338 25.9522H52.013C52.0134 24.1457 51.5619 22.3675 50.6991 20.7771C49.8363 19.1867 48.5892 17.8339 47.0698 16.8402C45.5504 15.8465 43.8062 15.243 41.9938 15.0839C40.1814 14.9248 38.3576 15.215 36.6861 15.9285C35 13.0515 32.3325 10.8685 29.1661 9.7744C25.9998 8.68034 22.5436 8.74744 19.4227 9.96358C16.3018 11.1797 13.7223 13.4646 12.1508 16.4049C10.5792 19.3453 10.1194 22.7469 10.8545 25.9946C8.35766 26.227 6.04656 27.4042 4.39999 29.2822C2.75342 31.1602 1.89759 33.5951 2.00979 36.0824C2.12199 38.5698 3.19362 40.919 5.00269 42.6433C6.81175 44.3677 9.21958 45.335 11.7274 45.3449H33.8845C34.2326 46.4538 34.9355 47.4198 35.8865 48.0963C37.3021 49.0673 38.9819 49.5875 40.7025 49.5875C42.4231 49.5875 44.1029 49.0673 45.5185 48.0963L45.6283 48.0114L46.2876 48.4962C47.6913 49.497 49.3816 50.0238 51.1096 49.9992C52.3944 50.0083 53.6641 49.7243 54.8208 49.1689C55.2137 48.9802 55.5877 48.755 55.9378 48.4962C56.5929 48.0473 57.1318 47.451 57.5105 46.7559C57.8892 46.0607 58.097 45.2865 58.1169 44.4965C58.1169 44.351 58.1169 44.2056 58.1169 44.0601C59.6036 43.2079 60.8379 41.9816 61.6952 40.5048C62.5525 39.0281 63.0025 37.353 63 35.6485ZM55.2053 47.5387C54.9229 47.7494 54.6203 47.9321 54.302 48.0841C53.1454 48.6347 51.8635 48.8741 50.5845 48.7784C49.3055 48.6827 48.0743 48.2552 47.0139 47.5387L45.5429 46.4661L44.0779 45.3449L43.26 44.7389L42.4482 44.1329L41.6303 43.5268H41.5876C41.3439 43.3643 41.0571 43.2774 40.7635 43.2774C40.47 43.2774 40.1831 43.3643 39.9395 43.5268L39.8846 43.5753C39.7909 43.6454 39.7162 43.7374 39.6672 43.8432C39.6182 43.9489 39.5964 44.0652 39.6038 44.1814C39.6162 44.2927 39.6526 44.4002 39.7106 44.4964C39.7685 44.5926 39.8466 44.6753 39.9395 44.7389L40.0189 44.7874C40.2438 44.9215 40.5012 44.9923 40.7635 44.9923C41.0259 44.9923 41.2833 44.9215 41.5082 44.7874L41.5876 44.7389C41.6893 44.6682 41.7729 44.5748 41.8317 44.4662L42.2651 44.7874L43.083 45.3934L45.1522 46.9327C45.0546 47.0115 44.963 47.0963 44.8531 47.1751C43.6459 47.9924 42.2186 48.4296 40.7574 48.4296C39.2962 48.4296 37.8689 47.9924 36.6617 47.1751C36.0278 46.7218 35.5298 46.106 35.2212 45.3934C35.1426 45.1971 35.0813 44.9943 35.0381 44.7874C34.9608 44.387 34.9608 43.9757 35.0381 43.5753C35.2434 42.57 35.8316 41.682 36.68 41.0967C36.9656 40.8888 37.2677 40.7044 37.5834 40.5452C38.2142 40.2446 38.8871 40.0403 39.5794 39.9392C40.9133 39.7287 42.2798 39.8795 43.5347 40.3755C44.0067 40.5601 44.4537 40.8023 44.8653 41.0967L45.9091 41.8603L46.2753 42.133L46.5378 42.3269L48.1492 43.539L48.9366 44.145L49.724 44.751L50.2062 45.1086C50.389 45.228 50.5987 45.3009 50.8166 45.3207H51.2561C51.4755 45.2947 51.6851 45.2156 51.8665 45.0904C52.0102 44.9918 52.1174 44.8492 52.1717 44.6843C52.2083 44.5841 52.2196 44.4764 52.2047 44.3708C52.1898 44.2652 52.1491 44.1648 52.0862 44.0783C52.03 43.9855 51.9552 43.905 51.8665 43.842C51.6241 43.6762 51.3368 43.5875 51.0425 43.5875C50.7482 43.5875 50.4608 43.6762 50.2185 43.842C50.1316 43.9053 50.0588 43.9858 50.0048 44.0783H49.9194L49.1014 43.4723L46.6599 41.6542L46.959 41.4118C48.1662 40.5945 49.5935 40.1573 51.0547 40.1573C52.5159 40.1573 53.9432 40.5945 55.1504 41.4118C55.5046 41.6749 55.8209 41.9848 56.0904 42.333C56.3291 42.6407 56.5167 42.9844 56.6458 43.3511V43.3996C56.781 43.7889 56.839 44.2005 56.8168 44.6116C56.7866 45.1883 56.626 45.7508 56.3471 46.2575C56.0681 46.7642 55.6779 47.2021 55.2053 47.5387ZM57.7873 42.8299C57.6364 42.449 57.4308 42.0918 57.1769 41.7694C56.8228 41.2843 56.3968 40.8552 55.9134 40.4967C54.4932 39.5201 52.8067 38.9969 51.0791 38.9969C49.3515 38.9969 47.665 39.5201 46.2448 40.4967L46.1655 40.5573L45.5063 40.0786C45.0218 39.7177 44.4925 39.4203 43.9315 39.1938C42.9025 38.7868 41.804 38.581 40.6964 38.5878C40.2407 38.5884 39.7857 38.6229 39.3352 38.6908C38.5175 38.8107 37.7229 39.0539 36.9791 39.4119L35.5935 40.3089C34.5958 41.1135 33.9417 42.2631 33.7624 43.5268C33.738 43.7117 33.7258 43.8979 33.7258 44.0844V44.1329H11.7274C9.53174 44.126 7.42303 43.2804 5.83856 41.7713C4.25409 40.2622 3.31546 38.2055 3.21732 36.0278C3.11919 33.85 3.8691 31.7183 5.31151 30.0748C6.75392 28.4313 8.77815 27.4021 10.9644 27.2006L12.3377 27.0733L12.0326 25.7219C11.8255 24.8029 11.7231 23.8637 11.7274 22.922C11.7295 20.1241 12.6603 17.4048 14.3757 15.1849C16.0911 12.965 18.4955 11.3683 21.217 10.6417C23.9384 9.91514 26.8252 10.0993 29.4306 11.1656C32.0361 12.2319 34.215 14.121 35.6302 16.5406L36.1795 17.4678L37.1684 17.0436C38.654 16.4094 40.275 16.1514 41.8859 16.2928C43.4968 16.4342 45.0471 16.9705 46.3977 17.8536C47.7483 18.7367 48.8568 19.939 49.6238 21.3525C50.3909 22.7661 50.7923 24.3466 50.7922 25.9522V27.1642H53.2338C55.0874 27.1636 56.891 27.7613 58.3726 28.8674C59.8541 29.9735 60.9332 31.5278 61.4472 33.2961C61.9612 35.0643 61.8821 36.9505 61.2219 38.6702C60.5617 40.3899 59.3563 41.8499 57.7873 42.8299Z"/>
</mask>
<path d="M63 35.6485C63 33.0769 61.9711 30.6106 60.1395 28.7922C58.308 26.9737 55.8239 25.9522 53.2338 25.9522H52.013C52.0134 24.1457 51.5619 22.3675 50.6991 20.7771C49.8363 19.1867 48.5892 17.8339 47.0698 16.8402C45.5504 15.8465 43.8062 15.243 41.9938 15.0839C40.1814 14.9248 38.3576 15.215 36.6861 15.9285C35 13.0515 32.3325 10.8685 29.1661 9.7744C25.9998 8.68034 22.5436 8.74744 19.4227 9.96358C16.3018 11.1797 13.7223 13.4646 12.1508 16.4049C10.5792 19.3453 10.1194 22.7469 10.8545 25.9946C8.35766 26.227 6.04656 27.4042 4.39999 29.2822C2.75342 31.1602 1.89759 33.5951 2.00979 36.0824C2.12199 38.5698 3.19362 40.919 5.00269 42.6433C6.81175 44.3677 9.21958 45.335 11.7274 45.3449H33.8845C34.2326 46.4538 34.9355 47.4198 35.8865 48.0963C37.3021 49.0673 38.9819 49.5875 40.7025 49.5875C42.4231 49.5875 44.1029 49.0673 45.5185 48.0963L45.6283 48.0114L46.2876 48.4962C47.6913 49.497 49.3816 50.0238 51.1096 49.9992C52.3944 50.0083 53.6641 49.7243 54.8208 49.1689C55.2137 48.9802 55.5877 48.755 55.9378 48.4962C56.5929 48.0473 57.1318 47.451 57.5105 46.7559C57.8892 46.0607 58.097 45.2865 58.1169 44.4965C58.1169 44.351 58.1169 44.2056 58.1169 44.0601C59.6036 43.2079 60.8379 41.9816 61.6952 40.5048C62.5525 39.0281 63.0025 37.353 63 35.6485ZM55.2053 47.5387C54.9229 47.7494 54.6203 47.9321 54.302 48.0841C53.1454 48.6347 51.8635 48.8741 50.5845 48.7784C49.3055 48.6827 48.0743 48.2552 47.0139 47.5387L45.5429 46.4661L44.0779 45.3449L43.26 44.7389L42.4482 44.1329L41.6303 43.5268H41.5876C41.3439 43.3643 41.0571 43.2774 40.7635 43.2774C40.47 43.2774 40.1831 43.3643 39.9395 43.5268L39.8846 43.5753C39.7909 43.6454 39.7162 43.7374 39.6672 43.8432C39.6182 43.9489 39.5964 44.0652 39.6038 44.1814C39.6162 44.2927 39.6526 44.4002 39.7106 44.4964C39.7685 44.5926 39.8466 44.6753 39.9395 44.7389L40.0189 44.7874C40.2438 44.9215 40.5012 44.9923 40.7635 44.9923C41.0259 44.9923 41.2833 44.9215 41.5082 44.7874L41.5876 44.7389C41.6893 44.6682 41.7729 44.5748 41.8317 44.4662L42.2651 44.7874L43.083 45.3934L45.1522 46.9327C45.0546 47.0115 44.963 47.0963 44.8531 47.1751C43.6459 47.9924 42.2186 48.4296 40.7574 48.4296C39.2962 48.4296 37.8689 47.9924 36.6617 47.1751C36.0278 46.7218 35.5298 46.106 35.2212 45.3934C35.1426 45.1971 35.0813 44.9943 35.0381 44.7874C34.9608 44.387 34.9608 43.9757 35.0381 43.5753C35.2434 42.57 35.8316 41.682 36.68 41.0967C36.9656 40.8888 37.2677 40.7044 37.5834 40.5452C38.2142 40.2446 38.8871 40.0403 39.5794 39.9392C40.9133 39.7287 42.2798 39.8795 43.5347 40.3755C44.0067 40.5601 44.4537 40.8023 44.8653 41.0967L45.9091 41.8603L46.2753 42.133L46.5378 42.3269L48.1492 43.539L48.9366 44.145L49.724 44.751L50.2062 45.1086C50.389 45.228 50.5987 45.3009 50.8166 45.3207H51.2561C51.4755 45.2947 51.6851 45.2156 51.8665 45.0904C52.0102 44.9918 52.1174 44.8492 52.1717 44.6843C52.2083 44.5841 52.2196 44.4764 52.2047 44.3708C52.1898 44.2652 52.1491 44.1648 52.0862 44.0783C52.03 43.9855 51.9552 43.905 51.8665 43.842C51.6241 43.6762 51.3368 43.5875 51.0425 43.5875C50.7482 43.5875 50.4608 43.6762 50.2185 43.842C50.1316 43.9053 50.0588 43.9858 50.0048 44.0783H49.9194L49.1014 43.4723L46.6599 41.6542L46.959 41.4118C48.1662 40.5945 49.5935 40.1573 51.0547 40.1573C52.5159 40.1573 53.9432 40.5945 55.1504 41.4118C55.5046 41.6749 55.8209 41.9848 56.0904 42.333C56.3291 42.6407 56.5167 42.9844 56.6458 43.3511V43.3996C56.781 43.7889 56.839 44.2005 56.8168 44.6116C56.7866 45.1883 56.626 45.7508 56.3471 46.2575C56.0681 46.7642 55.6779 47.2021 55.2053 47.5387ZM57.7873 42.8299C57.6364 42.449 57.4308 42.0918 57.1769 41.7694C56.8228 41.2843 56.3968 40.8552 55.9134 40.4967C54.4932 39.5201 52.8067 38.9969 51.0791 38.9969C49.3515 38.9969 47.665 39.5201 46.2448 40.4967L46.1655 40.5573L45.5063 40.0786C45.0218 39.7177 44.4925 39.4203 43.9315 39.1938C42.9025 38.7868 41.804 38.581 40.6964 38.5878C40.2407 38.5884 39.7857 38.6229 39.3352 38.6908C38.5175 38.8107 37.7229 39.0539 36.9791 39.4119L35.5935 40.3089C34.5958 41.1135 33.9417 42.2631 33.7624 43.5268C33.738 43.7117 33.7258 43.8979 33.7258 44.0844V44.1329H11.7274C9.53174 44.126 7.42303 43.2804 5.83856 41.7713C4.25409 40.2622 3.31546 38.2055 3.21732 36.0278C3.11919 33.85 3.8691 31.7183 5.31151 30.0748C6.75392 28.4313 8.77815 27.4021 10.9644 27.2006L12.3377 27.0733L12.0326 25.7219C11.8255 24.8029 11.7231 23.8637 11.7274 22.922C11.7295 20.1241 12.6603 17.4048 14.3757 15.1849C16.0911 12.965 18.4955 11.3683 21.217 10.6417C23.9384 9.91514 26.8252 10.0993 29.4306 11.1656C32.0361 12.2319 34.215 14.121 35.6302 16.5406L36.1795 17.4678L37.1684 17.0436C38.654 16.4094 40.275 16.1514 41.8859 16.2928C43.4968 16.4342 45.0471 16.9705 46.3977 17.8536C47.7483 18.7367 48.8568 19.939 49.6238 21.3525C50.3909 22.7661 50.7923 24.3466 50.7922 25.9522V27.1642H53.2338C55.0874 27.1636 56.891 27.7613 58.3726 28.8674C59.8541 29.9735 60.9332 31.5278 61.4472 33.2961C61.9612 35.0643 61.8821 36.9505 61.2219 38.6702C60.5617 40.3899 59.3563 41.8499 57.7873 42.8299Z" fill="#0D4C8F"/>
<path d="M63 35.6485C63 33.0769 61.9711 30.6106 60.1395 28.7922C58.308 26.9737 55.8239 25.9522 53.2338 25.9522H52.013C52.0134 24.1457 51.5619 22.3675 50.6991 20.7771C49.8363 19.1867 48.5892 17.8339 47.0698 16.8402C45.5504 15.8465 43.8062 15.243 41.9938 15.0839C40.1814 14.9248 38.3576 15.215 36.6861 15.9285C35 13.0515 32.3325 10.8685 29.1661 9.7744C25.9998 8.68034 22.5436 8.74744 19.4227 9.96358C16.3018 11.1797 13.7223 13.4646 12.1508 16.4049C10.5792 19.3453 10.1194 22.7469 10.8545 25.9946C8.35766 26.227 6.04656 27.4042 4.39999 29.2822C2.75342 31.1602 1.89759 33.5951 2.00979 36.0824C2.12199 38.5698 3.19362 40.919 5.00269 42.6433C6.81175 44.3677 9.21958 45.335 11.7274 45.3449H33.8845C34.2326 46.4538 34.9355 47.4198 35.8865 48.0963C37.3021 49.0673 38.9819 49.5875 40.7025 49.5875C42.4231 49.5875 44.1029 49.0673 45.5185 48.0963L45.6283 48.0114L46.2876 48.4962C47.6913 49.497 49.3816 50.0238 51.1096 49.9992C52.3944 50.0083 53.6641 49.7243 54.8208 49.1689C55.2137 48.9802 55.5877 48.755 55.9378 48.4962C56.5929 48.0473 57.1318 47.451 57.5105 46.7559C57.8892 46.0607 58.097 45.2865 58.1169 44.4965C58.1169 44.351 58.1169 44.2056 58.1169 44.0601C59.6036 43.2079 60.8379 41.9816 61.6952 40.5048C62.5525 39.0281 63.0025 37.353 63 35.6485ZM55.2053 47.5387C54.9229 47.7494 54.6203 47.9321 54.302 48.0841C53.1454 48.6347 51.8635 48.8741 50.5845 48.7784C49.3055 48.6827 48.0743 48.2552 47.0139 47.5387L45.5429 46.4661L44.0779 45.3449L43.26 44.7389L42.4482 44.1329L41.6303 43.5268H41.5876C41.3439 43.3643 41.0571 43.2774 40.7635 43.2774C40.47 43.2774 40.1831 43.3643 39.9395 43.5268L39.8846 43.5753C39.7909 43.6454 39.7162 43.7374 39.6672 43.8432C39.6182 43.9489 39.5964 44.0652 39.6038 44.1814C39.6162 44.2927 39.6526 44.4002 39.7106 44.4964C39.7685 44.5926 39.8466 44.6753 39.9395 44.7389L40.0189 44.7874C40.2438 44.9215 40.5012 44.9923 40.7635 44.9923C41.0259 44.9923 41.2833 44.9215 41.5082 44.7874L41.5876 44.7389C41.6893 44.6682 41.7729 44.5748 41.8317 44.4662L42.2651 44.7874L43.083 45.3934L45.1522 46.9327C45.0546 47.0115 44.963 47.0963 44.8531 47.1751C43.6459 47.9924 42.2186 48.4296 40.7574 48.4296C39.2962 48.4296 37.8689 47.9924 36.6617 47.1751C36.0278 46.7218 35.5298 46.106 35.2212 45.3934C35.1426 45.1971 35.0813 44.9943 35.0381 44.7874C34.9608 44.387 34.9608 43.9757 35.0381 43.5753C35.2434 42.57 35.8316 41.682 36.68 41.0967C36.9656 40.8888 37.2677 40.7044 37.5834 40.5452C38.2142 40.2446 38.8871 40.0403 39.5794 39.9392C40.9133 39.7287 42.2798 39.8795 43.5347 40.3755C44.0067 40.5601 44.4537 40.8023 44.8653 41.0967L45.9091 41.8603L46.2753 42.133L46.5378 42.3269L48.1492 43.539L48.9366 44.145L49.724 44.751L50.2062 45.1086C50.389 45.228 50.5987 45.3009 50.8166 45.3207H51.2561C51.4755 45.2947 51.6851 45.2156 51.8665 45.0904C52.0102 44.9918 52.1174 44.8492 52.1717 44.6843C52.2083 44.5841 52.2196 44.4764 52.2047 44.3708C52.1898 44.2652 52.1491 44.1648 52.0862 44.0783C52.03 43.9855 51.9552 43.905 51.8665 43.842C51.6241 43.6762 51.3368 43.5875 51.0425 43.5875C50.7482 43.5875 50.4608 43.6762 50.2185 43.842C50.1316 43.9053 50.0588 43.9858 50.0048 44.0783H49.9194L49.1014 43.4723L46.6599 41.6542L46.959 41.4118C48.1662 40.5945 49.5935 40.1573 51.0547 40.1573C52.5159 40.1573 53.9432 40.5945 55.1504 41.4118C55.5046 41.6749 55.8209 41.9848 56.0904 42.333C56.3291 42.6407 56.5167 42.9844 56.6458 43.3511V43.3996C56.781 43.7889 56.839 44.2005 56.8168 44.6116C56.7866 45.1883 56.626 45.7508 56.3471 46.2575C56.0681 46.7642 55.6779 47.2021 55.2053 47.5387ZM57.7873 42.8299C57.6364 42.449 57.4308 42.0918 57.1769 41.7694C56.8228 41.2843 56.3968 40.8552 55.9134 40.4967C54.4932 39.5201 52.8067 38.9969 51.0791 38.9969C49.3515 38.9969 47.665 39.5201 46.2448 40.4967L46.1655 40.5573L45.5063 40.0786C45.0218 39.7177 44.4925 39.4203 43.9315 39.1938C42.9025 38.7868 41.804 38.581 40.6964 38.5878C40.2407 38.5884 39.7857 38.6229 39.3352 38.6908C38.5175 38.8107 37.7229 39.0539 36.9791 39.4119L35.5935 40.3089C34.5958 41.1135 33.9417 42.2631 33.7624 43.5268C33.738 43.7117 33.7258 43.8979 33.7258 44.0844V44.1329H11.7274C9.53174 44.126 7.42303 43.2804 5.83856 41.7713C4.25409 40.2622 3.31546 38.2055 3.21732 36.0278C3.11919 33.85 3.8691 31.7183 5.31151 30.0748C6.75392 28.4313 8.77815 27.4021 10.9644 27.2006L12.3377 27.0733L12.0326 25.7219C11.8255 24.8029 11.7231 23.8637 11.7274 22.922C11.7295 20.1241 12.6603 17.4048 14.3757 15.1849C16.0911 12.965 18.4955 11.3683 21.217 10.6417C23.9384 9.91514 26.8252 10.0993 29.4306 11.1656C32.0361 12.2319 34.215 14.121 35.6302 16.5406L36.1795 17.4678L37.1684 17.0436C38.654 16.4094 40.275 16.1514 41.8859 16.2928C43.4968 16.4342 45.0471 16.9705 46.3977 17.8536C47.7483 18.7367 48.8568 19.939 49.6238 21.3525C50.3909 22.7661 50.7923 24.3466 50.7922 25.9522V27.1642H53.2338C55.0874 27.1636 56.891 27.7613 58.3726 28.8674C59.8541 29.9735 60.9332 31.5278 61.4472 33.2961C61.9612 35.0643 61.8821 36.9505 61.2219 38.6702C60.5617 40.3899 59.3563 41.8499 57.7873 42.8299Z" stroke="#0D4C8F" stroke-width="2.4" mask="url(#path-2-outside-1_72_750)"/>
</svg>
