<svg width="52" height="45" viewBox="0 0 52 45" fill="none" xmlns="http://www.w3.org/2000/svg">
<rect x="26.0674" y="0.78125" width="25.9322" height="25.9322" rx="4.32204" fill="#20C897"/>
<mask id="path-2-outside-1_120_2379" maskUnits="userSpaceOnUse" x="0" y="13.6116" width="46" height="32" fill="black">
<rect fill="white" y="13.6116" width="46" height="32"/>
<path d="M44.7264 33.7139C44.7264 31.8705 43.9888 30.1026 42.6759 28.7991C41.3631 27.4956 39.5824 26.7633 37.7257 26.7633H36.8506C36.8509 25.4684 36.5273 24.1937 35.9088 23.0537C35.2903 21.9136 34.3964 20.9439 33.3072 20.2316C32.2181 19.5193 30.9678 19.0867 29.6686 18.9727C28.3695 18.8586 27.0621 19.0666 25.8639 19.5781C24.6553 17.5158 22.7432 15.9509 20.4734 15.1667C18.2037 14.3824 15.7262 14.4305 13.489 15.3023C11.2519 16.1741 9.40286 17.8119 8.27634 19.9196C7.14983 22.0273 6.82022 24.4657 7.34714 26.7937C5.55734 26.9604 3.90068 27.8042 2.72038 29.1504C1.54007 30.4966 0.926588 32.242 1.00702 34.025C1.08744 35.808 1.85562 37.4919 3.1524 38.728C4.44919 39.9641 6.17519 40.6575 7.97283 40.6646H23.8556C24.1052 41.4595 24.609 42.1519 25.2908 42.6368C26.3055 43.3329 27.5096 43.7057 28.743 43.7057C29.9763 43.7057 31.1805 43.3329 32.1952 42.6368L32.2739 42.576L32.7465 42.9235C33.7528 43.6409 34.9644 44.0185 36.2031 44.0009C37.124 44.0074 38.0342 43.8038 38.8633 43.4057C39.145 43.2704 39.4131 43.109 39.664 42.9235C40.1336 42.6017 40.5199 42.1742 40.7914 41.676C41.0629 41.1777 41.2118 40.6227 41.2261 40.0564C41.2261 39.9521 41.2261 39.8479 41.2261 39.7436C42.2918 39.1327 43.1765 38.2536 43.7911 37.1951C44.4056 36.1365 44.7282 34.9358 44.7264 33.7139ZM39.139 42.2371C38.9365 42.3882 38.7196 42.5191 38.4914 42.6281C37.6624 43.0228 36.7435 43.1944 35.8267 43.1258C34.9098 43.0572 34.0272 42.7507 33.2672 42.2371L32.2127 41.4682L31.1626 40.6646L30.5763 40.2301L29.9943 39.7957L29.408 39.3613H29.3774C29.2028 39.2448 28.9971 39.1825 28.7867 39.1825C28.5763 39.1825 28.3707 39.2448 28.196 39.3613L28.1567 39.3961C28.0895 39.4463 28.036 39.5122 28.0008 39.5881C27.9657 39.6639 27.9501 39.7472 27.9554 39.8305C27.9643 39.9103 27.9904 39.9874 28.0319 40.0563C28.0734 40.1253 28.1294 40.1845 28.196 40.2301L28.2529 40.2649C28.4141 40.361 28.5987 40.4118 28.7867 40.4118C28.9748 40.4118 29.1593 40.361 29.3205 40.2649L29.3774 40.2301C29.4503 40.1795 29.5103 40.1125 29.5524 40.0347L29.8631 40.2649L30.4494 40.6993L31.9327 41.8027C31.8626 41.8592 31.797 41.92 31.7183 41.9765C30.8529 42.5624 29.8298 42.8758 28.7823 42.8758C27.7349 42.8758 26.7118 42.5624 25.8464 41.9765C25.392 41.6516 25.0351 41.2101 24.8138 40.6993C24.7575 40.5586 24.7135 40.4132 24.6826 40.2649C24.6271 39.9779 24.6271 39.6831 24.6826 39.3961C24.8297 38.6754 25.2513 38.0389 25.8596 37.6193C26.0642 37.4703 26.2808 37.3381 26.5071 37.224C26.9593 37.0085 27.4417 36.8621 27.9379 36.7896C28.8941 36.6387 29.8736 36.7468 30.7732 37.1024C31.1115 37.2347 31.4319 37.4083 31.727 37.6193L32.4752 38.1667L32.7377 38.3622L32.9259 38.5012L34.081 39.37L34.6454 39.8044L35.2098 40.2388L35.5555 40.4951C35.6865 40.5808 35.8368 40.633 35.993 40.6472H36.3081C36.4653 40.6286 36.6156 40.5719 36.7456 40.4821C36.8486 40.4114 36.9254 40.3092 36.9644 40.191C36.9906 40.1192 36.9987 40.042 36.988 39.9663C36.9774 39.8906 36.9482 39.8186 36.9031 39.7566C36.8628 39.6901 36.8092 39.6324 36.7456 39.5872C36.5719 39.4684 36.3659 39.4048 36.1549 39.4048C35.944 39.4048 35.738 39.4684 35.5643 39.5872C35.502 39.6326 35.4498 39.6903 35.4111 39.7566H35.3499L34.7636 39.3222L33.0134 38.019L33.2278 37.8452C34.0931 37.2593 35.1163 36.9459 36.1637 36.9459C37.2111 36.9459 38.2342 37.2593 39.0996 37.8452C39.3535 38.0338 39.5802 38.2559 39.7734 38.5055C39.9445 38.7261 40.079 38.9725 40.1716 39.2353V39.2701C40.2684 39.5492 40.31 39.8442 40.2941 40.1389C40.2724 40.5523 40.1574 40.9555 39.9574 41.3188C39.7575 41.682 39.4777 41.9959 39.139 42.2371ZM40.9898 38.8617C40.8816 38.5887 40.7343 38.3326 40.5522 38.1015C40.2985 37.7538 39.9931 37.4462 39.6465 37.1893C38.6285 36.4892 37.4196 36.1141 36.1812 36.1141C34.9428 36.1141 33.7339 36.4892 32.7159 37.1893L32.659 37.2327L32.1864 36.8895C31.8391 36.6308 31.4597 36.4177 31.0576 36.2553C30.32 35.9635 29.5325 35.816 28.7386 35.8208C28.412 35.8213 28.0858 35.846 27.7629 35.8947C27.1767 35.9806 26.6071 36.155 26.074 36.4117L25.0807 37.0546C24.3656 37.6314 23.8966 38.4554 23.7681 39.3613C23.7507 39.4938 23.7419 39.6273 23.7419 39.761V39.7957H7.97283C6.39895 39.7908 4.88737 39.1846 3.75158 38.1029C2.61579 37.0211 1.94295 35.5469 1.87261 33.9858C1.80227 32.4247 2.33982 30.8967 3.37378 29.7186C4.40773 28.5404 5.85875 27.8027 7.4259 27.6582L8.41037 27.567L8.1916 26.5983C8.04314 25.9395 7.96976 25.2663 7.97283 24.5913C7.97435 22.5856 8.64155 20.6363 9.87121 19.0451C11.1009 17.4538 12.8244 16.3092 14.7752 15.7884C16.726 15.2676 18.7954 15.3996 20.663 16.1639C22.5306 16.9283 24.0925 18.2825 25.107 20.0169L25.5008 20.6815L26.2096 20.3775C27.2746 19.9228 28.4366 19.7379 29.5913 19.8392C30.746 19.9406 31.8573 20.325 32.8254 20.9581C33.7936 21.5911 34.5882 22.453 35.138 23.4662C35.6878 24.4794 35.9756 25.6124 35.9755 26.7633V27.6322H37.7257C39.0545 27.6317 40.3473 28.0602 41.4093 28.853C42.4713 29.6459 43.2449 30.7601 43.6133 32.0276C43.9817 33.2951 43.9251 34.6472 43.4518 35.88C42.9786 37.1127 42.1145 38.1592 40.9898 38.8617Z"/>
</mask>
<path d="M44.7264 33.7139C44.7264 31.8705 43.9888 30.1026 42.6759 28.7991C41.3631 27.4956 39.5824 26.7633 37.7257 26.7633H36.8506C36.8509 25.4684 36.5273 24.1937 35.9088 23.0537C35.2903 21.9136 34.3964 20.9439 33.3072 20.2316C32.2181 19.5193 30.9678 19.0867 29.6686 18.9727C28.3695 18.8586 27.0621 19.0666 25.8639 19.5781C24.6553 17.5158 22.7432 15.9509 20.4734 15.1667C18.2037 14.3824 15.7262 14.4305 13.489 15.3023C11.2519 16.1741 9.40286 17.8119 8.27634 19.9196C7.14983 22.0273 6.82022 24.4657 7.34714 26.7937C5.55734 26.9604 3.90068 27.8042 2.72038 29.1504C1.54007 30.4966 0.926588 32.242 1.00702 34.025C1.08744 35.808 1.85562 37.4919 3.1524 38.728C4.44919 39.9641 6.17519 40.6575 7.97283 40.6646H23.8556C24.1052 41.4595 24.609 42.1519 25.2908 42.6368C26.3055 43.3329 27.5096 43.7057 28.743 43.7057C29.9763 43.7057 31.1805 43.3329 32.1952 42.6368L32.2739 42.576L32.7465 42.9235C33.7528 43.6409 34.9644 44.0185 36.2031 44.0009C37.124 44.0074 38.0342 43.8038 38.8633 43.4057C39.145 43.2704 39.4131 43.109 39.664 42.9235C40.1336 42.6017 40.5199 42.1742 40.7914 41.676C41.0629 41.1777 41.2118 40.6227 41.2261 40.0564C41.2261 39.9521 41.2261 39.8479 41.2261 39.7436C42.2918 39.1327 43.1765 38.2536 43.7911 37.1951C44.4056 36.1365 44.7282 34.9358 44.7264 33.7139ZM39.139 42.2371C38.9365 42.3882 38.7196 42.5191 38.4914 42.6281C37.6624 43.0228 36.7435 43.1944 35.8267 43.1258C34.9098 43.0572 34.0272 42.7507 33.2672 42.2371L32.2127 41.4682L31.1626 40.6646L30.5763 40.2301L29.9943 39.7957L29.408 39.3613H29.3774C29.2028 39.2448 28.9971 39.1825 28.7867 39.1825C28.5763 39.1825 28.3707 39.2448 28.196 39.3613L28.1567 39.3961C28.0895 39.4463 28.036 39.5122 28.0008 39.5881C27.9657 39.6639 27.9501 39.7472 27.9554 39.8305C27.9643 39.9103 27.9904 39.9874 28.0319 40.0563C28.0734 40.1253 28.1294 40.1845 28.196 40.2301L28.2529 40.2649C28.4141 40.361 28.5987 40.4118 28.7867 40.4118C28.9748 40.4118 29.1593 40.361 29.3205 40.2649L29.3774 40.2301C29.4503 40.1795 29.5103 40.1125 29.5524 40.0347L29.8631 40.2649L30.4494 40.6993L31.9327 41.8027C31.8626 41.8592 31.797 41.92 31.7183 41.9765C30.8529 42.5624 29.8298 42.8758 28.7823 42.8758C27.7349 42.8758 26.7118 42.5624 25.8464 41.9765C25.392 41.6516 25.0351 41.2101 24.8138 40.6993C24.7575 40.5586 24.7135 40.4132 24.6826 40.2649C24.6271 39.9779 24.6271 39.6831 24.6826 39.3961C24.8297 38.6754 25.2513 38.0389 25.8596 37.6193C26.0642 37.4703 26.2808 37.3381 26.5071 37.224C26.9593 37.0085 27.4417 36.8621 27.9379 36.7896C28.8941 36.6387 29.8736 36.7468 30.7732 37.1024C31.1115 37.2347 31.4319 37.4083 31.727 37.6193L32.4752 38.1667L32.7377 38.3622L32.9259 38.5012L34.081 39.37L34.6454 39.8044L35.2098 40.2388L35.5555 40.4951C35.6865 40.5808 35.8368 40.633 35.993 40.6472H36.3081C36.4653 40.6286 36.6156 40.5719 36.7456 40.4821C36.8486 40.4114 36.9254 40.3092 36.9644 40.191C36.9906 40.1192 36.9987 40.042 36.988 39.9663C36.9774 39.8906 36.9482 39.8186 36.9031 39.7566C36.8628 39.6901 36.8092 39.6324 36.7456 39.5872C36.5719 39.4684 36.3659 39.4048 36.1549 39.4048C35.944 39.4048 35.738 39.4684 35.5643 39.5872C35.502 39.6326 35.4498 39.6903 35.4111 39.7566H35.3499L34.7636 39.3222L33.0134 38.019L33.2278 37.8452C34.0931 37.2593 35.1163 36.9459 36.1637 36.9459C37.2111 36.9459 38.2342 37.2593 39.0996 37.8452C39.3535 38.0338 39.5802 38.2559 39.7734 38.5055C39.9445 38.7261 40.079 38.9725 40.1716 39.2353V39.2701C40.2684 39.5492 40.31 39.8442 40.2941 40.1389C40.2724 40.5523 40.1574 40.9555 39.9574 41.3188C39.7575 41.682 39.4777 41.9959 39.139 42.2371ZM40.9898 38.8617C40.8816 38.5887 40.7343 38.3326 40.5522 38.1015C40.2985 37.7538 39.9931 37.4462 39.6465 37.1893C38.6285 36.4892 37.4196 36.1141 36.1812 36.1141C34.9428 36.1141 33.7339 36.4892 32.7159 37.1893L32.659 37.2327L32.1864 36.8895C31.8391 36.6308 31.4597 36.4177 31.0576 36.2553C30.32 35.9635 29.5325 35.816 28.7386 35.8208C28.412 35.8213 28.0858 35.846 27.7629 35.8947C27.1767 35.9806 26.6071 36.155 26.074 36.4117L25.0807 37.0546C24.3656 37.6314 23.8966 38.4554 23.7681 39.3613C23.7507 39.4938 23.7419 39.6273 23.7419 39.761V39.7957H7.97283C6.39895 39.7908 4.88737 39.1846 3.75158 38.1029C2.61579 37.0211 1.94295 35.5469 1.87261 33.9858C1.80227 32.4247 2.33982 30.8967 3.37378 29.7186C4.40773 28.5404 5.85875 27.8027 7.4259 27.6582L8.41037 27.567L8.1916 26.5983C8.04314 25.9395 7.96976 25.2663 7.97283 24.5913C7.97435 22.5856 8.64155 20.6363 9.87121 19.0451C11.1009 17.4538 12.8244 16.3092 14.7752 15.7884C16.726 15.2676 18.7954 15.3996 20.663 16.1639C22.5306 16.9283 24.0925 18.2825 25.107 20.0169L25.5008 20.6815L26.2096 20.3775C27.2746 19.9228 28.4366 19.7379 29.5913 19.8392C30.746 19.9406 31.8573 20.325 32.8254 20.9581C33.7936 21.5911 34.5882 22.453 35.138 23.4662C35.6878 24.4794 35.9756 25.6124 35.9755 26.7633V27.6322H37.7257C39.0545 27.6317 40.3473 28.0602 41.4093 28.853C42.4713 29.6459 43.2449 30.7601 43.6133 32.0276C43.9817 33.2951 43.9251 34.6472 43.4518 35.88C42.9786 37.1127 42.1145 38.1592 40.9898 38.8617Z" fill="#0D4C8F"/>
<path d="M44.7264 33.7139C44.7264 31.8705 43.9888 30.1026 42.6759 28.7991C41.3631 27.4956 39.5824 26.7633 37.7257 26.7633H36.8506C36.8509 25.4684 36.5273 24.1937 35.9088 23.0537C35.2903 21.9136 34.3964 20.9439 33.3072 20.2316C32.2181 19.5193 30.9678 19.0867 29.6686 18.9727C28.3695 18.8586 27.0621 19.0666 25.8639 19.5781C24.6553 17.5158 22.7432 15.9509 20.4734 15.1667C18.2037 14.3824 15.7262 14.4305 13.489 15.3023C11.2519 16.1741 9.40286 17.8119 8.27634 19.9196C7.14983 22.0273 6.82022 24.4657 7.34714 26.7937C5.55734 26.9604 3.90068 27.8042 2.72038 29.1504C1.54007 30.4966 0.926588 32.242 1.00702 34.025C1.08744 35.808 1.85562 37.4919 3.1524 38.728C4.44919 39.9641 6.17519 40.6575 7.97283 40.6646H23.8556C24.1052 41.4595 24.609 42.1519 25.2908 42.6368C26.3055 43.3329 27.5096 43.7057 28.743 43.7057C29.9763 43.7057 31.1805 43.3329 32.1952 42.6368L32.2739 42.576L32.7465 42.9235C33.7528 43.6409 34.9644 44.0185 36.2031 44.0009C37.124 44.0074 38.0342 43.8038 38.8633 43.4057C39.145 43.2704 39.4131 43.109 39.664 42.9235C40.1336 42.6017 40.5199 42.1742 40.7914 41.676C41.0629 41.1777 41.2118 40.6227 41.2261 40.0564C41.2261 39.9521 41.2261 39.8479 41.2261 39.7436C42.2918 39.1327 43.1765 38.2536 43.7911 37.1951C44.4056 36.1365 44.7282 34.9358 44.7264 33.7139ZM39.139 42.2371C38.9365 42.3882 38.7196 42.5191 38.4914 42.6281C37.6624 43.0228 36.7435 43.1944 35.8267 43.1258C34.9098 43.0572 34.0272 42.7507 33.2672 42.2371L32.2127 41.4682L31.1626 40.6646L30.5763 40.2301L29.9943 39.7957L29.408 39.3613H29.3774C29.2028 39.2448 28.9971 39.1825 28.7867 39.1825C28.5763 39.1825 28.3707 39.2448 28.196 39.3613L28.1567 39.3961C28.0895 39.4463 28.036 39.5122 28.0008 39.5881C27.9657 39.6639 27.9501 39.7472 27.9554 39.8305C27.9643 39.9103 27.9904 39.9874 28.0319 40.0563C28.0734 40.1253 28.1294 40.1845 28.196 40.2301L28.2529 40.2649C28.4141 40.361 28.5987 40.4118 28.7867 40.4118C28.9748 40.4118 29.1593 40.361 29.3205 40.2649L29.3774 40.2301C29.4503 40.1795 29.5103 40.1125 29.5524 40.0347L29.8631 40.2649L30.4494 40.6993L31.9327 41.8027C31.8626 41.8592 31.797 41.92 31.7183 41.9765C30.8529 42.5624 29.8298 42.8758 28.7823 42.8758C27.7349 42.8758 26.7118 42.5624 25.8464 41.9765C25.392 41.6516 25.0351 41.2101 24.8138 40.6993C24.7575 40.5586 24.7135 40.4132 24.6826 40.2649C24.6271 39.9779 24.6271 39.6831 24.6826 39.3961C24.8297 38.6754 25.2513 38.0389 25.8596 37.6193C26.0642 37.4703 26.2808 37.3381 26.5071 37.224C26.9593 37.0085 27.4417 36.8621 27.9379 36.7896C28.8941 36.6387 29.8736 36.7468 30.7732 37.1024C31.1115 37.2347 31.4319 37.4083 31.727 37.6193L32.4752 38.1667L32.7377 38.3622L32.9259 38.5012L34.081 39.37L34.6454 39.8044L35.2098 40.2388L35.5555 40.4951C35.6865 40.5808 35.8368 40.633 35.993 40.6472H36.3081C36.4653 40.6286 36.6156 40.5719 36.7456 40.4821C36.8486 40.4114 36.9254 40.3092 36.9644 40.191C36.9906 40.1192 36.9987 40.042 36.988 39.9663C36.9774 39.8906 36.9482 39.8186 36.9031 39.7566C36.8628 39.6901 36.8092 39.6324 36.7456 39.5872C36.5719 39.4684 36.3659 39.4048 36.1549 39.4048C35.944 39.4048 35.738 39.4684 35.5643 39.5872C35.502 39.6326 35.4498 39.6903 35.4111 39.7566H35.3499L34.7636 39.3222L33.0134 38.019L33.2278 37.8452C34.0931 37.2593 35.1163 36.9459 36.1637 36.9459C37.2111 36.9459 38.2342 37.2593 39.0996 37.8452C39.3535 38.0338 39.5802 38.2559 39.7734 38.5055C39.9445 38.7261 40.079 38.9725 40.1716 39.2353V39.2701C40.2684 39.5492 40.31 39.8442 40.2941 40.1389C40.2724 40.5523 40.1574 40.9555 39.9574 41.3188C39.7575 41.682 39.4777 41.9959 39.139 42.2371ZM40.9898 38.8617C40.8816 38.5887 40.7343 38.3326 40.5522 38.1015C40.2985 37.7538 39.9931 37.4462 39.6465 37.1893C38.6285 36.4892 37.4196 36.1141 36.1812 36.1141C34.9428 36.1141 33.7339 36.4892 32.7159 37.1893L32.659 37.2327L32.1864 36.8895C31.8391 36.6308 31.4597 36.4177 31.0576 36.2553C30.32 35.9635 29.5325 35.816 28.7386 35.8208C28.412 35.8213 28.0858 35.846 27.7629 35.8947C27.1767 35.9806 26.6071 36.155 26.074 36.4117L25.0807 37.0546C24.3656 37.6314 23.8966 38.4554 23.7681 39.3613C23.7507 39.4938 23.7419 39.6273 23.7419 39.761V39.7957H7.97283C6.39895 39.7908 4.88737 39.1846 3.75158 38.1029C2.61579 37.0211 1.94295 35.5469 1.87261 33.9858C1.80227 32.4247 2.33982 30.8967 3.37378 29.7186C4.40773 28.5404 5.85875 27.8027 7.4259 27.6582L8.41037 27.567L8.1916 26.5983C8.04314 25.9395 7.96976 25.2663 7.97283 24.5913C7.97435 22.5856 8.64155 20.6363 9.87121 19.0451C11.1009 17.4538 12.8244 16.3092 14.7752 15.7884C16.726 15.2676 18.7954 15.3996 20.663 16.1639C22.5306 16.9283 24.0925 18.2825 25.107 20.0169L25.5008 20.6815L26.2096 20.3775C27.2746 19.9228 28.4366 19.7379 29.5913 19.8392C30.746 19.9406 31.8573 20.325 32.8254 20.9581C33.7936 21.5911 34.5882 22.453 35.138 23.4662C35.6878 24.4794 35.9756 25.6124 35.9755 26.7633V27.6322H37.7257C39.0545 27.6317 40.3473 28.0602 41.4093 28.853C42.4713 29.6459 43.2449 30.7601 43.6133 32.0276C43.9817 33.2951 43.9251 34.6472 43.4518 35.88C42.9786 37.1127 42.1145 38.1592 40.9898 38.8617Z" stroke="#0D4C8F" stroke-width="1.72038" mask="url(#path-2-outside-1_120_2379)"/>
</svg>
