<svg width="52" height="57" viewBox="0 0 52 57" fill="none" xmlns="http://www.w3.org/2000/svg">
<rect x="20" width="30" height="30" rx="5" fill="#20C897"/>
<path d="M48.9894 46.1668L29.316 26.4718C31.331 21.4018 30.3344 15.4218 26.196 11.3051C21.2127 6.32177 13.456 5.86677 7.93102 9.89677L16.251 18.2384L13.1743 21.2501L4.87601 12.9951C0.846015 18.4984 1.30102 26.2768 6.28435 31.2384C10.3143 35.2684 16.186 36.3301 21.2127 34.4451L40.951 54.1834C41.796 55.0284 43.161 55.0284 44.006 54.1834L48.9894 49.2001C49.8344 48.3334 49.8344 47.0118 48.9894 46.1668ZM42.4894 49.6118L21.9927 29.1151C20.671 30.0901 19.1977 30.6751 17.6593 30.8918C14.7127 31.3251 11.6143 30.4368 9.36102 28.1834C7.30268 26.1468 6.34935 23.4168 6.50102 20.7301L13.196 27.4251L22.3827 18.2384L15.6877 11.5001C18.4177 11.3918 21.0827 12.3451 23.141 14.3818C24.2491 15.4882 25.0724 16.8468 25.5403 18.3411C26.0082 19.8355 26.1068 21.421 25.8277 22.9618C25.5572 24.5145 24.9016 25.9746 23.921 27.2084L44.4177 47.6834L42.4894 49.6118Z" fill="#0D4C8F"/>
</svg>
