<svg width="55" height="56" viewBox="0 0 55 56" fill="none" xmlns="http://www.w3.org/2000/svg">
<rect x="25" width="30" height="30" rx="5" fill="#20C897"/>
<path d="M26.4987 7.4165L8.83203 14.0415V27.4903C8.83203 38.6423 16.3624 49.0436 26.4987 51.5832C36.635 49.0436 44.1654 38.6423 44.1654 27.4903V14.0415L26.4987 7.4165ZM39.7487 27.4903C39.7487 36.3236 34.1175 44.4944 26.4987 46.9898C18.8799 44.4944 13.2487 36.3457 13.2487 27.4903V16.9344L26.4987 12.2528L39.7487 16.9344V27.4903ZM19.4762 26.3861L16.3404 29.4998L24.1579 37.3173L36.657 24.8182L33.5433 21.7044L24.1799 31.0678L19.4762 26.3861Z" fill="#0D4C8F"/>
</svg>
