<svg width="50" height="43" viewBox="0 0 50 43" fill="none" xmlns="http://www.w3.org/2000/svg">
<rect x="20" width="30" height="30" rx="5" fill="#20C897"/>
<path d="M23.1535 37.284H24.3528V35.529C25.4028 35.3835 26.293 34.9688 27.0235 34.2847C27.754 33.6007 28.12 32.7195 28.1215 31.641C28.1215 30.705 27.7465 29.922 26.9965 29.292C26.2465 28.662 25.384 28.1415 24.409 27.7305V23.1788C24.841 23.2613 25.2153 23.4412 25.5318 23.7188C25.8483 23.9963 26.077 24.3075 26.218 24.6525L27.8088 23.982C27.5178 23.31 27.067 22.7587 26.4565 22.3282C25.846 21.8977 25.1635 21.6127 24.409 21.4732V19.7183H23.1535V21.4598C22.1035 21.5648 21.2133 21.927 20.4828 22.5465C19.7523 23.166 19.3863 23.988 19.3848 25.0125C19.3848 25.968 19.7695 26.778 20.539 27.4425C21.3085 28.107 22.18 28.641 23.1535 29.0445V33.792C22.438 33.6615 21.853 33.3787 21.3985 32.9438C20.944 32.5088 20.626 31.9913 20.4445 31.3913L18.865 32.0618C19.165 33.0098 19.69 33.7898 20.44 34.4018C21.19 35.0107 22.0945 35.3902 23.1535 35.5402V37.284ZM24.409 33.7785V29.5035C24.934 29.7435 25.3997 30.0323 25.8063 30.3698C26.2128 30.7073 26.416 31.1587 26.416 31.7242C26.416 32.3692 26.23 32.8425 25.858 33.144C25.486 33.4455 25.003 33.657 24.409 33.7785ZM23.1535 27.2153C22.654 26.9692 22.1853 26.679 21.7473 26.3445C21.3093 26.01 21.0903 25.566 21.0903 25.0125C21.0903 24.4125 21.3025 23.9737 21.727 23.6962C22.1515 23.4187 22.627 23.2417 23.1535 23.1652V27.2153ZM14.5 42C10.7395 42 7.549 40.6912 4.9285 38.0737C2.308 35.4562 0.998501 32.268 1 28.509C1.0015 24.75 2.311 21.5588 4.9285 18.9353C7.546 16.3118 10.7365 15 14.5 15H32.5C36.2605 15 39.451 16.3087 42.0715 18.9262C44.692 21.5437 46.0015 24.732 46 28.491C45.9985 32.25 44.689 35.4412 42.0715 38.0647C39.454 40.6882 36.2635 42 32.5 42H14.5ZM14.5 39.75H32.5C35.6125 39.75 38.266 38.6528 40.4605 36.4583C42.655 34.2638 43.7515 31.611 43.75 28.5C43.7485 25.389 42.6513 22.7363 40.4583 20.5418C38.2653 18.3473 35.6125 17.25 32.5 17.25H14.5C11.3875 17.25 8.73475 18.3473 6.54175 20.5418C4.34875 22.7363 3.2515 25.389 3.25 28.5C3.2485 31.611 4.34575 34.2645 6.54175 36.4605C8.73775 38.6565 11.3905 39.753 14.5 39.75Z" fill="#0D4C8F" stroke="#0D4C8F"/>
</svg>
