<svg width="47" height="49" viewBox="0 0 47 49" fill="none" xmlns="http://www.w3.org/2000/svg">
<rect x="17" width="30" height="30" rx="5" fill="#20C897"/>
<path d="M16.2031 34.5469V38.7031C16.2031 40.3385 16.0104 41.7604 15.625 42.9688C15.25 44.1771 14.7083 45.1771 14 45.9688C13.3021 46.7604 12.4688 47.349 11.5 47.7344C10.5312 48.1198 9.46354 48.3125 8.29688 48.3125C7.35938 48.3125 6.48438 48.1927 5.67188 47.9531C4.85938 47.7031 4.125 47.3281 3.46875 46.8281C2.82292 46.3177 2.26562 45.6823 1.79688 44.9219C1.32812 44.1615 0.96875 43.2656 0.71875 42.2344C0.46875 41.1927 0.34375 40.0156 0.34375 38.7031V34.5469C0.34375 32.901 0.53125 31.4792 0.90625 30.2812C1.29167 29.0729 1.83854 28.0729 2.54688 27.2812C3.25521 26.4896 4.09375 25.901 5.0625 25.5156C6.03125 25.1302 7.09896 24.9375 8.26562 24.9375C9.20312 24.9375 10.0729 25.0625 10.875 25.3125C11.6875 25.5521 12.4219 25.9271 13.0781 26.4375C13.7344 26.9375 14.2917 27.5677 14.75 28.3281C15.2188 29.0885 15.5781 29.9896 15.8281 31.0312C16.0781 32.0625 16.2031 33.2344 16.2031 34.5469ZM10.9375 39.3438V33.875C10.9375 33.1458 10.8958 32.5104 10.8125 31.9688C10.7396 31.4271 10.625 30.9688 10.4688 30.5938C10.3229 30.2188 10.1406 29.9167 9.92188 29.6875C9.70312 29.4479 9.45312 29.276 9.17188 29.1719C8.90104 29.0573 8.59896 29 8.26562 29C7.84896 29 7.47396 29.0885 7.14062 29.2656C6.81771 29.4323 6.54167 29.7031 6.3125 30.0781C6.08333 30.4531 5.90625 30.9531 5.78125 31.5781C5.66667 32.2031 5.60938 32.9688 5.60938 33.875V39.3438C5.60938 40.0833 5.64583 40.7292 5.71875 41.2812C5.80208 41.8229 5.91667 42.2865 6.0625 42.6719C6.21875 43.0469 6.40625 43.3542 6.625 43.5938C6.84375 43.8229 7.09375 43.9896 7.375 44.0938C7.65625 44.1979 7.96354 44.25 8.29688 44.25C8.70312 44.25 9.06771 44.1667 9.39062 44C9.71354 43.8333 9.98958 43.5625 10.2188 43.1875C10.4583 42.8021 10.6354 42.2969 10.75 41.6719C10.875 41.0365 10.9375 40.2604 10.9375 39.3438ZM23.4688 37.8594L19.2812 36.875L20.6562 25.25H33.9531V29.3438H24.9531L24.4375 33.8594C24.6875 33.7135 25.1094 33.5417 25.7031 33.3438C26.3073 33.1354 26.974 33.0312 27.7031 33.0312C28.8281 33.0312 29.8229 33.2031 30.6875 33.5469C31.5625 33.8802 32.3021 34.375 32.9062 35.0312C33.5104 35.6771 33.9635 36.474 34.2656 37.4219C34.5781 38.3698 34.7344 39.4531 34.7344 40.6719C34.7344 41.651 34.5729 42.599 34.25 43.5156C33.9375 44.4219 33.4531 45.2396 32.7969 45.9688C32.151 46.6875 31.3333 47.2604 30.3438 47.6875C29.3542 48.1042 28.1823 48.3125 26.8281 48.3125C25.8177 48.3125 24.8333 48.1562 23.875 47.8438C22.9167 47.5312 22.0521 47.0833 21.2812 46.5C20.5208 45.9062 19.9167 45.1927 19.4688 44.3594C19.0312 43.5156 18.8177 42.5729 18.8281 41.5312H24.125C24.1562 42.0833 24.2865 42.5625 24.5156 42.9688C24.7448 43.375 25.0521 43.6927 25.4375 43.9219C25.8333 44.1406 26.2865 44.25 26.7969 44.25C27.3177 44.25 27.75 44.1458 28.0938 43.9375C28.4375 43.7292 28.7083 43.4427 28.9062 43.0781C29.1042 42.7135 29.2448 42.2969 29.3281 41.8281C29.4115 41.349 29.4531 40.8438 29.4531 40.3125C29.4531 39.75 29.3906 39.2448 29.2656 38.7969C29.151 38.349 28.9635 37.9688 28.7031 37.6562C28.4427 37.3333 28.1042 37.0885 27.6875 36.9219C27.2812 36.7552 26.7917 36.6719 26.2188 36.6719C25.4583 36.6719 24.8594 36.8021 24.4219 37.0625C23.9844 37.3229 23.6667 37.5885 23.4688 37.8594Z" fill="#0D4C8F"/>
<path d="M37.9531 45.5312C37.9531 44.7812 38.224 44.1562 38.7656 43.6562C39.3073 43.1458 40.0052 42.8906 40.8594 42.8906C41.724 42.8906 42.4219 43.1458 42.9531 43.6562C43.4948 44.1562 43.7656 44.7812 43.7656 45.5312C43.7656 46.2812 43.4948 46.9115 42.9531 47.4219C42.4219 47.9219 41.724 48.1719 40.8594 48.1719C40.0052 48.1719 39.3073 47.9219 38.7656 47.4219C38.224 46.9115 37.9531 46.2812 37.9531 45.5312Z" fill="#20C897"/>
</svg>
