<svg width="48" height="49" viewBox="0 0 48 49" fill="none" xmlns="http://www.w3.org/2000/svg">
<rect x="18.6172" width="28.5714" height="30" rx="5" fill="#20C897"/>
<path d="M3.58203 18.5417V14.9583C3.58203 13.9729 3.9332 13.1296 4.63553 12.4285C5.33786 11.7274 6.18114 11.3762 7.16536 11.375H35.832C36.8174 11.375 37.6613 11.7262 38.3637 12.4285C39.066 13.1308 39.4166 13.9741 39.4154 14.9583V18.5417H35.832V14.9583H7.16536V18.5417H3.58203ZM14.332 43.625V40.0417H7.16536C6.17995 40.0417 5.33667 39.6911 4.63553 38.99C3.93439 38.2888 3.58323 37.4449 3.58203 36.4583V32.875H7.16536V36.4583H35.832V32.875H39.4154V36.4583C39.4154 37.4438 39.0648 38.2876 38.3637 38.99C37.6625 39.6923 36.8186 40.0429 35.832 40.0417H28.6654V43.625H14.332ZM8.5987 25.7083L13.257 21.05L10.7487 18.5417L3.58203 25.7083L10.7487 32.875L13.257 30.3667L8.5987 25.7083ZM34.3987 25.7083L29.7404 30.3667L32.2487 32.875L39.4154 25.7083L32.2487 18.5417L29.7404 21.05L34.3987 25.7083Z" fill="#0D4C8F"/>
</svg>
