<svg width="54" height="56" viewBox="0 0 56 58" fill="none" xmlns="http://www.w3.org/2000/svg">
<rect x="26" width="30" height="30" rx="5" fill="#20C897"/>
<path d="M11.5449 55.9994V48.8569C11.1549 44.9794 8.58234 42.0394 6.20483 38.4994M30.6349 55.9994V51.7144C42.91 51.7144 41.545 37.4294 41.545 37.4294C41.545 37.4294 47 37.4294 47 31.7143L41.545 23.1443C41.545 11.7142 32.2724 6.10423 22.4549 6.00173C16.9549 5.94422 12.5624 7.32673 9.27985 9.74924" stroke="#0D4C8F" stroke-width="4" stroke-linecap="round" stroke-linejoin="round"/>
<path d="M27.0001 18.5L32.0001 24.75L27.0001 31.0001M7.00002 18.5L2 24.75L7.00002 31.0001M19.5001 16L14.5001 33.5001" stroke="#0D4C8F" stroke-width="4" stroke-linecap="round" stroke-linejoin="round"/>
</svg>
