<svg width="49" height="52" viewBox="0 0 49 52" fill="none" xmlns="http://www.w3.org/2000/svg">
<rect x="19.666" width="28.5714" height="30" rx="5" fill="#20C897"/>
<path d="M27.5001 12H36.6081L36.8081 12.028L37.0061 12.084L37.1261 12.136C37.2861 12.2053 37.4321 12.3053 37.5641 12.436L37.6441 12.524L37.7321 12.638L37.8401 12.818L37.9181 12.998L37.9561 13.126L37.9841 13.254L38.0021 13.444V22.508C38.002 22.888 37.8576 23.2539 37.5982 23.5316C37.3387 23.8093 36.9835 23.9781 36.6044 24.0041C36.2252 24.03 35.8503 23.911 35.5555 23.6711C35.2607 23.4313 35.0679 23.0885 35.0161 22.712L35.0021 22.508V17.118L22.1221 29.998C21.8681 30.252 21.5314 30.4065 21.1732 30.4333C20.815 30.4601 20.4591 30.3574 20.1701 30.144L20.0021 30L13.9421 24.18L2.56212 35.558C2.29447 35.8264 1.93514 35.9835 1.55637 35.9977C1.1776 36.012 0.807486 35.8823 0.520436 35.6348C0.233386 35.3872 0.0506866 35.0402 0.00907197 34.6635C-0.0325426 34.2867 0.0700131 33.9082 0.296119 33.604L0.442119 33.436L12.8821 20.996C13.1363 20.7423 13.4732 20.5882 13.8314 20.5618C14.1896 20.5353 14.5454 20.6383 14.8341 20.852L15.0021 20.996L21.0621 26.816L32.8781 15H27.4981C27.136 14.9995 26.7863 14.868 26.5135 14.6298C26.2407 14.3916 26.0634 14.0628 26.0141 13.704L26.0001 13.5C26.0001 13.1375 26.1314 12.7873 26.3697 12.5141C26.6079 12.241 26.937 12.0633 27.2961 12.014L27.5001 12ZM1.50212 42C1.89994 42 2.28148 42.158 2.56278 42.4393C2.84408 42.7206 3.00212 43.1022 3.00212 43.5V50.5C3.00212 50.8978 2.84408 51.2794 2.56278 51.5607C2.28148 51.842 1.89994 52 1.50212 52C1.10429 52 0.722763 51.842 0.441459 51.5607C0.160154 51.2794 0.00211921 50.8978 0.00211921 50.5V43.5C0.00211921 43.1022 0.160154 42.7206 0.441459 42.4393C0.722763 42.158 1.10429 42 1.50212 42ZM13.0021 35.5C13.0021 35.1022 12.8441 34.7206 12.5628 34.4393C12.2815 34.158 11.8999 34 11.5021 34C11.1043 34 10.7228 34.158 10.4415 34.4393C10.1602 34.7206 10.0021 35.1022 10.0021 35.5V50.5C10.0021 50.8978 10.1602 51.2794 10.4415 51.5607C10.7228 51.842 11.1043 52 11.5021 52C11.8999 52 12.2815 51.842 12.5628 51.5607C12.8441 51.2794 13.0021 50.8978 13.0021 50.5V35.5ZM21.5021 38C21.8999 38 22.2815 38.158 22.5628 38.4393C22.8441 38.7206 23.0021 39.1022 23.0021 39.5V50.5C23.0021 50.8978 22.8441 51.2794 22.5628 51.5607C22.2815 51.842 21.8999 52 21.5021 52C21.1043 52 20.7228 51.842 20.4415 51.5607C20.1602 51.2794 20.0021 50.8978 20.0021 50.5V39.5C20.0021 39.1022 20.1602 38.7206 20.4415 38.4393C20.7228 38.158 21.1043 38 21.5021 38ZM33.0021 29.5C33.0021 29.1022 32.8441 28.7206 32.5628 28.4393C32.2815 28.158 31.8999 28 31.5021 28C31.1043 28 30.7228 28.158 30.4415 28.4393C30.1602 28.7206 30.0021 29.1022 30.0021 29.5V50.5C30.0021 50.8978 30.1602 51.2794 30.4415 51.5607C30.7228 51.842 31.1043 52 31.5021 52C31.8999 52 32.2815 51.842 32.5628 51.5607C32.8441 51.2794 33.0021 50.8978 33.0021 50.5V29.5Z" fill="#0D4C8F"/>
</svg>
