<svg width="57" height="59" viewBox="0 0 57 59" fill="none" xmlns="http://www.w3.org/2000/svg">
<rect x="27" width="30" height="30" rx="5" fill="#20C897"/>
<path d="M50.4431 35.1371L50.4151 35.1651L43.6651 41.9151C43.2732 42.307 42.7417 42.5271 42.1875 42.5271C41.6333 42.5271 41.1018 42.307 40.7099 41.9151C40.318 41.5232 40.0979 40.9917 40.0979 40.4375C40.0979 39.8833 40.318 39.3518 40.7099 38.9599L40.71 38.9598L44.5812 35.092L44.6973 34.976L44.8615 34.975L44.9159 34.9747C44.6246 34.6075 44.4639 34.1507 44.4639 33.6774C44.4639 33.2125 44.619 32.7635 44.9005 32.3998L44.8663 32.4L44.6993 32.401L44.5812 32.283L40.71 28.4152L40.7097 28.4149C40.3183 28.023 40.0987 27.4916 40.0991 26.9377C40.0995 26.3838 40.3199 25.8528 40.7118 25.4614C41.1037 25.07 41.6351 24.8504 42.189 24.8507C42.7428 24.8511 43.2737 25.0715 43.6651 25.4633L50.4431 35.1371ZM50.4431 35.1371L50.4518 35.1241C50.8164 34.7398 51.0217 34.2308 51.025 33.7001V33.6976L51.025 33.6774L51.025 33.6749C51.0216 33.1267 50.8026 32.6018 50.4154 32.2136L50.4151 32.2133L43.6653 25.4635L50.4431 35.1371ZM40.6324 22.5393L40.9 22.4454V22.1619V15.125C40.9 13.2287 40.1467 11.4101 38.8058 10.0692C37.4649 8.7283 35.6463 7.975 33.75 7.975H20.25C18.3537 7.975 16.5351 8.7283 15.1942 10.0692C13.8533 11.4101 13.1 13.2287 13.1 15.125V22.1619V22.4454L13.3676 22.5393C14.275 22.8577 15.0612 23.4499 15.6178 24.2341C16.1744 25.0184 16.4739 25.956 16.475 26.9177L17.275 26.9172V26.9168V15.125C17.275 14.336 17.5884 13.5793 18.1464 13.0214C18.7043 12.4634 19.461 12.15 20.25 12.15H33.75C34.539 12.15 35.2957 12.4634 35.8536 13.0214C36.4116 13.5793 36.725 14.336 36.725 15.125V26.9085C36.725 26.9181 36.725 26.9277 36.725 26.9373C36.725 26.9374 36.725 26.9374 36.725 26.9375C36.725 26.9379 36.725 26.9383 36.725 26.9387L37.525 26.9375L37.525 26.9363C37.525 26.927 37.525 26.9176 37.525 26.9082C37.528 25.9532 37.8253 25.022 38.3768 24.2417C38.9336 23.4538 39.722 22.8588 40.6324 22.5393ZM13.3676 44.8357L13.1 44.9296V45.2131V48.875C13.1 50.7713 13.8533 52.5899 15.1942 53.9308C16.5351 55.2717 18.3537 56.025 20.25 56.025H33.75C35.6463 56.025 37.4649 55.2717 38.8058 53.9308C40.1467 52.5899 40.9 50.7713 40.9 48.875V45.2131V44.9296L40.6324 44.8357C39.722 44.5162 38.9336 43.9212 38.3768 43.1333C37.8253 42.353 37.528 41.4218 37.525 40.4668C37.525 40.4574 37.525 40.448 37.525 40.4387L37.525 40.4375L36.725 40.4363C36.725 40.4367 36.725 40.4371 36.725 40.4375C36.725 40.4376 36.725 40.4376 36.725 40.4377C36.725 40.4473 36.725 40.4569 36.725 40.4665V48.875C36.725 49.664 36.4116 50.4207 35.8536 50.9786C35.2957 51.5366 34.539 51.85 33.75 51.85H20.25C19.461 51.85 18.7043 51.5366 18.1464 50.9786C17.5884 50.4207 17.275 49.664 17.275 48.875V40.4582V40.4577L16.475 40.4573C16.4739 41.419 16.1744 42.3566 15.6178 43.1409C15.0612 43.9251 14.275 44.5173 13.3676 44.8357ZM3.58828 32.2099L3.58826 32.2099L3.57814 32.2201L3.57813 32.22L3.57621 32.222C3.1941 32.6094 2.97838 33.1307 2.97501 33.6749H2.975V33.6774L2.975 33.6976L2.975 33.6993C2.97732 34.249 3.19636 34.7756 3.58455 35.1647L3.58491 35.1651L10.3349 41.9151C10.7268 42.307 11.2583 42.5271 11.8125 42.5271C12.3667 42.5271 12.8982 42.307 13.2901 41.9151C13.682 41.5232 13.9021 40.9917 13.9021 40.4375C13.9021 39.8833 13.682 39.3518 13.2901 38.9599L13.29 38.9598L9.41884 35.092L9.30071 34.974L9.13372 34.975L9.09952 34.9752C9.38104 34.6115 9.53613 34.1625 9.53613 33.6976C9.53613 33.2243 9.37536 32.7675 9.08407 32.4003L9.13853 32.4L9.3027 32.399L9.41884 32.283L13.2899 28.4153C13.2899 28.4153 13.2899 28.4152 13.29 28.4152C13.6819 28.0238 13.9022 27.4928 13.9026 26.939C13.903 26.3851 13.6834 25.8537 13.292 25.4618C12.9006 25.0699 12.3696 24.8495 11.8157 24.8491C11.2618 24.8487 10.7304 25.0683 10.3385 25.4597L10.3383 25.4599L3.58828 32.2099Z" fill="#0D4C8F" stroke="#0D4C8F" stroke-width="0.8"/>
</svg>
