<svg width="28" height="28" viewBox="0 0 28 28" fill="none" xmlns="http://www.w3.org/2000/svg">
<path fill-rule="evenodd" clip-rule="evenodd" d="M12.7984 4.11885C13.2901 3.82103 13.854 3.66357 14.4288 3.66357C15.0037 3.66357 15.5676 3.82103 16.0593 4.11885L17.2172 4.82709C18.8417 5.82011 20.6919 6.04122 22.5506 6.26404C23.1514 6.33623 23.7528 6.40785 24.3479 6.50619C24.3479 6.50619 24.361 7.54866 24.3474 8.02158L24.2286 12.0863C24.1263 15.5724 22.5762 18.8777 19.9172 21.2798C18.6627 22.4127 17.365 23.4364 15.874 24.2867C15.4347 24.5353 14.942 24.6747 14.4375 24.6932C13.9331 24.7117 13.4315 24.6087 12.9751 24.393C11.2534 23.5745 9.72892 22.5366 8.33688 21.2798C5.67784 18.8777 4.12778 15.5724 4.02603 12.0863L3.9078 8.03465C3.89359 7.55491 3.9078 6.50619 3.9078 6.50619C4.39096 6.44934 4.8832 6.40217 5.37943 6.35499C7.56952 6.14695 9.83237 5.93209 11.6888 4.79754L12.7984 4.11885ZM12.9854 12.7587V8.77984H15.259V12.7587H19.2379V15.0324H15.259V19.0113H12.9854V15.0324H9.00647V12.7587H12.9854Z" fill="#D9D9D9"/>
</svg>
