<svg width="53" height="45" viewBox="0 0 53 45" fill="none" xmlns="http://www.w3.org/2000/svg">
<rect x="23.6172" width="28.5714" height="30" rx="5" fill="#20C897"/>
<path d="M35 23.3332C35 32.5832 28.6 41.2332 20 43.3332C11.4 41.2332 5 32.5832 5 23.3332V13.3332L20 6.6665L35 13.3332V23.3332ZM20 39.9998C26.25 38.3332 31.6667 30.8998 31.6667 23.6998V15.4998L20 10.2998L8.33333 15.4998V23.6998C8.33333 30.8998 13.75 38.3332 20 39.9998ZM24.6667 23.3332V20.8332C24.6667 18.4998 22.3333 16.6665 20 16.6665C17.6667 16.6665 15.3333 18.4998 15.3333 20.8332V23.3332C14.3333 23.3332 13.3333 24.3332 13.3333 25.3332V31.1665C13.3333 32.3332 14.3333 33.3332 15.3333 33.3332H24.5C25.6667 33.3332 26.6667 32.3332 26.6667 31.3332V25.4998C26.6667 24.3332 25.6667 23.3332 24.6667 23.3332ZM22.5 23.3332H17.5V20.8332C17.5 19.4998 18.6667 18.6665 20 18.6665C21.3333 18.6665 22.5 19.4998 22.5 20.8332V23.3332Z" fill="#0D4C8F"/>
</svg>
