<svg width="48" height="53" viewBox="0 0 48 53" fill="none" xmlns="http://www.w3.org/2000/svg">
<rect x="18.668" width="28.5714" height="30" rx="5" fill="#20C897"/>
<path d="M24.4748 15.0074C13.6903 14.7119 4.85518 23.3446 4.85518 34.0036H1.06262C0.109188 34.0036 -0.356936 35.1434 0.321063 35.7977L6.23236 41.7077C6.65611 42.1298 7.31292 42.1298 7.73667 41.7077L13.648 35.7977C13.7944 35.6489 13.8933 35.4603 13.9323 35.2556C13.9712 35.0509 13.9485 34.8393 13.8669 34.6474C13.7854 34.4555 13.6486 34.292 13.4739 34.1775C13.2992 34.0629 13.0944 34.0024 12.8852 34.0036H9.09267C9.09267 25.7719 15.8303 19.1232 24.1358 19.2288C32.0175 19.3343 38.6492 25.9408 38.7551 33.7926C38.861 42.0454 32.187 48.7785 23.9239 48.7785C20.5127 48.7785 17.3558 47.6176 14.8557 45.6547C14.4498 45.3362 13.9407 45.1775 13.425 45.2086C12.9093 45.2397 12.4232 45.4586 12.0589 45.8236C11.169 46.71 11.2326 48.2086 12.2284 48.9685C15.5572 51.591 19.68 53.0121 23.9239 52.9999C34.6236 52.9999 43.2892 44.1983 42.9926 33.4549C42.7172 23.5557 34.4117 15.2818 24.4748 15.0074ZM23.3942 25.5609C22.5255 25.5609 21.8051 26.2785 21.8051 27.1439V34.9112C21.8051 35.65 22.2077 36.3465 22.8433 36.7264L29.4538 40.6312C30.2166 41.0745 31.1912 40.8212 31.6361 40.0825C32.0811 39.3226 31.8268 38.3517 31.0853 37.9084L24.9833 34.2991V27.1228C24.9833 26.2785 24.2629 25.5609 23.3942 25.5609Z" fill="#0D4C8F"/>
</svg>
