<svg width="24" height="24" viewBox="0 0 24 24" fill="none" xmlns="http://www.w3.org/2000/svg">
<path fill-rule="evenodd" clip-rule="evenodd" d="M8.22734 4.00525C8.22734 2.99 8.63065 2.01633 9.34854 1.29844C10.0664 0.580553 11.0401 0.177246 12.0553 0.177246C13.0706 0.177246 14.0443 0.580553 14.7622 1.29844C15.48 2.01633 15.8833 2.99 15.8833 4.00525C15.8833 5.0205 15.48 5.99417 14.7622 6.71206C14.0443 7.42995 13.0706 7.83325 12.0553 7.83325C11.0401 7.83325 10.0664 7.42995 9.34854 6.71206C8.63065 5.99417 8.22734 5.0205 8.22734 4.00525ZM4.52501 10.2756C5.30424 9.53584 6.33769 9.12342 7.41213 9.12342C8.48657 9.12342 9.52002 9.53584 10.2993 10.2756L10.3158 10.2921L12.0553 12.0317L13.7965 10.2921L13.8131 10.2756C14.5922 9.5368 15.6249 9.12499 16.6986 9.12499C17.7722 9.12499 18.805 9.5368 19.584 10.2756C19.971 10.6426 20.2793 11.0845 20.4901 11.5744C20.7009 12.0643 20.8099 12.5919 20.8103 13.1253C20.8108 13.6586 20.7027 14.1864 20.4928 14.6767C20.2828 15.167 19.9753 15.6094 19.589 15.9771L12.6308 22.7401C12.4765 22.8901 12.2697 22.9741 12.0545 22.9741C11.8393 22.9741 11.6326 22.8901 11.4783 22.7401L4.5217 15.9771C4.13552 15.6095 3.82811 15.1673 3.61816 14.6772C3.40821 14.1872 3.30011 13.6596 3.30042 13.1264C3.30073 12.5933 3.40944 12.0658 3.61996 11.576C3.83048 11.0862 4.1384 10.6427 4.52501 10.2756Z" fill="#D9D9D9"/>
</svg>
