<svg width="47" height="47" viewBox="0 0 47 47" fill="none" xmlns="http://www.w3.org/2000/svg">
<rect x="16.6465" width="29.375" height="29.375" rx="4.89583" fill="#20C897"/>
<path d="M36.2292 32.7678H31.0536V27.5922H28.4658V39.2373H7.76339V18.5349H19.4085V15.9471H14.2329V10.7715H11.6451V15.9471H7.76339C7.07728 15.9478 6.41946 16.2206 5.9343 16.7058C5.44914 17.1909 5.17628 17.8488 5.1756 18.5349V22.4166H0V25.0044H5.1756V32.7678H0V35.3556H5.1756V39.2373C5.17628 39.9234 5.44914 40.5812 5.9343 41.0664C6.41946 41.5515 7.07728 41.8244 7.76339 41.8251H11.6451V47.0007H14.2329V41.8251H21.9963V47.0007H24.5841V41.8251H28.4658C29.1518 41.824 29.8094 41.5511 30.2945 41.066C30.7796 40.5809 31.0525 39.9233 31.0536 39.2373V35.3556H36.2292V32.7678Z" fill="white"/>
<path d="M31.054 10.7715C29.6818 10.7729 28.3661 11.3186 27.3958 12.2889C26.4255 13.2592 25.8798 14.5748 25.8784 15.9471C25.8832 16.8685 26.1367 17.7714 26.612 18.5608L22.7549 22.4166H11.6455V35.3556H24.5845V24.2461L28.4403 20.3903C29.2297 20.8653 30.1327 21.1183 31.054 21.1227C32.4266 21.1227 33.7431 20.5774 34.7137 19.6068C35.6843 18.6362 36.2296 17.3197 36.2296 15.9471C36.2296 14.5744 35.6843 13.258 34.7137 12.2874C33.7431 11.3168 32.4266 10.7715 31.054 10.7715ZM21.9967 32.7678H14.2333V25.0044H21.9967V32.7678ZM31.054 18.5349C30.5422 18.5349 30.0418 18.3831 29.6163 18.0988C29.1907 17.8144 28.859 17.4102 28.6632 16.9374C28.4673 16.4645 28.4161 15.9442 28.5159 15.4422C28.6158 14.9402 28.8622 14.4791 29.2241 14.1172C29.5861 13.7553 30.0472 13.5089 30.5491 13.409C31.0511 13.3092 31.5714 13.3604 32.0443 13.5563C32.5172 13.7521 32.9213 14.0838 33.2057 14.5094C33.49 14.9349 33.6418 15.4353 33.6418 15.9471C33.6411 16.6332 33.3682 17.291 32.8831 17.7762C32.3979 18.2613 31.7401 18.5342 31.054 18.5349Z" fill="white"/>
</svg>
