<svg width="52" height="54" viewBox="0 0 52 54" fill="none" xmlns="http://www.w3.org/2000/svg">
<rect x="22" width="30" height="30" rx="5" fill="#20C897"/>
<path d="M10.0917 32.4583V32.1583H9.79167H5.875H5.575V32.4583V50.0833V50.3833H5.875H9.79167H10.0917V50.0833V32.4583ZM45.3417 32.4583V32.1583H45.0417H33.2917H32.9917V32.4583V36.375V36.675H33.2917H36.9083V50.0833V50.3833H37.2083H41.125H41.425V50.0833V36.675H45.0417H45.3417V36.375V32.4583ZM31.0958 31.0461L31.2985 31.1729L31.4674 31.0037L34.3011 28.1641L34.5542 27.9104L34.2599 27.7059C31.101 25.5104 27.3474 24.3309 23.5005 24.325L23.4994 24.325C19.7031 24.3321 15.9996 25.4988 12.8847 27.6688L12.5911 27.8734L12.8438 28.1268L15.6814 30.9723L15.8508 31.1422L16.0538 31.0143C18.2842 29.6088 20.8637 28.8562 23.5 28.8417C26.1875 28.8566 28.8178 29.6199 31.0958 31.0461Z" fill="#0D4C8F" stroke="#0D4C8F" stroke-width="0.6"/>
<path d="M36.704 25.3939L36.9121 25.5486L37.0953 25.365L39.8898 22.5646L40.1296 22.3243L39.8617 22.1159C35.1833 18.4768 29.4271 16.4978 23.5 16.491L23.4993 16.491C17.6228 16.498 11.9166 18.4652 7.28416 22.0809L7.01711 22.2894L7.25632 22.5293L10.0489 25.3297L10.2325 25.5137L10.4408 25.3583C14.2133 22.5427 18.7923 21.0172 23.4996 21.0077C28.2571 21.0185 32.8855 22.556 36.704 25.3939Z" fill="#0D4C8F" stroke="#0D4C8F" stroke-width="0.6"/>
<path d="M42.4952 19.9551L42.2853 19.7864C36.96 15.5081 30.3339 13.1756 23.5029 13.1746L42.4952 19.9551ZM42.4952 19.9551L42.6855 19.7645M42.4952 19.9551L42.6855 19.7645M42.6855 19.7645L45.48 16.9661L45.7132 16.7326M42.6855 19.7645L45.7132 16.7326M45.7132 16.7326L45.4586 16.5226M45.7132 16.7326L45.4586 16.5226M45.4586 16.5226C39.2984 11.4442 31.565 8.66414 23.5815 8.65802C15.5979 8.65189 7.86027 11.4201 1.69234 16.489L1.43697 16.6989M45.4586 16.5226L1.43697 16.6989M1.43697 16.6989L1.67053 16.9328M1.43697 16.6989L1.67053 16.9328M1.67053 16.9328L4.46507 19.7312L4.65561 19.9221M1.67053 16.9328L4.65561 19.9221M4.65561 19.9221L4.86558 19.7529M4.65561 19.9221L4.86558 19.7529M4.86558 19.7529C10.1457 15.4983 16.7219 13.1771 23.5028 13.1746L4.86558 19.7529ZM23.5028 32.158C21.7005 32.158 19.9387 32.6924 18.4402 33.6937C16.9416 34.695 15.7737 36.1182 15.084 37.7833C14.3943 39.4484 14.2138 41.2806 14.5654 43.0482C14.917 44.8159 15.7849 46.4396 17.0593 47.714C18.3337 48.9884 19.9574 49.8563 21.725 50.2079C23.4927 50.5595 25.3249 50.379 26.99 49.6893C28.6551 48.9996 30.0783 47.8317 31.0796 46.3331C32.0809 44.8346 32.6153 43.0728 32.6153 41.2705C32.6153 38.8537 31.6552 36.5359 29.9463 34.827C28.2374 33.118 25.9196 32.158 23.5028 32.158ZM23.5028 45.8663C22.5938 45.8663 21.7053 45.5968 20.9495 45.0918C20.1937 44.5868 19.6047 43.869 19.2568 43.0292C18.909 42.1894 18.818 41.2654 18.9953 40.3739C19.1726 39.4824 19.6103 38.6635 20.2531 38.0207C20.8958 37.378 21.7147 36.9403 22.6062 36.7629C23.4977 36.5856 24.4218 36.6766 25.2616 37.0245C26.1013 37.3723 26.8191 37.9614 27.3241 38.7172C27.8291 39.4729 28.0986 40.3615 28.0986 41.2705C28.0986 42.4894 27.6144 43.6583 26.7526 44.5202C25.8907 45.3821 24.7217 45.8663 23.5028 45.8663Z" fill="#0D4C8F" stroke="#0D4C8F" stroke-width="0.6"/>
</svg>
