<svg width="47" height="48" viewBox="0 0 47 48" fill="none" xmlns="http://www.w3.org/2000/svg">
<rect x="17" width="30" height="30" rx="5" fill="#20C897"/>
<path d="M37 33.4643H31.7143V28.1786H29.0714V40.0714H7.92857V18.9286H19.8214V16.2857H14.5357V11H11.8929V16.2857H7.92857C7.22786 16.2864 6.55604 16.5651 6.06056 17.0606C5.56508 17.556 5.28641 18.2279 5.28571 18.9286V22.8929H0V25.5357H5.28571V33.4643H0V36.1071H5.28571V40.0714C5.28641 40.7721 5.56508 41.444 6.06056 41.9394C6.55604 42.4349 7.22786 42.7136 7.92857 42.7143H11.8929V48H14.5357V42.7143H22.4643V48H25.1071V42.7143H29.0714C29.772 42.7132 30.4436 42.4345 30.9391 41.9391C31.4345 41.4436 31.7132 40.772 31.7143 40.0714V36.1071H37V33.4643Z" fill="#0D4C8F"/>
<path d="M31.7143 11C30.3128 11.0014 28.9692 11.5587 27.9782 12.5497C26.9873 13.5407 26.4299 14.8843 26.4285 16.2857C26.4335 17.2267 26.6923 18.1489 27.1778 18.955L23.2386 22.8929H11.8928V36.1071H25.1071V24.7614L29.045 20.8235C29.8512 21.3085 30.7734 21.5669 31.7143 21.5714C33.1161 21.5714 34.4606 21.0145 35.4518 20.0233C36.4431 19.032 37 17.6876 37 16.2857C37 14.8839 36.4431 13.5394 35.4518 12.5482C34.4606 11.5569 33.1161 11 31.7143 11ZM22.4643 33.4643H14.5357V25.5357H22.4643V33.4643ZM31.7143 18.9286C31.1915 18.9286 30.6806 18.7736 30.246 18.4832C29.8113 18.1928 29.4726 17.78 29.2726 17.2971C29.0725 16.8142 29.0202 16.2828 29.1222 15.7701C29.2242 15.2575 29.4759 14.7865 29.8455 14.4169C30.2151 14.0473 30.686 13.7956 31.1987 13.6936C31.7113 13.5917 32.2427 13.644 32.7256 13.844C33.2085 14.0441 33.6213 14.3828 33.9117 14.8174C34.2021 15.252 34.3571 15.763 34.3571 16.2857C34.3564 16.9864 34.0777 17.6582 33.5823 18.1537C33.0868 18.6492 32.415 18.9279 31.7143 18.9286Z" fill="#0D4C8F"/>
</svg>
