<svg width="50" height="53" viewBox="0 0 50 53" fill="none" xmlns="http://www.w3.org/2000/svg">
<rect x="20.668" width="28.5714" height="30" rx="5" fill="#20C897"/>
<path d="M12.8317 34.6665C12.0314 34.6677 11.241 34.8435 10.5157 35.1817C9.79037 35.5199 9.14759 36.0123 8.63221 36.6245C8.11683 37.2367 7.74126 37.9541 7.53172 38.7264C7.32218 39.4988 7.28372 40.3076 7.41901 41.0963C7.5543 41.8851 7.8601 42.6348 8.31505 43.2932C8.77 43.9516 9.36314 44.5027 10.0531 44.9082C10.743 45.3137 11.5132 45.5638 12.3097 45.6409C13.1063 45.718 13.9101 45.6204 14.665 45.3548" stroke="#0D4C8F" stroke-width="3" stroke-linecap="round" stroke-linejoin="round"/>
<path d="M7.81636 37.6092C6.71923 37.081 5.77088 36.288 5.05692 35.3016C4.34296 34.3152 3.88585 33.1666 3.72685 31.9593C3.56785 30.7521 3.71197 29.5243 4.14619 28.3867C4.58041 27.2491 5.29107 26.2375 6.21403 25.4432M6.26903 25.2947C5.66777 24.395 5.40425 23.3116 5.5251 22.2362C5.64595 21.1609 6.14339 20.163 6.92935 19.4192C7.71531 18.6754 8.7391 18.2336 9.81947 18.1722C10.8998 18.1107 11.9671 18.4335 12.8324 19.0834M13.2687 19.2026C12.9762 18.5811 12.8272 17.9019 12.8325 17.2152C12.8378 16.5284 12.9975 15.8516 13.2996 15.2348C13.6017 14.618 14.0385 14.077 14.5778 13.6517C15.1171 13.2265 15.7451 12.9279 16.4154 12.778C17.0856 12.6281 17.781 12.6307 18.4501 12.7857C19.1191 12.9407 19.7448 13.2441 20.2809 13.6734C20.817 14.1028 21.2497 14.6471 21.5471 15.2662C21.8445 15.8853 21.9989 16.5633 21.999 17.2501V45.6667C21.999 46.6392 21.6127 47.5718 20.9251 48.2595C20.2375 48.9471 19.3048 49.3334 18.3324 49.3334C17.3599 49.3334 16.4273 48.9471 15.7396 48.2595C15.052 47.5718 14.6657 46.6392 14.6657 45.6667M21.999 21.8334C21.999 23.2921 22.5785 24.691 23.6099 25.7225C24.6414 26.7539 26.0403 27.3334 27.499 27.3334M31.1657 34.6667C31.966 34.6679 32.7563 34.8437 33.4817 35.1819C34.207 35.5201 34.8498 36.0125 35.3651 36.6247C35.8805 37.237 36.2561 37.9543 36.4656 38.7266C36.6752 39.499 36.7136 40.3078 36.5783 41.0965C36.443 41.8853 36.1372 42.635 35.6823 43.2934C35.2273 43.9518 34.6342 44.503 33.9443 44.9085C33.2543 45.3139 32.4842 45.564 31.6876 45.6411C30.8911 45.7183 30.0873 45.6206 29.3324 45.3551" stroke="#0D4C8F" stroke-width="3" stroke-linecap="round" stroke-linejoin="round"/>
<path d="M36.1827 37.6092C37.2798 37.081 38.2281 36.288 38.9421 35.3016C39.6561 34.3152 40.1132 33.1666 40.2722 31.9593C40.4312 30.7521 40.2871 29.5243 39.8528 28.3867C39.4186 27.2491 38.708 26.2375 37.785 25.4432M37.73 25.2947C38.3313 24.395 38.5948 23.3116 38.4739 22.2362C38.3531 21.1609 37.8556 20.163 37.0697 19.4192C36.2837 18.6754 35.2599 18.2336 34.1796 18.1722C33.0992 18.1107 32.0319 18.4335 31.1667 19.0834M22 17.2501C22.0001 16.5633 22.1546 15.8853 22.452 15.2662C22.7494 14.6471 23.1821 14.1028 23.7181 13.6734C24.2542 13.2441 24.8799 12.9407 25.549 12.7857C26.2181 12.6307 26.9134 12.6281 27.5837 12.778C28.2539 12.9279 28.8819 13.2265 29.4212 13.6517C29.9605 14.077 30.3974 14.618 30.6995 15.2348C31.0016 15.8516 31.1612 16.5284 31.1665 17.2152C31.1719 17.9019 31.0228 18.5811 30.7303 19.2026M29.3333 45.6667C29.3333 46.6392 28.947 47.5718 28.2594 48.2595C27.5718 48.9471 26.6391 49.3334 25.6667 49.3334C24.6942 49.3334 23.7616 48.9471 23.0739 48.2595C22.3863 47.5718 22 46.6392 22 45.6667" stroke="#0D4C8F" stroke-width="3" stroke-linecap="round" stroke-linejoin="round"/>
</svg>
