<svg width="54" height="52" viewBox="0 0 54 52" fill="none" xmlns="http://www.w3.org/2000/svg">
<rect x="24.6172" width="28.5714" height="30" rx="5" fill="#20C897"/>
<path fill-rule="evenodd" clip-rule="evenodd" d="M31.2513 18.1668C31.2513 18.443 31.4752 18.6668 31.7513 18.6668H39.0846C39.3608 18.6668 39.5846 18.8907 39.5846 19.1668V43.1668C39.5846 43.443 39.3608 43.6668 39.0846 43.6668H10.918C10.6418 43.6668 10.418 43.443 10.418 43.1668V23.3335C10.418 23.0574 10.6418 22.8335 10.918 22.8335H18.2513C18.5274 22.8335 18.7513 22.6096 18.7513 22.3335V10.8335C18.7513 10.5574 18.9752 10.3335 19.2513 10.3335H30.7513C31.0274 10.3335 31.2513 10.5574 31.2513 10.8335V18.1668ZM27.0846 15.0002C27.0846 14.724 26.8608 14.5002 26.5846 14.5002H23.418C23.1418 14.5002 22.918 14.724 22.918 15.0002V39.0002C22.918 39.2763 23.1418 39.5002 23.418 39.5002H26.5846C26.8608 39.5002 27.0846 39.2763 27.0846 39.0002V15.0002ZM31.7513 22.8335C31.4752 22.8335 31.2513 23.0574 31.2513 23.3335V39.0002C31.2513 39.2763 31.4752 39.5002 31.7513 39.5002H34.918C35.1941 39.5002 35.418 39.2763 35.418 39.0002V23.3335C35.418 23.0574 35.1941 22.8335 34.918 22.8335H31.7513ZM18.2513 27.0002C18.5274 27.0002 18.7513 27.224 18.7513 27.5002V39.0002C18.7513 39.2763 18.5274 39.5002 18.2513 39.5002H15.0846C14.8085 39.5002 14.5846 39.2763 14.5846 39.0002V27.5002C14.5846 27.224 14.8085 27.0002 15.0846 27.0002H18.2513Z" fill="#0D4C8F"/>
</svg>
