<svg width="55" height="56" viewBox="0 0 55 56" fill="none" xmlns="http://www.w3.org/2000/svg">
<rect x="25.668" width="28.5714" height="30" rx="5" fill="#20C897"/>
<path d="M10.0066 12.5337L7.93859 14.5988L11.0156 17.6743L13.0807 15.6093L10.0066 12.5337ZM36.9949 12.5337L33.9178 15.6093L35.9844 17.6743L39.0599 14.6002L36.9949 12.5337ZM23.5 13.4502C23.0153 13.4561 22.5247 13.484 22.0312 13.5442C22.0166 13.5442 22.0019 13.5413 21.9872 13.5442C16.0299 14.2272 11.2888 19.0403 10.4648 24.9711C9.80684 29.7445 11.775 34.0729 15.0547 36.8606C16.3963 38.0056 17.3037 39.5767 17.625 41.3109V50.1234H20.9737C21.4849 51.0003 22.4175 51.5922 23.5 51.5922C24.5825 51.5922 25.5151 51.0003 26.0262 50.1234H29.375V44.2484H29.5131V42.5035C29.5131 40.3503 30.6322 38.1795 32.4506 36.4919C34.8828 34.0568 36.7188 30.5978 36.7188 26.6249C36.7188 19.3693 30.7468 13.3826 23.5 13.4502ZM23.5 16.3877C29.1767 16.3084 33.7812 20.9555 33.7812 26.6249C33.7812 29.7004 32.3566 32.4088 30.384 34.3799L30.431 34.4269C28.4708 36.2345 27.2033 38.6698 26.8473 41.3124H20.423C20.0998 38.7949 19.0203 36.3583 16.9802 34.6105C14.3849 32.4073 12.8383 29.088 13.3553 25.3397C13.9972 20.7132 17.7513 16.9928 22.3514 16.4832C22.7312 16.4302 23.1137 16.3988 23.4971 16.3892L23.5 16.3877ZM2.9375 26.6249V29.5624H7.34375V26.6249H2.9375ZM39.6562 26.6249V29.5624H44.0625V26.6249H39.6562ZM11.0156 38.5129L7.94006 41.587L10.0066 43.6536L13.0792 40.578L11.0156 38.5129ZM35.9844 38.5129L33.9193 40.578L36.9934 43.6536L39.0599 41.587L35.9844 38.5129ZM20.5625 44.2499H26.4375V47.1874H20.5625V44.2499Z" fill="#0D4C8F"/>
</svg>
