<svg width="55" height="56" viewBox="0 0 55 56" fill="none" xmlns="http://www.w3.org/2000/svg">
<rect x="25" width="30" height="30" rx="5" fill="#20C897"/>
<g clip-path="url(#clip0_2061_3807)">
<g clip-path="url(#clip1_2061_3807)">
<g clip-path="url(#clip2_2061_3807)">
<path d="M7.27344 53.437C7.28433 52.3922 7.55991 51.3673 8.07444 50.458C8.61612 49.5118 9.39657 48.7244 10.3378 48.1742C11.2791 47.6241 12.3482 47.3306 13.4384 47.323C14.5281 47.3311 15.5966 47.6249 16.5373 48.175C17.478 48.7251 18.258 49.5123 18.7994 50.458C19.3154 51.367 19.5884 52.393 19.6004 53.437M28.4084 53.437C28.4193 52.3922 28.6949 51.3673 29.2094 50.458C29.7509 49.5123 30.5308 48.7251 31.4715 48.175C32.4122 47.6249 33.4807 47.3311 34.5704 47.323C36.1955 47.3253 37.7541 47.9681 38.9082 49.1121C40.0623 50.2561 40.7189 51.809 40.7354 53.434M18.0224 33.154C18.0314 32.143 18.2984 31.15 18.7964 30.268C19.3216 29.3504 20.0785 28.5868 20.9914 28.0535C21.9043 27.5201 22.9412 27.2358 23.9984 27.229C26.1284 27.232 28.1474 28.411 29.1974 30.268C29.6954 31.15 29.9624 32.143 29.9744 33.154M13.4384 44.599C14.3467 44.599 15.2177 44.2382 15.8599 43.596C16.5021 42.9537 16.8629 42.0827 16.8629 41.1745C16.8629 40.2662 16.5021 39.3952 15.8599 38.753C15.2177 38.1108 14.3467 37.75 13.4384 37.75C12.5302 37.75 11.6592 38.1108 11.017 38.753C10.3747 39.3952 10.0139 40.2662 10.0139 41.1745C10.0139 42.0827 10.3747 42.9537 11.017 43.596C11.6592 44.2382 12.5302 44.599 13.4384 44.599ZM34.5734 44.599C35.4817 44.599 36.3527 44.2382 36.9949 43.596C37.6371 42.9537 37.9979 42.0827 37.9979 41.1745C37.9979 40.2662 37.6371 39.3952 36.9949 38.753C36.3527 38.1108 35.4817 37.75 34.5734 37.75C33.6652 37.75 32.7942 38.1108 32.1519 38.753C31.5097 39.3952 31.1489 40.2662 31.1489 41.1745C31.1489 42.0827 31.5097 42.9537 32.1519 43.596C32.7942 44.2382 33.6652 44.599 34.5734 44.599ZM23.9954 25.141C24.8428 25.141 25.6555 24.8044 26.2546 24.2052C26.8538 23.606 27.1904 22.7933 27.1904 21.946C27.1904 21.0986 26.8538 20.2859 26.2546 19.6868C25.6555 19.0876 24.8428 18.751 23.9954 18.751C23.1481 18.751 22.3354 19.0876 21.7362 19.6868C21.1371 20.2859 20.8004 21.0986 20.8004 21.946C20.8004 22.7933 21.1371 23.606 21.7362 24.2052C22.3354 24.8044 23.1481 25.141 23.9954 25.141Z" stroke="#0D4C8F" stroke-width="4" stroke-linecap="round" stroke-linejoin="round"/>
<path d="M38.346 14.6348H9.654C9.08272 14.6348 8.53485 14.8617 8.13089 15.2657C7.72694 15.6696 7.5 16.2175 7.5 16.7888V30.9998C7.5 32.1908 8.466 33.1538 9.654 33.1538H38.346C38.9173 33.1538 39.4652 32.9268 39.8691 32.5229C40.2731 32.1189 40.5 31.571 40.5 30.9998V16.7888C40.5 16.2175 40.2731 15.6696 39.8691 15.2657C39.4652 14.8617 38.9173 14.6348 38.346 14.6348Z" stroke="#0D4C8F" stroke-width="4" stroke-linecap="round" stroke-linejoin="round"/>
</g>
</g>
</g>
<defs>
<clipPath id="clip0_2061_3807">
<rect width="49" height="49" fill="white" transform="translate(0 7)"/>
</clipPath>
<clipPath id="clip1_2061_3807">
<rect width="44" height="44" fill="white" transform="translate(1 11)"/>
</clipPath>
<clipPath id="clip2_2061_3807">
<rect width="42" height="42" fill="white" transform="translate(3 13)"/>
</clipPath>
</defs>
</svg>
