<svg width="42" height="48" viewBox="0 0 42 48" fill="none" xmlns="http://www.w3.org/2000/svg">
<rect x="12" width="30" height="30" rx="5" fill="#20C897"/>
<path d="M21.4054 11H2.59459C1.16351 11 0 12.1852 0 13.6429V45.3571C0 46.8148 1.16351 48 2.59459 48H21.4054C22.8365 48 24 46.8148 24 45.3571V13.6429C24 12.1852 22.8365 11 21.4054 11ZM21.0811 45.0268H2.91892V13.9732H21.0811V45.0268ZM10.3784 40.8147C10.3784 41.2528 10.5492 41.673 10.8533 41.9827C11.1575 42.2925 11.5699 42.4665 12 42.4665C12.4301 42.4665 12.8425 42.2925 13.1467 41.9827C13.4508 41.673 13.6216 41.2528 13.6216 40.8147C13.6216 40.3766 13.4508 39.9565 13.1467 39.6467C12.8425 39.337 12.4301 39.1629 12 39.1629C11.5699 39.1629 11.1575 39.337 10.8533 39.6467C10.5492 39.9565 10.3784 40.3766 10.3784 40.8147Z" fill="#0D4C8F"/>
</svg>
