<svg width="42" height="47" viewBox="0 0 42 47" fill="none" xmlns="http://www.w3.org/2000/svg">
<rect x="11.75" width="29.375" height="29.375" rx="2.61905" fill="#20C897"/>
<path d="M20.9595 10.7705H2.54054C1.13927 10.7705 0 11.931 0 13.3583V44.4119C0 45.8392 1.13927 46.9997 2.54054 46.9997H20.9595C22.3607 46.9997 23.5 45.8392 23.5 44.4119V13.3583C23.5 11.931 22.3607 10.7705 20.9595 10.7705ZM20.6419 44.0884H2.85811V13.6818H20.6419V44.0884ZM10.1622 39.9641C10.1622 40.3931 10.3295 40.8044 10.6272 41.1078C10.925 41.4111 11.3289 41.5815 11.75 41.5815C12.1711 41.5815 12.575 41.4111 12.8728 41.1078C13.1705 40.8044 13.3378 40.3931 13.3378 39.9641C13.3378 39.5351 13.1705 39.1238 12.8728 38.8204C12.575 38.5171 12.1711 38.3467 11.75 38.3467C11.3289 38.3467 10.925 38.5171 10.6272 38.8204C10.3295 39.1238 10.1622 39.5351 10.1622 39.9641Z" fill="white"/>
</svg>
