<svg width="53" height="57" viewBox="0 0 53 57" fill="none" xmlns="http://www.w3.org/2000/svg">
<rect x="23.666" width="28.5714" height="30" rx="5" fill="#20C897"/>
<path d="M36.896 46.4585H40.7294C41.0936 46.4586 41.4442 46.597 41.7103 46.8456C41.9764 47.0943 42.1383 47.4347 42.1631 47.798C42.1879 48.1614 42.0739 48.5206 41.8441 48.8032C41.6142 49.0857 41.2857 49.2704 40.9249 49.3201L40.7294 49.3335H38.3335V51.7293C38.3334 52.0935 38.1951 52.4441 37.9464 52.7103C37.6978 52.9764 37.3574 53.1382 36.994 53.163C36.6307 53.1879 36.2714 53.0738 35.9889 52.844C35.7064 52.6142 35.5216 52.2856 35.472 51.9248L35.4585 51.7293V47.896C35.4586 47.5486 35.5844 47.213 35.8127 46.9512C36.041 46.6894 36.3564 46.5192 36.7005 46.4719L36.896 46.4585ZM5.27105 46.4585H9.10438C9.45175 46.4585 9.78737 46.5843 10.0492 46.8126C10.311 47.041 10.4812 47.3564 10.5285 47.7005L10.5419 47.896V51.7293C10.5418 52.0935 10.4034 52.4441 10.1548 52.7103C9.90612 52.9764 9.56572 53.1382 9.20236 53.163C8.83899 53.1879 8.47975 53.0738 8.19722 52.844C7.91469 52.6142 7.72994 52.2856 7.6803 51.9248L7.66688 51.7293V49.3335H5.27105C4.90683 49.3334 4.55624 49.195 4.29011 48.9464C4.02398 48.6977 3.86215 48.3573 3.83733 47.994C3.81251 47.6306 3.92653 47.2714 4.15637 46.9888C4.38622 46.7063 4.71473 46.5216 5.07555 46.4719L5.27105 46.4585ZM32.1044 21.5476C32.4856 21.5476 32.8513 21.699 33.1208 21.9686C33.3904 22.2382 33.5419 22.6038 33.5419 22.9851V45.021C33.5419 45.4022 33.3904 45.7679 33.1208 46.0375C32.8513 46.307 32.4856 46.4585 32.1044 46.4585H13.8999C13.5186 46.4585 13.153 46.307 12.8834 46.0375C12.6138 45.7679 12.4624 45.4022 12.4624 45.021V22.9851C12.4624 22.6038 12.6138 22.2382 12.8834 21.9686C13.153 21.699 13.5186 21.5476 13.8999 21.5476H32.1044ZM30.6669 24.4226H15.3374V43.5835H30.6707L30.6669 24.4226ZM18.6877 34.9853H23.4832C23.8474 34.9854 24.198 35.1238 24.4641 35.3724C24.7303 35.6211 24.8921 35.9615 24.9169 36.3249C24.9418 36.6882 24.8277 37.0475 24.5979 37.33C24.368 37.6125 24.0395 37.7973 23.6787 37.8469L23.4832 37.8603H18.6877C18.3235 37.8602 17.9729 37.7219 17.7068 37.4732C17.4406 37.2246 17.2788 36.8842 17.254 36.5208C17.2292 36.1574 17.3432 35.7982 17.573 35.5157C17.8029 35.2331 18.1314 35.0484 18.4922 34.9987L18.6877 34.9853ZM18.6877 29.2085H27.3165C27.6808 29.2086 28.0313 29.347 28.2975 29.5956C28.5636 29.8443 28.7254 30.1847 28.7503 30.548C28.7751 30.9114 28.6611 31.2706 28.4312 31.5532C28.2014 31.8357 27.8729 32.0204 27.512 32.0701L27.3165 32.0835H18.6877C18.3235 32.0834 17.9729 31.945 17.7068 31.6964C17.4406 31.4477 17.2788 31.1073 17.254 30.744C17.2292 30.3806 17.3432 30.0214 17.573 29.7388C17.8029 29.4563 18.1314 29.2716 18.4922 29.2219L18.6877 29.2085ZM9.10438 14.8335C9.45175 14.8335 9.78737 14.9593 10.0492 15.1876C10.311 15.416 10.4812 15.7314 10.5285 16.0755L10.5419 16.271V20.1043C10.5419 20.4517 10.4161 20.7873 10.1877 21.0491C9.95942 21.3109 9.64402 21.4812 9.29988 21.5284L9.10438 21.5418H5.27105C4.90683 21.5417 4.55624 21.4034 4.29011 21.1547C4.02398 20.9061 3.86215 20.5657 3.83733 20.2023C3.81251 19.8389 3.92653 19.4797 4.15637 19.1972C4.38622 18.9146 4.71473 18.7299 5.07555 18.6802L5.27105 18.6668H7.66688V16.271C7.66688 15.8897 7.81833 15.5241 8.08791 15.2545C8.3575 14.9849 8.72313 14.8335 9.10438 14.8335ZM36.896 14.8335C37.2434 14.8335 37.579 14.9593 37.8408 15.1876C38.1026 15.416 38.2729 15.7314 38.3201 16.0755L38.3335 16.271V18.6668H40.7294C41.0936 18.6669 41.4442 18.8053 41.7103 19.0539C41.9764 19.3026 42.1383 19.643 42.1631 20.0063C42.1879 20.3697 42.0739 20.729 41.8441 21.0115C41.6142 21.294 41.2857 21.4788 40.9249 21.5284L40.7294 21.5418H36.896C36.5487 21.5418 36.2131 21.416 35.9513 21.1877C35.6895 20.9594 35.5192 20.644 35.472 20.2998L35.4585 20.1043V16.271C35.4585 15.8897 35.61 15.5241 35.8796 15.2545C36.1492 14.9849 36.5148 14.8335 36.896 14.8335Z" fill="#0D4C8F"/>
</svg>
