<svg width="53" height="58" viewBox="0 0 53 58" fill="none" xmlns="http://www.w3.org/2000/svg">
<rect x="23.668" width="28.5714" height="30" rx="5" fill="#20C897"/>
<path d="M13.125 45.25H16.875C17.0813 45.25 17.25 45.0812 17.25 44.875V23.125C17.25 22.9187 17.0813 22.75 16.875 22.75H13.125C12.9187 22.75 12.75 22.9187 12.75 23.125V44.875C12.75 45.0812 12.9187 45.25 13.125 45.25ZM22.125 32.125H25.875C26.0812 32.125 26.25 31.9562 26.25 31.75V23.125C26.25 22.9187 26.0812 22.75 25.875 22.75H22.125C21.9188 22.75 21.75 22.9187 21.75 23.125V31.75C21.75 31.9562 21.9188 32.125 22.125 32.125ZM31.125 35.5H34.875C35.0812 35.5 35.25 35.3312 35.25 35.125V23.125C35.25 22.9187 35.0812 22.75 34.875 22.75H31.125C30.9188 22.75 30.75 22.9187 30.75 23.125V35.125C30.75 35.3312 30.9188 35.5 31.125 35.5ZM41.25 15.25H6.75C5.92031 15.25 5.25 15.9203 5.25 16.75V51.25C5.25 52.0797 5.92031 52.75 6.75 52.75H41.25C42.0797 52.75 42.75 52.0797 42.75 51.25V16.75C42.75 15.9203 42.0797 15.25 41.25 15.25ZM39.375 49.375H8.625V18.625H39.375V49.375Z" fill="#0D4C8F"/>
</svg>
