<svg width="52" height="47" viewBox="0 0 52 47" fill="none" xmlns="http://www.w3.org/2000/svg">
<rect x="22.6172" width="28.5714" height="30" rx="5" fill="#20C897"/>
<path d="M36.6654 12H3.33203V22H4.9987V40.3333C4.9987 41.2174 5.34989 42.0652 5.97501 42.6904C6.60013 43.3155 7.44798 43.6667 8.33203 43.6667H31.6654C32.5494 43.6667 33.3973 43.3155 34.0224 42.6904C34.6475 42.0652 34.9987 41.2174 34.9987 40.3333V22H36.6654V12ZM6.66536 15.3333H33.332V18.6667H6.66536V15.3333ZM31.6654 40.3333H8.33203V22H31.6654V40.3333ZM28.332 25.3333V35.3333H24.9987V31.0167L19.5154 36.5L17.1654 34.15L22.6487 28.6667H18.332V25.3333H28.332Z" fill="#0D4C8F"/>
</svg>
