<svg width="51" height="47" viewBox="0 0 51 47" fill="none" xmlns="http://www.w3.org/2000/svg">
<rect x="21.6172" width="28.5714" height="30" rx="5" fill="#20C897"/>
<path d="M17.5 34.4326C16.6334 34.3359 15.781 34.1387 14.96 33.8451C14.985 33.2551 14.9983 32.6401 15 32.0001V31.1576C15.775 31.5276 16.6175 31.7851 17.5 31.9126V25.7501C17.5 24.7556 17.8951 23.8017 18.5983 23.0985C19.3016 22.3952 20.2554 22.0001 21.25 22.0001H27.4125C27.2131 20.6148 26.6844 19.2976 25.8706 18.1589C25.0568 17.0203 23.9818 16.0934 22.7357 15.4562C21.4897 14.819 20.1089 14.4899 18.7094 14.4967C17.3098 14.5035 15.9323 14.8459 14.6925 15.4951C14.4945 14.6775 14.1689 13.8963 13.7275 13.1801C15.3482 12.3712 17.1402 11.9655 18.9513 11.9977C20.7623 12.0298 22.5388 12.4988 24.1298 13.3647C25.7208 14.2306 27.0791 15.4679 28.0894 16.9713C29.0996 18.4748 29.7319 20.1999 29.9325 22.0001H33.75C34.7446 22.0001 35.6984 22.3952 36.4016 23.0985C37.1049 23.8017 37.5 24.7556 37.5 25.7501V38.2501C37.5 39.2447 37.1049 40.1985 36.4016 40.9018C35.6984 41.605 34.7446 42.0001 33.75 42.0001H21.25C20.2554 42.0001 19.3016 41.605 18.5983 40.9018C17.8951 40.1985 17.5 39.2447 17.5 38.2501V34.4326ZM29.9325 24.5001C29.6493 27.037 28.5118 29.4021 26.7069 31.207C24.9019 33.012 22.5368 34.1494 20 34.4326V38.2501C20 38.5816 20.1317 38.8996 20.3661 39.134C20.6005 39.3684 20.9185 39.5001 21.25 39.5001H33.75C34.0815 39.5001 34.3995 39.3684 34.6339 39.134C34.8683 38.8996 35 38.5816 35 38.2501V25.7501C35 25.4186 34.8683 25.1007 34.6339 24.8662C34.3995 24.6318 34.0815 24.5001 33.75 24.5001H29.9325ZM27.4125 24.5001H21.25C20.9185 24.5001 20.6005 24.6318 20.3661 24.8662C20.1317 25.1007 20 25.4186 20 25.7501V31.9126C21.8703 31.6431 23.603 30.7754 24.9391 29.4393C26.2753 28.1031 27.143 26.3704 27.4125 24.5001ZM11.9875 25.9026C11.725 24.9376 11.3 23.9701 10.57 23.2276C11.75 22.1101 12.5 20.3301 12.5 18.2501C12.5 16.5076 12.1475 15.3101 11.51 14.3526C11.2263 13.9414 10.8995 13.5618 10.535 13.2201L10.11 12.8201C9.9575 12.6776 9.8175 12.5476 9.635 12.3651C9.26 11.9901 9.2175 11.6901 9.2175 11.5326C9.21651 11.445 9.23089 11.3578 9.26 11.2751C9.3743 11.0279 9.40475 10.7502 9.34672 10.4841C9.28868 10.218 9.14534 9.97819 8.93849 9.80105C8.73164 9.62391 8.4726 9.51917 8.20076 9.50276C7.92892 9.48635 7.65916 9.55916 7.4325 9.71013L7.4275 9.71263L7.42 9.71763L7.3975 9.73263L7.3225 9.78263L7.0675 9.97013C6.78463 10.1845 6.50946 10.4088 6.2425 10.6426C5.6125 11.1926 4.8 12.0101 4.2225 12.9851C3.71773 13.7931 3.31309 14.6595 3.0175 15.5651C2.7175 16.4626 2.5 17.4351 2.5 18.2501C2.5 20.3301 3.25 22.1076 4.43 23.2301C3.7 23.9701 3.275 24.9376 3.0125 25.9051C2.5 27.7851 2.5 30.1101 2.5 31.9076V32.0001C2.5 37.1451 3.4625 40.2001 4.5525 42.0176C5.1 42.9276 5.67 43.5151 6.1475 43.8851C6.40263 44.0826 6.67941 44.2503 6.9725 44.3851C7.14233 44.4471 7.31978 44.4858 7.5 44.5001C7.71 44.5001 8.0275 44.3851 8.0275 44.3851C8.32059 44.2503 8.59737 44.0826 8.8525 43.8851C9.3275 43.5151 9.9025 42.9276 10.4475 42.0176C11.5375 40.2026 12.5 37.1451 12.5 32.0001V31.9101C12.5 30.1101 12.5 27.7876 11.9875 25.9026ZM6.2175 24.9776C6.5 24.6926 6.8775 24.5001 7.5 24.5001C8.125 24.5001 8.5 24.6951 8.7825 24.9751C9.0975 25.2926 9.37 25.8076 9.575 26.5601C9.99 28.0876 10 30.0926 10 32.0001C10 36.8551 9.0875 39.4251 8.3025 40.7326C8.0025 41.2326 7.72 41.5551 7.5 41.7576C7.18898 41.4524 6.91919 41.1078 6.6975 40.7326C5.9125 39.4226 5 36.8551 5 32.0001C5 30.0926 5.01 28.0876 5.425 26.5601C5.63 25.8101 5.9025 25.2951 6.2175 24.9776ZM7.5 22.0001C6.5375 22.0001 5 20.9301 5 18.2501C5 17.8176 5.13 17.1326 5.39 16.3576C5.62633 15.6257 5.95302 14.9262 6.3625 14.2751C6.58 13.9076 6.8625 13.5501 7.1675 13.2226C7.3375 13.5293 7.57083 13.8335 7.8675 14.1351C8.05 14.3176 8.2875 14.5376 8.49 14.7276L8.8 15.0176C9.0625 15.2726 9.265 15.4951 9.4275 15.7426C9.7275 16.1901 10 16.8676 10 18.2501C10 20.9301 8.4625 22.0001 7.5 22.0001Z" fill="#0D4C8F" stroke="#0D4C8F" stroke-width="0.5"/>
</svg>
