<svg width="55" height="56" viewBox="0 0 55 56" fill="none" xmlns="http://www.w3.org/2000/svg">
<rect x="25" width="30" height="30" rx="5" fill="#20C897"/>
<path d="M32.8665 47.833V47.633H32.6665H28.7832V43.9497H42.8748C44.0087 43.9497 45.1012 43.5007 45.8951 42.6865C46.7093 41.8927 47.1582 40.8002 47.1582 39.6663V15.1663C47.1582 14.0303 46.7069 12.9408 45.9036 12.1376C45.1003 11.3343 44.0108 10.883 42.8748 10.883H6.12484C3.74813 10.883 1.8415 12.7896 1.8415 15.1663V39.6663C1.8415 40.8002 2.29042 41.8927 3.10465 42.6865C3.89848 43.5008 4.991 43.9497 6.12484 43.9497H20.2165V47.633H16.3332H16.1332V47.833V51.9163V52.1163H16.3332H32.6665H32.8665V51.9163V47.833ZM21.9924 25.088L21.9923 25.088L21.9878 25.0927C21.3415 25.7605 20.9515 26.6671 20.9515 27.6001C20.9515 28.5541 21.3419 29.4401 21.9878 30.1075L21.9877 30.1076L21.9924 30.1121C22.6603 30.7585 23.5668 31.1484 24.4998 31.1484C25.4301 31.1484 26.3387 30.7808 27.0096 30.1098L27.0119 30.1075C27.6578 29.4401 28.0482 28.5541 28.0482 27.6001C28.0482 26.6676 27.6585 25.7597 27.0096 25.1108C26.3386 24.4397 25.4313 24.0734 24.5045 24.0518L24.5045 24.0518H24.4998C23.5668 24.0518 22.6603 24.4417 21.9924 25.088ZM20.7035 31.3609L20.7035 31.3609L20.6994 31.3569C19.6967 30.3738 19.1261 29.0166 19.1261 27.6001C19.1261 26.1832 19.6971 24.8049 20.7008 23.8011C21.7046 22.7973 23.0829 22.2263 24.4998 22.2263C25.9167 22.2263 27.2951 22.7973 28.2988 23.8011C29.3026 24.8049 29.8736 26.1832 29.8736 27.6001C29.8736 29.0166 29.303 30.3738 28.3002 31.3569L28.3002 31.3568L28.2962 31.3609C27.8044 31.8714 27.2148 32.2774 26.5625 32.5547C25.9102 32.8321 25.2086 32.975 24.4998 32.975C23.791 32.975 23.0895 32.8321 22.4372 32.5547C21.7849 32.2774 21.1952 31.8714 20.7035 31.3609ZM12.0637 27.5269L12.0351 27.5998L24.4998 35.9505L24.4993 36.1505C24.4995 36.1505 24.4997 36.1505 24.4998 36.1505C27.1862 36.1578 29.8118 35.3519 32.0315 33.8389C34.2513 32.3257 35.9612 30.176 36.9362 27.6727L36.9646 27.5997L36.936 27.5269C34.9878 22.5736 30.1588 19.0497 24.4998 19.0497H24.4998C21.8154 19.0508 19.1935 19.86 16.9755 21.372C14.7574 22.884 13.0459 25.0287 12.0637 27.5269ZM6.32484 39.4663V15.3663H42.6748V39.4663H6.32484Z" fill="#0D4C8F" stroke="#0D4C8F" stroke-width="0.4"/>
</svg>
