<svg width="54" height="58" viewBox="0 0 54 58" fill="none" xmlns="http://www.w3.org/2000/svg">
<rect x="24" width="30" height="30" rx="5" fill="#20C897"/>
<path d="M12.8947 12.9473H7.94737C6.63524 12.9473 5.37686 13.4685 4.44905 14.3963C3.52124 15.3241 3 16.5825 3 17.8946V47.5788C3 48.891 3.52124 50.1494 4.44905 51.0772C5.37686 52.005 6.63524 52.5262 7.94737 52.5262H22.0399M37.6316 35.2104V45.1052H47.5263M37.6316 27.7894V17.8946C37.6316 16.5825 37.1103 15.3241 36.1825 14.3963C35.2547 13.4685 33.9963 12.9473 32.6842 12.9473H27.7368" stroke="#0D4C8F" stroke-width="5" stroke-linecap="round" stroke-linejoin="round"/>
<path d="M12.8945 27.7895H22.7893M12.8945 37.6842H20.3156M12.8945 12.9474C12.8945 11.6352 13.4158 10.3769 14.3436 9.44905C15.2714 8.52124 16.5298 8 17.8419 8H22.7893C24.1014 8 25.3598 8.52124 26.2876 9.44905C27.2154 10.3769 27.7366 11.6352 27.7366 12.9474C27.7366 14.2595 27.2154 15.5179 26.2876 16.4457C25.3598 17.3735 24.1014 17.8947 22.7893 17.8947H17.8419C16.5298 17.8947 15.2714 17.3735 14.3436 16.4457C13.4158 15.5179 12.8945 14.2595 12.8945 12.9474ZM27.7366 45.1053C27.7366 47.7295 28.7791 50.2463 30.6347 52.1019C32.4904 53.9575 35.0071 55 37.6314 55C40.2556 55 42.7724 53.9575 44.628 52.1019C46.4836 50.2463 47.5261 47.7295 47.5261 45.1053C47.5261 42.481 46.4836 39.9643 44.628 38.1086C42.7724 36.253 40.2556 35.2105 37.6314 35.2105C35.0071 35.2105 32.4904 36.253 30.6347 38.1086C28.7791 39.9643 27.7366 42.481 27.7366 45.1053Z" stroke="#0D4C8F" stroke-width="5" stroke-linecap="round" stroke-linejoin="round"/>
</svg>
