<svg width="52" height="56" viewBox="0 0 53 58" fill="none" xmlns="http://www.w3.org/2000/svg">
<rect x="23" width="30" height="30" rx="5" fill="#20C897"/>
<path d="M22.9999 29.2791C25.3843 29.2791 27.7151 28.572 29.6976 27.2474C31.6801 25.9227 33.2253 24.0399 34.1378 21.837C35.0502 19.6341 35.289 17.2102 34.8238 14.8716C34.3586 12.5331 33.2105 10.385 31.5245 8.69896C29.8385 7.01296 27.6904 5.86478 25.3518 5.39962C23.0133 4.93445 20.5893 5.17319 18.3864 6.08565C16.1836 6.99811 14.3007 8.5433 12.9761 10.5258C11.6514 12.5083 10.9443 14.8392 10.9443 17.2235C10.9443 20.4209 12.2145 23.4872 14.4753 25.7481C16.7362 28.0089 19.8026 29.2791 22.9999 29.2791ZM22.9999 8.61242C24.703 8.61242 26.3679 9.11745 27.784 10.0637C29.2001 11.0099 30.3038 12.3547 30.9555 13.9282C31.6073 15.5017 31.7778 17.2331 31.4455 18.9035C31.1133 20.5739 30.2931 22.1082 29.0889 23.3125C27.8846 24.5168 26.3502 25.3369 24.6798 25.6692C23.0094 26.0014 21.278 25.8309 19.7046 25.1792C18.1311 24.5274 16.7862 23.4237 15.84 22.0076C14.8938 20.5915 14.3888 18.9266 14.3888 17.2235C14.3888 14.9397 15.296 12.7495 16.9109 11.1346C18.5258 9.51966 20.7161 8.61242 22.9999 8.61242Z" fill="#0D4C8F" stroke="#0D4C8F" stroke-width="0.7"/>
<path d="M44.4761 41.9687C41.7142 39.0495 38.3859 36.7243 34.6948 35.1352C31.0037 33.5462 27.0272 32.7266 23.0086 32.7266C18.9899 32.7266 15.0135 33.5462 11.3224 35.1352C7.63126 36.7243 4.303 39.0495 1.54109 41.9687C0.942293 42.6082 0.609729 43.452 0.611088 44.3281V53.387C0.611088 54.3005 0.973984 55.1766 1.61994 55.8226C2.2659 56.4685 3.14201 56.8314 4.05553 56.8314H41.9444C42.8579 56.8314 43.7341 56.4685 44.38 55.8226C45.026 55.1766 45.3889 54.3005 45.3889 53.387V44.3281C45.3949 43.4543 45.0686 42.6109 44.4761 41.9687ZM41.9444 53.387H4.05553V44.3109C6.49631 41.7408 9.43453 39.6942 12.6914 38.2957C15.9482 36.8971 19.4556 36.1759 23 36.1759C26.5444 36.1759 30.0517 36.8971 33.3086 38.2957C36.5654 39.6942 39.5036 41.7408 41.9444 44.3109V53.387Z" fill="#0D4C8F" stroke="#0D4C8F" stroke-width="0.7"/>
</svg>
