<svg width="55" height="54" viewBox="0 0 55 54" fill="none" xmlns="http://www.w3.org/2000/svg">
<rect x="25.668" width="28.5714" height="30" rx="5" fill="#20C897"/>
<path d="M28 28V22C37.12 20.84 44 15.8 44 10H4C4 15.8 10.88 20.84 20 22V28C12.64 29.46 4 35.22 4 50H16V46H8.26C10.12 32.34 21.56 31.6 24 31.6C26.44 31.6 37.88 32.34 39.74 46H32V50H44C44 35.22 35.36 29.46 28 28ZM37.74 14C35 16.38 30 18.24 24 18.24C18 18.24 13 16.38 10.26 14H37.74ZM24 50C21.8 50 20 48.2 20 46C20 44.9 20.44 43.9 21.18 43.18C22.78 41.58 32 38 32 38C32 38 28.42 47.22 26.82 48.82C26.1 49.56 25.1 50 24 50Z" fill="#0D4C8F"/>
</svg>
