<svg width="50" height="56" viewBox="0 0 50 56" fill="none" xmlns="http://www.w3.org/2000/svg">
<rect x="20.668" width="28.5714" height="30" rx="5" fill="#20C897"/>
<path d="M12.9401 47.7295C15.8074 49.9882 19.3526 51.2138 23.0026 51.2083C26.8005 51.2083 30.2955 49.9088 33.0651 47.7295M18.2109 19.3408C11.5515 21.3869 6.71094 27.5863 6.71094 34.9166C6.71094 36.7614 7.0176 38.5343 7.58302 40.1874M27.7943 19.3408C34.4537 21.3869 39.2943 27.5863 39.2943 34.9166C39.2943 36.7614 38.9876 38.5343 38.4222 40.1874" stroke="#0D4C8F" stroke-width="4"/>
<path d="M41.2096 44.5001C41.2096 45.7861 40.7036 46.9534 39.8795 47.814C39.1098 48.618 38.0843 49.1291 36.9789 49.2594C35.8735 49.3897 34.7572 49.1311 33.8217 48.528C32.8862 47.9249 32.1898 47.015 31.8521 45.9544C31.5145 44.8938 31.5565 43.7487 31.9712 42.7158C32.3858 41.6828 33.147 40.8264 34.1243 40.2936C35.1015 39.7608 36.2338 39.5849 37.3266 39.7959C38.4195 40.007 39.4048 40.592 40.1133 41.4503C40.8219 42.3087 41.2095 43.387 41.2096 44.5001ZM14.3763 44.5001C14.3763 45.7861 13.8703 46.9534 13.0461 47.814C12.2765 48.618 11.2509 49.1291 10.1455 49.2594C9.04013 49.3897 7.92386 49.1311 6.98836 48.528C6.05285 47.9249 5.35648 47.015 5.0188 45.9544C4.68113 44.8938 4.7232 43.7487 5.13782 42.7158C5.55243 41.6828 6.31371 40.8264 7.29095 40.2936C8.2682 39.7608 9.40044 39.5849 10.4933 39.7959C11.5862 40.007 12.5714 40.592 13.28 41.4503C13.9885 42.3087 14.3762 43.387 14.3763 44.5001ZM27.793 18.6251C27.793 19.9111 27.287 21.0784 26.4628 21.939C25.6932 22.743 24.6676 23.2541 23.5622 23.3844C22.4568 23.5147 21.3405 23.2561 20.405 22.653C19.4695 22.0499 18.7731 21.14 18.4355 20.0794C18.0978 19.0188 18.1399 17.8737 18.5545 16.8408C18.9691 15.8078 19.7304 14.9514 20.7076 14.4186C21.6849 13.8858 22.8171 13.7099 23.91 13.9209C25.0028 14.132 25.9881 14.717 26.6967 15.5753C27.4052 16.4337 27.7928 17.512 27.793 18.6251Z" stroke="#0D4C8F" stroke-width="4" stroke-linecap="round" stroke-linejoin="round"/>
</svg>
