<svg width="51" height="56" viewBox="0 0 51 56" fill="none" xmlns="http://www.w3.org/2000/svg">
<rect x="21" width="30" height="30" rx="5" fill="#20C897"/>
<path d="M22.5002 6.5L22.4998 6.5C17.9209 6.49856 13.4322 7.765 9.53699 10.1571C5.9228 12.3766 2.95221 15.4837 0.906818 19.1717C0.7827 19.3954 0.869266 19.6912 1.12236 19.817L3.83284 21.1643C4.07389 21.2841 4.38738 21.1924 4.53581 20.9307C6.24352 17.9197 8.69239 15.3819 11.6593 13.5596C14.9171 11.5586 18.6709 10.4992 22.4999 10.5L22.5002 6.5ZM22.5002 6.5C27.0791 6.49856 31.5678 7.765 35.463 10.1571M22.5002 6.5L35.463 10.1571M35.463 10.1571C39.0772 12.3766 42.0478 15.4837 44.0932 19.1717M35.463 10.1571L44.0932 19.1717M44.0932 19.1717C44.2173 19.3954 44.1307 19.6912 43.8776 19.817M44.0932 19.1717L43.8776 19.817M43.8776 19.817L41.1672 21.1643M43.8776 19.817L41.1672 21.1643M41.1672 21.1643C40.9261 21.2841 40.6126 21.1924 40.4642 20.9307M41.1672 21.1643L40.4642 20.9307M40.4642 20.9307C38.7565 17.9197 36.3076 15.3819 33.3407 13.5596M40.4642 20.9307L33.3407 13.5596M33.3407 13.5596C30.0829 11.5586 26.3291 10.4992 22.5001 10.5L33.3407 13.5596ZM35.074 31.5C35.6094 31.5 36.1222 31.7114 36.4998 32.0868C36.8773 32.4621 37.0889 32.9705 37.0889 33.5V55C37.0889 55.2761 36.865 55.5 36.5889 55.5H33.5592C33.2831 55.5 33.0592 55.2761 33.0592 55V37C33.0592 36.1716 32.3877 35.5 31.5592 35.5H13.4408C12.6123 35.5 11.9408 36.1716 11.9408 37V55C11.9408 55.2761 11.7169 55.5 11.4408 55.5H8.41114C8.135 55.5 7.91114 55.2761 7.91114 55V33.5C7.91114 32.9705 8.12269 32.4621 8.50022 32.0868C8.87785 31.7114 9.39064 31.5 9.92595 31.5H35.074ZM22.4999 16.5H22.5001C25.2105 16.4992 27.8673 17.2488 30.1728 18.6646C32.2008 19.91 33.8863 21.6275 35.0875 23.6623C35.2103 23.8703 35.1339 24.1619 34.8771 24.2895L32.1668 25.6367C31.9303 25.7543 31.6041 25.6692 31.4294 25.3939C30.5747 24.0473 29.4206 22.9078 28.0509 22.0661C26.3828 21.041 24.4607 20.4982 22.5 20.4982C20.5393 20.4982 18.6172 21.041 16.9491 22.0661C15.5794 22.9078 14.4253 24.0473 13.5706 25.3939C13.3959 25.6692 13.0697 25.7543 12.8332 25.6367L10.1229 24.2895C9.86611 24.1619 9.78974 23.8703 9.91251 23.6623C11.1137 21.6275 12.7992 19.91 14.8272 18.6646C17.1327 17.2488 19.7895 16.4992 22.4999 16.5ZM21.5 41.5C21.7761 41.5 22 41.7239 22 42V45C22 45.2761 21.7761 45.5 21.5 45.5H18.4704C18.1942 45.5 17.9704 45.2761 17.9704 45V42C17.9704 41.7239 18.1942 41.5 18.4704 41.5H21.5Z" fill="#0D4C8F" stroke="#0D4C8F"/>
</svg>
