<svg width="66" height="39" viewBox="0 0 66 39" fill="none" xmlns="http://www.w3.org/2000/svg">
<rect x="33" width="30" height="30" rx="5" fill="#20C897"/>
<path d="M18.1868 36.8404V34.0681L19.2259 34.0772C19.4913 35.8346 20.6967 36.3948 21.9226 36.4045C23.1743 36.4045 24.356 35.761 24.356 33.8569C24.356 31.9528 22.1424 31.3065 20.9125 30.5956C19.6826 29.8848 18.2649 28.9396 18.2649 26.841C18.2649 24.7425 20.3838 23.5498 21.9849 23.4322C23.5859 23.3145 23.9463 23.4275 25.9157 23.8571V26.5456H24.8623C24.5413 24.964 23.5335 24.3534 22.3698 24.3534C21.206 24.3534 20.1581 25.1091 20.1204 26.5047C20.0826 27.9003 20.9459 28.4199 22.711 29.4399C24.4762 30.4598 26.159 31.1028 26.1541 33.6367C26.0646 36.3007 24.1727 37.3648 22.0396 37.3648C20.5138 37.3648 19.4905 37.19 18.1868 36.8404ZM29.6672 32.5617C29.8935 34.1543 30.6969 36.127 32.7656 36.1232C34.8342 36.1193 35.9091 34.3936 36.1746 33.9333L37.0215 34.5726C36.5136 35.5995 34.8995 37.6368 32.1554 37.6368C29.4114 37.6368 27.5193 35.0939 27.5193 31.3885C27.5193 29.5531 28.8793 26.6101 32.2247 26.6101C35.57 26.6101 36.1486 29.9988 36.4522 31.0598L29.6672 32.5617ZM34.17 30.5538C33.7947 29.4333 33.1784 27.4004 31.333 27.6769C29.4876 27.9533 29.277 30.1556 29.4686 31.5861L34.17 30.5538ZM40.7385 35.3051C40.7385 36.5764 41.4863 36.5784 41.8667 36.6803V37.2169H37.8896V36.6802C38.1905 36.5651 39.0311 36.6018 39.0311 35.3051V24.7656C39.0077 24.2439 38.9292 23.6334 37.6938 23.6334V22.883H40.7385M50.04 24.8048H48.9706C48.9129 24.7048 48.8452 23.7804 47.7958 23.7943C46.7462 23.8082 46.3761 24.7714 46.3761 26.2259V27.626H48.6975V28.6849H46.3761V35.3051C46.3761 36.5311 47.0689 36.6022 47.5197 36.6803V37.2169H43.4568V36.6802C43.9156 36.5573 44.5712 36.5334 44.5712 35.3051V28.685H43.4091V28.1645C45.0102 27.9095 44.1793 27.5223 44.8454 25.3904C45.5114 23.2584 47.3558 22.8831 48.6787 22.8831C50.0015 22.8831 50.0399 22.9539 50.0399 22.9539L50.04 24.8048ZM10.5663 33.4725L9.35203 31.63L17.1473 34.335L10.253 39L11.0363 36.8047C-15.5639 35.5265 10.8409 18.4536 38.3298 13.5791C65.8187 8.70455 77.0902 15.5998 52.1737 27.6131L53.0681 25.3576L50.9179 24.4975C74.5336 11.9611 50.9963 10.861 30.9078 16.0404C10.8192 21.2197 -6.41761 31.9087 10.5663 33.4725Z" fill="#0D4C8F"/>
</svg>
