<svg width="53" height="56" viewBox="0 0 53 56" fill="none" xmlns="http://www.w3.org/2000/svg">
<rect x="23" width="30" height="30" rx="5" fill="#20C897"/>
<g clip-path="url(#clip0_2061_3781)">
<path d="M42.0654 29.0004C42.0665 28.6896 42.0597 28.3976 42.0448 28.1245L41.6454 28.1463L42.0448 28.1245C42.03 27.8538 42.0084 27.5766 41.98 27.2932L41.944 26.933H41.582H38.207H37.7168L37.8152 27.4133C37.868 27.6714 37.9003 27.9219 37.9125 28.1648C37.9255 28.4216 37.932 28.6998 37.932 28.9997V28.9998C37.9331 32.2656 36.8772 35.1023 34.7606 37.5284C32.8303 39.741 30.4644 41.1321 27.6512 41.7085L29.5945 38.3675L29.7959 38.0212L29.4493 37.8203L26.5743 36.1536L26.2281 35.9529L26.0275 36.2993L21.4442 44.2159L21.2433 44.5629L21.5907 44.763L29.5491 49.3463L29.8947 49.5454L30.0948 49.2003L31.7614 46.3253L31.9604 45.9821L31.6189 45.7803L30.5596 45.1544C33.8307 44.0419 36.5236 42.0901 38.6295 39.3042C40.9191 36.2752 42.0652 32.8361 42.0654 29.0004ZM42.0654 29.0004C42.0654 29.0002 42.0654 28.9999 42.0654 28.9997H41.6654L42.0654 29.0011C42.0654 29.0009 42.0654 29.0006 42.0654 29.0004ZM17.9144 44.5712L18.2474 44.7249L18.4293 44.4065L20.096 41.4898L20.318 41.1013L19.9071 40.9241C17.5334 39.9001 15.6358 38.3189 14.2065 36.1745C12.7788 34.0324 12.0654 31.6582 12.0654 29.0415C12.0665 28.204 12.141 27.3956 12.2884 26.6156C12.3828 26.1162 12.5075 25.6282 12.6626 25.1513L14.4852 28.3239L14.684 28.67L15.0305 28.472L17.9472 26.8053L18.2964 26.6057L18.0949 26.2576L13.5115 18.3409L13.3116 17.9955L12.9657 18.1947L5.0074 22.7781L4.65979 22.9782L4.86098 23.3253L6.52764 26.2003L6.72934 26.5482L7.07618 26.3446L8.20802 25.6803C8.13599 26.0745 8.07967 26.4732 8.03905 26.8762C7.96766 27.5845 7.93203 28.3062 7.93203 29.0413C7.93203 32.5058 8.85633 35.6256 10.7081 38.389C12.5537 41.1433 14.9574 43.2064 17.9144 44.5712ZM30.432 23.9997V24.3997H30.832H39.9987H40.3987V23.9997V14.833V14.433H39.9987H36.6654H36.2654V14.833V16.2034C34.8176 14.9217 33.2095 13.9175 31.4421 13.1929C29.3932 12.3529 27.2444 11.933 24.9987 11.933C23.1243 11.933 21.3446 12.2171 19.6619 12.7875C17.9879 13.355 16.4399 14.1359 15.0193 15.1303L14.7203 15.3396L14.9014 15.6565L16.5681 18.5731L16.7938 18.9681L17.1566 18.6937C18.2618 17.8581 19.4746 17.2112 20.7965 16.7526C22.1129 16.2958 23.5128 16.0663 24.9987 16.0663C26.9667 16.0675 28.8237 16.4918 30.5743 17.3397C32.0704 18.0642 33.3793 19.039 34.5028 20.2663H30.832H30.432V20.6663V23.9997Z" fill="#0D4C8F" stroke="#0D4C8F" stroke-width="0.8"/>
</g>
<defs>
<clipPath id="clip0_2061_3781">
<rect width="40" height="40" fill="white" transform="translate(5 9)"/>
</clipPath>
</defs>
</svg>
