<svg width="45" height="45" viewBox="0 0 45 45" fill="none" xmlns="http://www.w3.org/2000/svg">
<rect x="15" width="30" height="30" rx="5" fill="#20C897"/>
<path d="M16.2031 30.5469V34.7031C16.2031 36.3385 16.0104 37.7604 15.625 38.9688C15.25 40.1771 14.7083 41.1771 14 41.9688C13.3021 42.7604 12.4688 43.349 11.5 43.7344C10.5312 44.1198 9.46354 44.3125 8.29688 44.3125C7.35938 44.3125 6.48438 44.1927 5.67188 43.9531C4.85938 43.7031 4.125 43.3281 3.46875 42.8281C2.82292 42.3177 2.26562 41.6823 1.79688 40.9219C1.32812 40.1615 0.96875 39.2656 0.71875 38.2344C0.46875 37.1927 0.34375 36.0156 0.34375 34.7031V30.5469C0.34375 28.901 0.53125 27.4792 0.90625 26.2812C1.29167 25.0729 1.83854 24.0729 2.54688 23.2812C3.25521 22.4896 4.09375 21.901 5.0625 21.5156C6.03125 21.1302 7.09896 20.9375 8.26562 20.9375C9.20312 20.9375 10.0729 21.0625 10.875 21.3125C11.6875 21.5521 12.4219 21.9271 13.0781 22.4375C13.7344 22.9375 14.2917 23.5677 14.75 24.3281C15.2188 25.0885 15.5781 25.9896 15.8281 27.0312C16.0781 28.0625 16.2031 29.2344 16.2031 30.5469ZM10.9375 35.3438V29.875C10.9375 29.1458 10.8958 28.5104 10.8125 27.9688C10.7396 27.4271 10.625 26.9688 10.4688 26.5938C10.3229 26.2188 10.1406 25.9167 9.92188 25.6875C9.70312 25.4479 9.45312 25.276 9.17188 25.1719C8.90104 25.0573 8.59896 25 8.26562 25C7.84896 25 7.47396 25.0885 7.14062 25.2656C6.81771 25.4323 6.54167 25.7031 6.3125 26.0781C6.08333 26.4531 5.90625 26.9531 5.78125 27.5781C5.66667 28.2031 5.60938 28.9688 5.60938 29.875V35.3438C5.60938 36.0833 5.64583 36.7292 5.71875 37.2812C5.80208 37.8229 5.91667 38.2865 6.0625 38.6719C6.21875 39.0469 6.40625 39.3542 6.625 39.5938C6.84375 39.8229 7.09375 39.9896 7.375 40.0938C7.65625 40.1979 7.96354 40.25 8.29688 40.25C8.70312 40.25 9.06771 40.1667 9.39062 40C9.71354 39.8333 9.98958 39.5625 10.2188 39.1875C10.4583 38.8021 10.6354 38.2969 10.75 37.6719C10.875 37.0365 10.9375 36.2604 10.9375 35.3438ZM30.8281 20.9219H31.6719V25.0625H31.3906C30.3802 25.0625 29.4323 25.2031 28.5469 25.4844C27.6719 25.7656 26.901 26.1927 26.2344 26.7656C25.5781 27.3281 25.0625 28.0417 24.6875 28.9062C24.3229 29.7708 24.1406 30.7865 24.1406 31.9531V35.9375C24.1406 36.6667 24.2031 37.3021 24.3281 37.8438C24.4531 38.3854 24.6406 38.8333 24.8906 39.1875C25.1406 39.5417 25.4479 39.8073 25.8125 39.9844C26.1875 40.1615 26.6198 40.25 27.1094 40.25C27.5156 40.25 27.8906 40.1562 28.2344 39.9688C28.5781 39.7812 28.875 39.5156 29.125 39.1719C29.3854 38.8281 29.5833 38.4271 29.7188 37.9688C29.8542 37.5104 29.9219 37.0104 29.9219 36.4688C29.9219 35.8854 29.849 35.3594 29.7031 34.8906C29.5573 34.4219 29.349 34.026 29.0781 33.7031C28.8177 33.3698 28.5 33.1198 28.125 32.9531C27.7604 32.776 27.3594 32.6875 26.9219 32.6875C26.2552 32.6875 25.6875 32.8385 25.2188 33.1406C24.7604 33.4323 24.4115 33.8073 24.1719 34.2656C23.9427 34.724 23.8281 35.1875 23.8281 35.6562L22.5625 34.375C22.5417 33.75 22.6615 33.1042 22.9219 32.4375C23.1823 31.7708 23.5729 31.151 24.0938 30.5781C24.6146 30.0052 25.2656 29.5417 26.0469 29.1875C26.8281 28.8333 27.7344 28.6562 28.7656 28.6562C29.8073 28.6562 30.724 28.8542 31.5156 29.25C32.3177 29.6458 32.9896 30.1979 33.5312 30.9062C34.0833 31.6146 34.5 32.4427 34.7812 33.3906C35.0625 34.3385 35.2031 35.3646 35.2031 36.4688C35.2031 37.5833 35.0052 38.6198 34.6094 39.5781C34.224 40.526 33.6771 41.3542 32.9688 42.0625C32.2604 42.7708 31.4219 43.3229 30.4531 43.7188C29.4844 44.1146 28.4167 44.3125 27.25 44.3125C26.0521 44.3125 24.9427 44.1094 23.9219 43.7031C22.9115 43.2865 22.026 42.6875 21.2656 41.9062C20.5156 41.1146 19.9271 40.151 19.5 39.0156C19.0833 37.8802 18.875 36.5938 18.875 35.1562V33.2344C18.875 31.2865 19.1927 29.5521 19.8281 28.0312C20.474 26.5104 21.349 25.224 22.4531 24.1719C23.5677 23.1094 24.8438 22.3021 26.2812 21.75C27.7188 21.1979 29.2344 20.9219 30.8281 20.9219Z" fill="#0D4C8F"/>
<path d="M37.9531 41.5312C37.9531 40.7812 38.224 40.1562 38.7656 39.6562C39.3073 39.1458 40.0052 38.8906 40.8594 38.8906C41.724 38.8906 42.4219 39.1458 42.9531 39.6562C43.4948 40.1562 43.7656 40.7812 43.7656 41.5312C43.7656 42.2812 43.4948 42.9115 42.9531 43.4219C42.4219 43.9219 41.724 44.1719 40.8594 44.1719C40.0052 44.1719 39.3073 43.9219 38.7656 43.4219C38.224 42.9115 37.9531 42.2812 37.9531 41.5312Z" fill="#20C897"/>
</svg>
