<svg width="48" height="47" viewBox="0 0 48 47" fill="none" xmlns="http://www.w3.org/2000/svg">
<rect x="17.2136" width="30" height="30" rx="5" fill="#20C897"/>
<path d="M2.10251 28.1111H13.4358C13.9368 28.1111 14.4173 27.9121 14.7715 27.5579C15.1257 27.2036 15.3247 26.7232 15.3247 26.2222V14.8889C15.3247 14.3879 15.1257 13.9075 14.7715 13.5532C14.4173 13.199 13.9368 13 13.4358 13H2.10251C1.60155 13 1.1211 13.199 0.766866 13.5532C0.41263 13.9075 0.213623 14.3879 0.213623 14.8889V26.2222C0.213623 26.7232 0.41263 27.2036 0.766866 27.5579C1.1211 27.9121 1.60155 28.1111 2.10251 28.1111ZM3.9914 16.7778H11.547V24.3333H3.9914V16.7778ZM32.3247 13H20.9914C20.4904 13 20.01 13.199 19.6558 13.5532C19.3015 13.9075 19.1025 14.3879 19.1025 14.8889V26.2222C19.1025 26.7232 19.3015 27.2036 19.6558 27.5579C20.01 27.9121 20.4904 28.1111 20.9914 28.1111H32.3247C32.8257 28.1111 33.3061 27.9121 33.6604 27.5579C34.0146 27.2036 34.2136 26.7232 34.2136 26.2222V14.8889C34.2136 14.3879 34.0146 13.9075 33.6604 13.5532C33.3061 13.199 32.8257 13 32.3247 13ZM30.4358 24.3333H22.8803V16.7778H30.4358V24.3333ZM13.4358 47C13.9368 47 14.4173 46.801 14.7715 46.4468C15.1257 46.0925 15.3247 45.6121 15.3247 45.1111V33.7778C15.3247 33.2768 15.1257 32.7964 14.7715 32.4421C14.4173 32.0879 13.9368 31.8889 13.4358 31.8889H2.10251C1.60155 31.8889 1.1211 32.0879 0.766866 32.4421C0.41263 32.7964 0.213623 33.2768 0.213623 33.7778V45.1111C0.213623 45.6121 0.41263 46.0925 0.766866 46.4468C1.1211 46.801 1.60155 47 2.10251 47H13.4358ZM3.9914 35.6667H11.547V43.2222H3.9914V35.6667ZM28.547 33.7778H24.7692V37.5556H20.9914V41.3333H24.7692V45.1111H28.547V41.3333H32.3247V37.5556H28.547V33.7778Z" fill="#0D4C8F"/>
</svg>
