<svg width="43" height="54" viewBox="0 0 43 54" fill="none" xmlns="http://www.w3.org/2000/svg">
<rect x="13" width="30" height="30" rx="5" fill="#20C897"/>
<path d="M38.0605 37.9395L33.5605 33.4395C33.2792 33.1583 32.8977 33.0003 32.5 33.0003C32.1023 33.0003 31.7208 33.1583 31.4395 33.4395L17.5 47.379V54H24.121L38.0605 40.0605C38.3417 39.7792 38.4997 39.3977 38.4997 39C38.4997 38.6023 38.3417 38.2208 38.0605 37.9395ZM22.879 51H20.5V48.621L28 41.121L30.379 43.5L22.879 51ZM32.5 41.379L30.121 39L32.5 36.621L34.879 39L32.5 41.379ZM23.5 28.5V25.5H20.287C20.1473 24.9631 19.9327 24.4486 19.6495 23.9715L21.925 21.696L19.804 19.575L17.5285 21.8505C17.0514 21.5674 16.5369 21.3528 16 21.213V18H13V21.213C12.4631 21.3528 11.9486 21.5674 11.4715 21.8505L9.196 19.575L7.075 21.696L9.3505 23.9715C9.06731 24.4486 8.85271 24.9631 8.713 25.5H5.5V28.5H8.713C8.85271 29.0369 9.06731 29.5514 9.3505 30.0285L7.075 32.304L9.196 34.425L11.4715 32.1495C11.9486 32.4326 12.4631 32.6472 13 32.787V36H16V32.787C16.5369 32.6472 17.0514 32.4326 17.5285 32.1495L19.804 34.425L21.925 32.304L19.6495 30.0285C19.9327 29.5514 20.1473 29.0369 20.287 28.5H23.5ZM14.5 30C13.9067 30 13.3266 29.8241 12.8333 29.4944C12.3399 29.1648 11.9554 28.6962 11.7284 28.1481C11.5013 27.5999 11.4419 26.9967 11.5576 26.4147C11.6734 25.8328 11.9591 25.2982 12.3787 24.8787C12.7982 24.4591 13.3328 24.1734 13.9147 24.0576C14.4967 23.9419 15.0999 24.0013 15.6481 24.2284C16.1962 24.4554 16.6648 24.8399 16.9944 25.3333C17.3241 25.8266 17.5 26.4067 17.5 27C17.4988 27.7953 17.1824 28.5577 16.62 29.12C16.0577 29.6824 15.2953 29.9988 14.5 30Z" fill="#0D4C8F"/>
<path d="M12 54H3C2.20459 53.9992 1.44199 53.6829 0.879557 53.1204C0.31712 52.558 0.000794215 51.7954 0 51V15C0.000794215 14.2046 0.31712 13.442 0.879557 12.8796C1.44199 12.3171 2.20459 12.0008 3 12H27C27.7954 12.0008 28.558 12.3171 29.1204 12.8796C29.6829 13.442 29.9992 14.2046 30 15V30H27V15H3V51H12V54Z" fill="#0D4C8F"/>
</svg>
