<svg width="57" height="58" viewBox="0 0 57 58" fill="none" xmlns="http://www.w3.org/2000/svg">
<rect x="27" width="30" height="30" rx="5" fill="#20C897"/>
<path d="M9.47559 5L6.70359 7.76806L10.8281 11.8906L13.5962 9.12256L9.47559 5ZM45.6514 5L41.5268 9.12256L44.2969 11.8906L48.4194 7.77003L45.6514 5ZM27.5625 6.2285C26.9128 6.23638 26.2553 6.27378 25.5938 6.3545C25.5741 6.3545 25.5544 6.35056 25.5347 6.3545C17.5494 7.26997 11.1943 13.7216 10.0898 21.6714C9.20784 28.0698 11.846 33.8717 16.2422 37.6084C18.0405 39.1431 19.2568 41.2491 19.6875 43.5737V55.3862H24.1762C24.8614 56.5616 26.1115 57.355 27.5625 57.355C29.0135 57.355 30.2636 56.5616 30.9487 55.3862H35.4375V47.5112H35.6226V45.1723C35.6226 42.2862 37.1227 39.3763 39.5601 37.1143C42.8203 33.8501 45.2812 29.2137 45.2812 23.8882C45.2812 14.1626 37.2763 6.13794 27.5625 6.2285ZM27.5625 10.166C35.1717 10.0597 41.3438 16.2888 41.3438 23.8882C41.3438 28.0107 39.4341 31.6411 36.79 34.2832L36.853 34.3462C34.2255 36.7691 32.5265 40.0335 32.0493 43.5757H23.438C23.0048 40.2012 21.5578 36.9351 18.8232 34.5923C15.3444 31.6392 13.2713 27.1898 13.9643 22.1655C14.8247 15.964 19.8568 10.9771 26.0229 10.294C26.532 10.223 27.0447 10.1809 27.5586 10.168L27.5625 10.166ZM0 23.8882V27.8257H5.90625V23.8882H0ZM49.2188 23.8882V27.8257H55.125V23.8882H49.2188ZM10.8281 39.8232L6.70556 43.9438L9.47559 46.7139L13.5942 42.5913L10.8281 39.8232ZM44.2969 39.8232L41.5288 42.5913L45.6494 46.7139L48.4194 43.9438L44.2969 39.8232ZM23.625 47.5132H31.5V51.4507H23.625V47.5132Z" fill="#0D4C8F"/>
</svg>
