<svg width="58" height="54" viewBox="0 0 58 54" fill="none" xmlns="http://www.w3.org/2000/svg">
<rect x="28" width="30" height="30" rx="5" fill="#20C897"/>
<path d="M51.3 29.894C51.3 15.071 39.798 5 27 5C14.337 5 2.7 14.855 2.7 30.056C1.08 30.974 0 32.702 0 34.7V40.1C0 43.07 2.43 45.5 5.4 45.5C6.885 45.5 8.1 44.285 8.1 42.8V29.813C8.1 19.472 16.065 10.427 26.406 10.13C28.9368 10.053 31.4574 10.4849 33.8183 11.3999C36.1792 12.315 38.3324 13.6946 40.1502 15.4571C41.9681 17.2196 43.4137 19.3291 44.4014 21.6605C45.389 23.992 45.8986 26.498 45.9 29.03V48.2H27C25.515 48.2 24.3 49.415 24.3 50.9C24.3 52.385 25.515 53.6 27 53.6H45.9C48.87 53.6 51.3 51.17 51.3 48.2V44.906C52.893 44.069 54 42.422 54 40.478V34.268C54 32.378 52.893 30.731 51.3 29.894Z" fill="#0D4C8F"/>
<path d="M18.8992 34.6998C20.3904 34.6998 21.5992 33.491 21.5992 31.9998C21.5992 30.5086 20.3904 29.2998 18.8992 29.2998C17.408 29.2998 16.1992 30.5086 16.1992 31.9998C16.1992 33.491 17.408 34.6998 18.8992 34.6998Z" fill="#0D4C8F"/>
<path d="M35.1004 34.6998C36.5916 34.6998 37.8004 33.491 37.8004 31.9998C37.8004 30.5086 36.5916 29.2998 35.1004 29.2998C33.6092 29.2998 32.4004 30.5086 32.4004 31.9998C32.4004 33.491 33.6092 34.6998 35.1004 34.6998Z" fill="#0D4C8F"/>
<path d="M43.1999 26.6806C42.5561 22.8848 40.5901 19.4391 37.6499 16.9535C34.7097 14.468 30.9849 13.1028 27.1349 13.0996C18.9539 13.0996 10.1519 19.8766 10.8539 30.5146C14.1833 29.1522 17.1239 26.987 19.4135 24.2122C21.703 21.4374 23.2704 18.1392 23.9759 14.6116C27.5129 21.7126 34.7759 26.5996 43.1999 26.6806Z" fill="#0D4C8F"/>
</svg>
