<svg width="55" height="58" viewBox="0 0 55 58" fill="none" xmlns="http://www.w3.org/2000/svg">
<rect x="25" width="30" height="30" rx="5" fill="#20C897"/>
<path d="M37.0007 30C39.1754 29.9996 41.2906 29.2904 43.026 27.9797C44.7613 26.6691 46.0221 24.8285 46.6172 22.7369C47.2124 20.6452 47.1095 18.4166 46.3242 16.3887C45.5389 14.3608 44.1139 12.6442 42.2652 11.499C40.4165 10.3538 38.2449 9.84241 36.0795 10.0424C33.914 10.2424 31.8728 11.1428 30.2651 12.6072C28.6574 14.0716 27.5709 16.0201 27.1702 18.1576C26.7696 20.295 27.0766 22.5048 28.0447 24.452C28.2278 24.8056 28.2754 25.2138 28.1787 25.6L27.5827 27.826C27.5237 28.0464 27.5237 28.2784 27.5828 28.4988C27.6419 28.7192 27.7579 28.9202 27.9192 29.0815C28.0806 29.2428 28.2815 29.3588 28.5019 29.4179C28.7223 29.477 28.9543 29.477 29.1747 29.418L31.4007 28.822C31.7869 28.7253 32.1952 28.773 32.5487 28.956C33.9317 29.6446 35.4558 30.002 37.0007 30Z" stroke="#0D4C8F" stroke-width="4"/>
<path d="M33.0003 20H41.0003M37.0003 24V16M19.0763 20.632L20.3743 22.958C21.5443 25.058 21.0743 27.81 19.2303 29.656C19.2303 29.656 16.9903 31.894 21.0503 35.952C25.1043 40.006 27.3443 37.772 27.3443 37.772C29.1903 35.926 31.9443 35.456 34.0423 36.626L36.3683 37.926C39.5383 39.694 39.9123 44.138 37.1263 46.926C35.4523 48.598 33.4003 49.902 31.1343 49.986C27.3183 50.132 20.8363 49.166 14.3343 42.666C7.8343 36.164 6.8683 29.682 7.0143 25.866C7.1003 23.6 8.4023 21.548 10.0743 19.874C12.8623 17.088 17.3063 17.462 19.0743 20.634L19.0763 20.632Z" stroke="#0D4C8F" stroke-width="4" stroke-linecap="round"/>
</svg>
