<svg width="46" height="49" viewBox="0 0 46 49" fill="none" xmlns="http://www.w3.org/2000/svg">
<rect x="16" width="30" height="30" rx="5" fill="#20C897"/>
<path d="M16.2031 34.5469V38.7031C16.2031 40.3385 16.0104 41.7604 15.625 42.9688C15.25 44.1771 14.7083 45.1771 14 45.9688C13.3021 46.7604 12.4688 47.349 11.5 47.7344C10.5312 48.1198 9.46354 48.3125 8.29688 48.3125C7.35938 48.3125 6.48438 48.1927 5.67188 47.9531C4.85938 47.7031 4.125 47.3281 3.46875 46.8281C2.82292 46.3177 2.26562 45.6823 1.79688 44.9219C1.32812 44.1615 0.96875 43.2656 0.71875 42.2344C0.46875 41.1927 0.34375 40.0156 0.34375 38.7031V34.5469C0.34375 32.901 0.53125 31.4792 0.90625 30.2812C1.29167 29.0729 1.83854 28.0729 2.54688 27.2812C3.25521 26.4896 4.09375 25.901 5.0625 25.5156C6.03125 25.1302 7.09896 24.9375 8.26562 24.9375C9.20312 24.9375 10.0729 25.0625 10.875 25.3125C11.6875 25.5521 12.4219 25.9271 13.0781 26.4375C13.7344 26.9375 14.2917 27.5677 14.75 28.3281C15.2188 29.0885 15.5781 29.9896 15.8281 31.0312C16.0781 32.0625 16.2031 33.2344 16.2031 34.5469ZM10.9375 39.3438V33.875C10.9375 33.1458 10.8958 32.5104 10.8125 31.9688C10.7396 31.4271 10.625 30.9688 10.4688 30.5938C10.3229 30.2188 10.1406 29.9167 9.92188 29.6875C9.70312 29.4479 9.45312 29.276 9.17188 29.1719C8.90104 29.0573 8.59896 29 8.26562 29C7.84896 29 7.47396 29.0885 7.14062 29.2656C6.81771 29.4323 6.54167 29.7031 6.3125 30.0781C6.08333 30.4531 5.90625 30.9531 5.78125 31.5781C5.66667 32.2031 5.60938 32.9688 5.60938 33.875V39.3438C5.60938 40.0833 5.64583 40.7292 5.71875 41.2812C5.80208 41.8229 5.91667 42.2865 6.0625 42.6719C6.21875 43.0469 6.40625 43.3542 6.625 43.5938C6.84375 43.8229 7.09375 43.9896 7.375 44.0938C7.65625 44.1979 7.96354 44.25 8.29688 44.25C8.70312 44.25 9.06771 44.1667 9.39062 44C9.71354 43.8333 9.98958 43.5625 10.2188 43.1875C10.4583 42.8021 10.6354 42.2969 10.75 41.6719C10.875 41.0365 10.9375 40.2604 10.9375 39.3438ZM23.7656 34.4219H26.3281C26.9844 34.4219 27.5208 34.3073 27.9375 34.0781C28.3646 33.8385 28.6823 33.5052 28.8906 33.0781C29.099 32.6406 29.2031 32.125 29.2031 31.5312C29.2031 31.0729 29.1042 30.651 28.9062 30.2656C28.7188 29.8802 28.4271 29.5729 28.0312 29.3438C27.6354 29.1042 27.1302 28.9844 26.5156 28.9844C26.099 28.9844 25.6927 29.0729 25.2969 29.25C24.901 29.4167 24.5729 29.6562 24.3125 29.9688C24.0625 30.2812 23.9375 30.6615 23.9375 31.1094H18.6562C18.6562 29.8177 19.0104 28.7135 19.7188 27.7969C20.4375 26.8698 21.3802 26.1615 22.5469 25.6719C23.724 25.1719 24.9896 24.9219 26.3438 24.9219C27.9583 24.9219 29.375 25.1719 30.5938 25.6719C31.8125 26.1615 32.7604 26.8906 33.4375 27.8594C34.125 28.8177 34.4688 30.0052 34.4688 31.4219C34.4688 32.2031 34.2865 32.9375 33.9219 33.625C33.5573 34.3125 33.0469 34.9167 32.3906 35.4375C31.7344 35.9583 30.9635 36.3698 30.0781 36.6719C29.2031 36.9635 28.2448 37.1094 27.2031 37.1094H23.7656V34.4219ZM23.7656 38.3438V35.7188H27.2031C28.3385 35.7188 29.375 35.849 30.3125 36.1094C31.25 36.3594 32.0573 36.7344 32.7344 37.2344C33.4115 37.7344 33.9323 38.3542 34.2969 39.0938C34.6615 39.8229 34.8438 40.6615 34.8438 41.6094C34.8438 42.6719 34.6302 43.6198 34.2031 44.4531C33.776 45.2865 33.1771 45.9896 32.4062 46.5625C31.6354 47.1354 30.7344 47.5729 29.7031 47.875C28.6719 48.1667 27.5521 48.3125 26.3438 48.3125C25.3958 48.3125 24.4479 48.1875 23.5 47.9375C22.5521 47.6771 21.6875 47.2812 20.9062 46.75C20.125 46.2083 19.4948 45.5208 19.0156 44.6875C18.5469 43.8438 18.3125 42.8385 18.3125 41.6719H23.5938C23.5938 42.151 23.724 42.5885 23.9844 42.9844C24.2552 43.3698 24.6146 43.6771 25.0625 43.9062C25.5104 44.1354 25.9948 44.25 26.5156 44.25C27.1615 44.25 27.7083 44.1302 28.1562 43.8906C28.6146 43.6406 28.9635 43.3073 29.2031 42.8906C29.4427 42.474 29.5625 42.0104 29.5625 41.5C29.5625 40.7292 29.4323 40.1146 29.1719 39.6562C28.9219 39.1979 28.5521 38.8646 28.0625 38.6562C27.5833 38.4479 27.0052 38.3438 26.3281 38.3438H23.7656Z" fill="#0D4C8F"/>
<path d="M37.9531 45.5312C37.9531 44.7812 38.224 44.1562 38.7656 43.6562C39.3073 43.1458 40.0052 42.8906 40.8594 42.8906C41.724 42.8906 42.4219 43.1458 42.9531 43.6562C43.4948 44.1562 43.7656 44.7812 43.7656 45.5312C43.7656 46.2812 43.4948 46.9115 42.9531 47.4219C42.4219 47.9219 41.724 48.1719 40.8594 48.1719C40.0052 48.1719 39.3073 47.9219 38.7656 47.4219C38.224 46.9115 37.9531 46.2812 37.9531 45.5312Z" fill="#20C897"/>
</svg>
