<svg width="29" height="29" viewBox="0 0 29 29" fill="none" xmlns="http://www.w3.org/2000/svg">
<path d="M8.02326 20.9673L4.27518 18.9176L5.50502 17.6877L8.43321 18.0977L13.0012 13.5297L3.86523 8.55176L5.50502 6.91198L16.6907 9.7816L21.288 5.24291C21.6198 4.91105 22.0348 4.74512 22.533 4.74512C23.0312 4.74512 23.4458 4.91105 23.7769 5.24291C24.1088 5.57477 24.2747 5.98979 24.2747 6.48798C24.2747 6.98616 24.1088 7.40079 23.7769 7.73187L19.2089 12.2998L22.0786 23.4855L20.4388 25.1253L15.4609 15.9894L10.8929 20.5573L11.3028 23.4855L10.073 24.7154L8.02326 20.9673Z" fill="#D9D9D9"/>
</svg>
