<svg width="56" height="59" viewBox="0 0 56 59" fill="none" xmlns="http://www.w3.org/2000/svg">
<rect x="26" width="30" height="30" rx="5" fill="#20C897"/>
<path d="M27.4997 54.4163C24.3295 54.4163 21.3504 53.8144 18.5622 52.6105C15.774 51.4066 13.3486 49.7742 11.2861 47.7132C9.22364 45.6522 7.59121 43.2269 6.38884 40.4372C5.18648 37.6474 4.58454 34.6683 4.58301 31.4997C4.58148 28.3311 5.18343 25.3519 6.38884 22.5622C7.59426 19.7725 9.22669 17.3471 11.2861 15.2861C13.3456 13.2252 15.7709 11.5927 18.5622 10.3888C21.3534 9.18495 24.3326 8.58301 27.4997 8.58301H29.7913V27.5465C30.4788 27.9667 31.0327 28.5113 31.4528 29.1805C31.8729 29.8497 32.083 30.6227 32.083 31.4997C32.083 32.7601 31.6346 33.8395 30.7378 34.7378C29.841 35.6361 28.7616 36.0845 27.4997 36.083C26.2377 36.0815 25.1591 35.6331 24.2638 34.7378C23.3686 33.8425 22.9194 32.7631 22.9163 31.4997C22.9163 30.6212 23.1264 29.8382 23.5465 29.1507C23.9667 28.4632 24.5205 27.9285 25.208 27.5465V22.6195C23.2219 23.1542 21.5795 24.2336 20.2809 25.8576C18.9823 27.4816 18.333 29.3623 18.333 31.4997C18.333 34.0205 19.2306 36.1785 21.0257 37.9736C22.8209 39.7688 24.9788 40.6663 27.4997 40.6663C30.0205 40.6663 32.1785 39.7688 33.9736 37.9736C35.7688 36.1785 36.6663 34.0205 36.6663 31.4997C36.6663 30.1247 36.389 28.8551 35.8345 27.6909C35.2799 26.5268 34.5259 25.5047 33.5726 24.6247L36.8382 21.359C38.175 22.6195 39.2445 24.119 40.0466 25.8576C40.8486 27.5962 41.2497 29.4769 41.2497 31.4997C41.2497 35.3191 39.9129 38.5656 37.2393 41.2393C34.5656 43.9129 31.3191 45.2497 27.4997 45.2497C23.6802 45.2497 20.4337 43.9129 17.7601 41.2393C15.0865 38.5656 13.7497 35.3191 13.7497 31.4997C13.7497 28.0622 14.8382 25.0738 17.0153 22.5347C19.1924 19.9955 21.9233 18.4578 25.208 17.9215V13.2809C20.6629 13.8538 16.8526 15.859 13.7772 19.2965C10.7018 22.734 9.16482 26.8018 9.16634 31.4997C9.16634 36.6177 10.9424 40.9528 14.4945 44.5049C18.0466 48.057 22.3816 49.833 27.4997 49.833C32.6177 49.833 36.9528 48.057 40.5049 44.5049C44.057 40.9528 45.833 36.6177 45.833 31.4997C45.833 28.8643 45.3174 26.4007 44.2861 24.109C43.2549 21.8174 41.8417 19.8313 40.0466 18.1507L43.3122 14.8851C45.4893 16.9858 47.2179 19.4593 48.4982 22.3055C49.7785 25.1518 50.4179 28.2165 50.4163 31.4997C50.4163 34.6698 49.8144 37.649 48.6105 40.4372C47.4066 43.2254 45.7742 45.6507 43.7132 47.7132C41.6522 49.7757 39.2269 51.4089 36.4372 52.6128C33.6475 53.8167 30.6683 54.4179 27.4997 54.4163Z" fill="#0D4C8F"/>
</svg>
