<svg width="45" height="49" viewBox="0 0 45 49" fill="none" xmlns="http://www.w3.org/2000/svg">
<rect x="15" width="30" height="30" rx="5" fill="#20C897"/>
<path d="M16.2031 34.5469V38.7031C16.2031 40.3385 16.0104 41.7604 15.625 42.9688C15.25 44.1771 14.7083 45.1771 14 45.9688C13.3021 46.7604 12.4688 47.349 11.5 47.7344C10.5312 48.1198 9.46354 48.3125 8.29688 48.3125C7.35938 48.3125 6.48438 48.1927 5.67188 47.9531C4.85938 47.7031 4.125 47.3281 3.46875 46.8281C2.82292 46.3177 2.26562 45.6823 1.79688 44.9219C1.32812 44.1615 0.96875 43.2656 0.71875 42.2344C0.46875 41.1927 0.34375 40.0156 0.34375 38.7031V34.5469C0.34375 32.901 0.53125 31.4792 0.90625 30.2812C1.29167 29.0729 1.83854 28.0729 2.54688 27.2812C3.25521 26.4896 4.09375 25.901 5.0625 25.5156C6.03125 25.1302 7.09896 24.9375 8.26562 24.9375C9.20312 24.9375 10.0729 25.0625 10.875 25.3125C11.6875 25.5521 12.4219 25.9271 13.0781 26.4375C13.7344 26.9375 14.2917 27.5677 14.75 28.3281C15.2188 29.0885 15.5781 29.9896 15.8281 31.0312C16.0781 32.0625 16.2031 33.2344 16.2031 34.5469ZM10.9375 39.3438V33.875C10.9375 33.1458 10.8958 32.5104 10.8125 31.9688C10.7396 31.4271 10.625 30.9688 10.4688 30.5938C10.3229 30.2188 10.1406 29.9167 9.92188 29.6875C9.70312 29.4479 9.45312 29.276 9.17188 29.1719C8.90104 29.0573 8.59896 29 8.26562 29C7.84896 29 7.47396 29.0885 7.14062 29.2656C6.81771 29.4323 6.54167 29.7031 6.3125 30.0781C6.08333 30.4531 5.90625 30.9531 5.78125 31.5781C5.66667 32.2031 5.60938 32.9688 5.60938 33.875V39.3438C5.60938 40.0833 5.64583 40.7292 5.71875 41.2812C5.80208 41.8229 5.91667 42.2865 6.0625 42.6719C6.21875 43.0469 6.40625 43.3542 6.625 43.5938C6.84375 43.8229 7.09375 43.9896 7.375 44.0938C7.65625 44.1979 7.96354 44.25 8.29688 44.25C8.70312 44.25 9.06771 44.1667 9.39062 44C9.71354 43.8333 9.98958 43.5625 10.2188 43.1875C10.4583 42.8021 10.6354 42.2969 10.75 41.6719C10.875 41.0365 10.9375 40.2604 10.9375 39.3438ZM34.8438 43.9375V48H18.9688V44.5625L26.2812 36.875C26.9271 36.1354 27.4479 35.474 27.8438 34.8906C28.2396 34.2969 28.526 33.7604 28.7031 33.2812C28.8906 32.8021 28.9844 32.3698 28.9844 31.9844C28.9844 31.3281 28.8854 30.7812 28.6875 30.3438C28.5 29.8958 28.2188 29.5573 27.8438 29.3281C27.4792 29.099 27.026 28.9844 26.4844 28.9844C25.9427 28.9844 25.4688 29.1406 25.0625 29.4531C24.6562 29.7656 24.3385 30.1927 24.1094 30.7344C23.8906 31.276 23.7812 31.8854 23.7812 32.5625H18.5C18.5 31.1667 18.8385 29.8906 19.5156 28.7344C20.2031 27.5781 21.1562 26.6562 22.375 25.9688C23.5938 25.2708 25.0052 24.9219 26.6094 24.9219C28.2865 24.9219 29.6927 25.1823 30.8281 25.7031C31.9635 26.224 32.8177 26.9792 33.3906 27.9688C33.974 28.9479 34.2656 30.1302 34.2656 31.5156C34.2656 32.3073 34.1406 33.0677 33.8906 33.7969C33.6406 34.526 33.2812 35.25 32.8125 35.9688C32.3438 36.6771 31.7708 37.4062 31.0938 38.1562C30.4271 38.9062 29.6667 39.7031 28.8125 40.5469L25.875 43.9375H34.8438Z" fill="#0D4C8F"/>
<path d="M37.9531 45.5312C37.9531 44.7812 38.224 44.1562 38.7656 43.6562C39.3073 43.1458 40.0052 42.8906 40.8594 42.8906C41.724 42.8906 42.4219 43.1458 42.9531 43.6562C43.4948 44.1562 43.7656 44.7812 43.7656 45.5312C43.7656 46.2812 43.4948 46.9115 42.9531 47.4219C42.4219 47.9219 41.724 48.1719 40.8594 48.1719C40.0052 48.1719 39.3073 47.9219 38.7656 47.4219C38.224 46.9115 37.9531 46.2812 37.9531 45.5312Z" fill="#20C897"/>
</svg>
